<svg viewBox="0 0 22 22" xmlns="http://www.w3.org/2000/svg">
  <title>
    applications_22x22
  </title>
  <g>
    <g transform="translate(-685 -395)">
      <g transform="translate(100 164)">
        <g transform="translate(585 231)">
          <path d="M5.5 3a2.5 2.5 0 1 1-5 0 2.5 2.5 0 0 1 5 0zm16 0a2.5 2.5 0 1 1-5 0 2.5 2.5 0 0 1 5 0zm-8 0a2.5 2.5 0 1 1-5 0 2.5 2.5 0 0 1 5 0zm-8 16a2.5 2.5 0 1 1-5 0 2.5 2.5 0 0 1 5 0zm16 0a2.5 2.5 0 1 1-5 0 2.5 2.5 0 0 1 5 0zm-8 0a2.5 2.5 0 1 1-5 0 2.5 2.5 0 0 1 5 0zm-8-8a2.5 2.5 0 1 1-5 0 2.5 2.5 0 0 1 5 0zm16 0a2.5 2.5 0 1 1-5 0 2.5 2.5 0 0 1 5 0zm-8 0a2.5 2.5 0 1 1-5 0 2.5 2.5 0 0 1 5 0z"/>
        </g>
      </g>
    </g>
  </g>
</svg>
