<svg width="21" height="18" viewBox="0 0 21 18" xmlns="http://www.w3.org/2000/svg">
  <path d="M4.5 5.625H2.625m-.75 0v6.75m3.75 0h-3m3.75 0l-1.5 1.5m1.5-1.5l-1.5-1.5"/>
  <path fill-rule="evenodd" clip-rule="evenodd" d="M19.5 10.875v3c0 .225-.15.375-.375.375H7.875c-.225 0-.375-.15-.375-.375v-3c0-.225.15-.375.375-.375h11.25c.225 0 .375.15.375.375zm-11.25.375v2.25h10.5v-2.25H8.25zm8.25-4.125v-3c0-.225-.15-.375-.375-.375H4.875c-.225 0-.375.15-.375.375v3c0 .225.15.375.375.375h11.25c.225 0 .375-.15.375-.375zM5.25 4.5v2.25h10.5V4.5H5.25z"/>
  <mask id="mask0_56_590" style="mask-type:alpha" maskUnits="userSpaceOnUse" x="4" y="3" width="16" height="12">
    <path fill-rule="evenodd" clip-rule="evenodd" d="M19.5 10.875v3c0 .225-.15.375-.375.375H7.875c-.225 0-.375-.15-.375-.375v-3c0-.225.15-.375.375-.375h11.25c.225 0 .375.15.375.375zm-11.25.375v2.25h10.5v-2.25H8.25zm8.25-4.125v-3c0-.225-.15-.375-.375-.375H4.875c-.225 0-.375.15-.375.375v3c0 .225.15.375.375.375h11.25c.225 0 .375-.15.375-.375zM5.25 4.5v2.25h10.5V4.5H5.25z"/>
  </mask>
  <g mask="url(#mask0_56_590)">
    <path d="M0"/>
  </g>
</svg>
