<?xml version="1.0" encoding="utf-8"?>
<!-- Generator: Adobe Illustrator 21.0.2, SVG Export Plug-In . SVG Version: 6.00 Build 0)  -->
<svg version="1.1" id="Layer_1" xmlns="http://www.w3.org/2000/svg" xmlns:xlink="http://www.w3.org/1999/xlink" x="0px" y="0px"
	 viewBox="0 0 32 32" style="enable-background:new 0 0 32 32;" xml:space="preserve">
<style type="text/css">
	.st0{fill:none;stroke:#4C6472;stroke-linecap:round;stroke-linejoin:round;}
	.st1{fill:none;stroke:#4C6472;stroke-miterlimit:10;}
	.st2{fill:none;stroke:#4C6472;stroke-linecap:round;stroke-miterlimit:10;}
</style>
<title>airplane_engine_32x32</title>
<g>
	<path class="st0" d="M12.9,28H7.4c-0.4,0-0.7-0.3-0.7-0.7c-1.8-7.4-1.8-15.2,0-22.6C6.7,4.3,7,4,7.4,4H13
		C10.9,11.9,10.9,20.1,12.9,28z"/>
	<path class="st0" d="M14,21.2c-0.2-1.7-0.3-3.4-0.3-5.2c0-1.7,0.1-3.5,0.3-5.2"/>
	<path class="st1" d="M11.4,28h1.7c0.4,0,0.7-0.3,0.7-0.7c0.5-2,0.9-4,1.1-6.1"/>
	<path class="st0" d="M11.4,4h1.7c0.4,0,0.7,0.3,0.7,0.7c0.5,2,0.8,4,1.1,6.1"/>
	<line class="st1" x1="14.1" y1="11" x2="21.3" y2="9"/>
	<line class="st1" x1="14.1" y1="21" x2="21.3" y2="23"/>
	<line class="st1" x1="14.1" y1="14" x2="21.3" y2="14"/>
	<line class="st1" x1="14.1" y1="18" x2="21.3" y2="18"/>
	<line class="st2" x1="21.5" y1="8" x2="21.5" y2="24"/>
	<path class="st2" d="M21.6,20.9c0,0,2.3,2,5.3-1V12c-3-3-5.3-1-5.3-1"/>
	<polyline class="st0" points="26.9,14 30.8,16 26.9,18 	"/>
	<path class="st0" d="M5.2,18.8l-3-1.5c-0.7-0.5-0.9-1.5-0.5-2.2c0.1-0.2,0.3-0.3,0.5-0.5l3-1.5"/>
</g>
</svg>
