<svg id="Layer_1" data-name="Layer 1" xmlns="http://www.w3.org/2000/svg" viewBox="0 0 30 16.2"><title>automobile_32x32</title><circle cx="6.3" cy="13.21" r="2.49" fill="none" stroke="#4c6472" stroke-linejoin="round"/><circle cx="23.7" cy="13.21" r="2.49" fill="none" stroke="#4c6472" stroke-linejoin="round"/><line x1="21.21" y1="13.21" x2="8.79" y2="13.21" fill="none" stroke="#4c6472" stroke-linejoin="round"/><path d="M4.81,21.76H2.33a.85.85,0,0,1-.83-.87V16.28a.87.87,0,0,1,.52-.8L7.3,14,9.06,10a2.47,2.47,0,0,1,2.13-1.26h6.68a2.43,2.43,0,0,1,1.76.76l3.21,4.23a.82.82,0,0,0,.48.25l5.93,1.36A1.72,1.72,0,0,1,30.5,17v3.85a.85.85,0,0,1-.83.87H27.19" transform="translate(-1 -8.26)" fill="none" stroke="#4c6472" stroke-linejoin="round"/><path d="M9.25,14.77l1.61-3.61a.76.76,0,0,1,.65-.39h6.12a.74.74,0,0,1,.54.23l2.68,3.77Z" transform="translate(-1 -8.26)" fill="none" stroke="#4c6472" stroke-linejoin="round"/><line x1="13.76" y1="2.44" x2="13.76" y2="6.59" fill="none" stroke="#4c6472" stroke-linejoin="round"/><polyline points="27.01 7 27.01 9.07 29.5 9.07" fill="none" stroke="#4c6472" stroke-linejoin="round"/></svg>