<svg width="32" height="32" xmlns="http://www.w3.org/2000/svg">
 <title>boiler_32x32</title>

 <g>
  <ellipse stroke-linejoin="round" stroke="#4c6472" fill="none" ry="3" rx="10.5" cy="4.43748" cx="15.37493"/>
  <line stroke-linejoin="round" stroke="#4c6472" fill="none" y2="4.43748" x2="25.87493" y1="12.02748" x1="25.87493"/>
  <path stroke-linejoin="round" stroke="#4c6472" fill="none" d="m25.87493,26.02748l0,1.5c0,1.66 -4.7,3 -10.5,3s-10.5,-1.34 -10.5,-3l0,-23.09"/>
  <circle stroke-linejoin="round" stroke="#4c6472" fill="none" r="3.5" cy="13.93748" cx="15.37493"/>
  <line stroke-linejoin="round" stroke="#4c6472" fill="none" y2="12.43748" x2="16.87493" y1="14.43748" x1="15.37493"/>
  <path stroke-linejoin="round" stroke="#4c6472" fill="none" d="m28.90493,20.02748a3.53,3.53 0 0 1 -7.07,0c0,-2.05 1.58,-2.61 1.58,-4.29a10.43,10.43 0 0 1 1.68,2.24a4.42,4.42 0 0 0 1.12,-3.95a7.38,7.38 0 0 1 2.69,6z"/>
 </g>
</svg>