<svg id="Layer_1" data-name="Layer 1" xmlns="http://www.w3.org/2000/svg" viewBox="0 0 30 19"><title>gas_turbine_32x32</title><line x1="4.5" y1="1.94" x2="9.5" y2="4.5" fill="none" stroke="#4c6472" stroke-linejoin="round"/><line x1="4.5" y1="19" x2="4.5" fill="none" stroke="#4c6472" stroke-linejoin="round"/><line x1="4.5" y1="17.06" x2="9.5" y2="14.5" fill="none" stroke="#4c6472" stroke-linejoin="round"/><path d="M5.5,21.46,2.5,23a21.63,21.63,0,0,1,0-13l3,1.54" transform="translate(-1 -7)" fill="none" stroke="#4c6472" stroke-linecap="round" stroke-linejoin="round"/><rect x="8.6" y="4.5" width="5.88" height="10" fill="none" stroke="#4c6472" stroke-linecap="round" stroke-linejoin="round"/><path d="M22.5,21.81l6,3.19a19.06,19.06,0,0,0,0-17c-2.33,1.06-3.67,2.13-6,3.19Z" transform="translate(-1 -7)" fill="none" stroke="#4c6472" stroke-linecap="round" stroke-linejoin="round"/><rect x="14.47" y="1.5" width="3" height="4" fill="none" stroke="#4c6472" stroke-linecap="round" stroke-linejoin="round"/><rect x="17.47" y="2.5" width="4.03" height="2" fill="none" stroke="#4c6472" stroke-linecap="round" stroke-linejoin="round"/><rect x="14.47" y="7.5" width="3" height="4" fill="none" stroke="#4c6472" stroke-linecap="round" stroke-linejoin="round"/><rect x="17.47" y="8.5" width="4.03" height="2" fill="none" stroke="#4c6472" stroke-linecap="round" stroke-linejoin="round"/><rect x="14.47" y="13.5" width="3" height="4" fill="none" stroke="#4c6472" stroke-linecap="round" stroke-linejoin="round"/><rect x="17.47" y="14.5" width="4.03" height="2" fill="none" stroke="#4c6472" stroke-linecap="round" stroke-linejoin="round"/></svg>