<svg id="Layer_1" data-name="Layer 1" xmlns="http://www.w3.org/2000/svg" viewBox="0 0 32 17"><title>line_32x32</title><path d="M1.5,8.74l6,2.79v8s-6,3-6,2.79Z" transform="translate(0 -7)" fill="none" stroke="#4c6472" stroke-linecap="round" stroke-linejoin="round"/><path d="M13.5,8.74l-6,2.79v8s6,3,6,2.79Z" transform="translate(0 -7)" fill="none" stroke="#4c6472" stroke-linecap="round" stroke-linejoin="round"/><path d="M23.5,12.75l-5-3.25v12a56.58,56.58,0,0,0,5-3.25l7,5.25V7.5S23.5,12.5,23.5,12.75Z" transform="translate(0 -7)" fill="none" stroke="#4c6472" stroke-linecap="round" stroke-linejoin="round"/><line x1="31.5" y1="8.5" x2="30.5" y2="8.5" fill="none" stroke="#4c6472" stroke-linecap="round" stroke-linejoin="round"/><line x1="18.5" y1="9.5" x2="13.5" y2="9.5" fill="none" stroke="#4c6472" stroke-linecap="round" stroke-linejoin="round"/><line x1="18.5" y1="7.5" x2="13.5" y2="7.5" fill="none" stroke="#4c6472" stroke-linecap="round" stroke-linejoin="round"/><line x1="1.5" y1="8.5" x2="0.5" y2="8.5" fill="none" stroke="#4c6472" stroke-linecap="round" stroke-linejoin="round"/><line x1="23.5" y1="11.25" x2="23.5" y2="5.75" fill="none" stroke="#4c6472" stroke-linecap="round" stroke-linejoin="round"/></svg>