<svg width="32" height="32" xmlns="http://www.w3.org/2000/svg">
 <title>product_32x32</title>

 <g>
  <polygon stroke-linejoin="round" stroke="#4c6472" fill="none" points="28.59999942779541,22.829999327659607 28.59999942779541,9.649999022483826 15.679999351501465,1.809999406337738 2.7499990463256836,9.649999022483826 2.7499990463256836,22.829999327659607 15.679999351501465,30.65999925136566 28.59999942779541,22.829999327659607 "/>
  <line stroke-linejoin="round" stroke="#4c6472" fill="none" y2="20.89" x2="11" y1="18.13" x1="6.51"/>
  <polyline stroke-linejoin="round" stroke="#4c6472" fill="none" points="28.59999942779541,10.559999823570251 28.59999942779541,9.589999556541443 15.679999351501465,1.7499994039535522 2.7499990463256836,9.589999556541443 2.7499990463256836,10.089999556541443 2.7499990463256836,9.619999289512634 "/>
  <polyline stroke-linejoin="round" stroke="#4c6472" fill="none" points="2.669999063014984,10.119999289512634 15.679999351501465,17.999999403953552 28.679999351501465,10.119999289512634 "/>
  <line stroke-linejoin="round" stroke="#4c6472" fill="none" y2="30.75" x2="15.68" y1="18.07" x1="15.68"/>
  <polyline stroke-linejoin="round" stroke="#4c6472" fill="none" points="21.20999813079834,14.639999747276306 21.20999813079834,18.540000319480896 23.97999858856201,16.749999403953552 23.97999858856201,13.009999632835388 "/>
  <polyline stroke-linejoin="round" stroke="#4c6472" fill="none" points="10.669999122619629,4.78999936580658 10.709999084472656,4.809999346733093 23.88999843597412,13.009999632835388 "/>
  <polyline stroke-linejoin="round" stroke="#4c6472" fill="none" points="7.989998817443848,6.669999480247498 8.029998779296875,6.689999461174011 21.20999813079834,14.889999747276306 "/>
 </g>
</svg>