<svg id="Layer_1" data-name="Layer 1" xmlns="http://www.w3.org/2000/svg" viewBox="0 0 30.04 20"><title>rail_yard_32x32</title><line y1="19.5" x2="30" y2="19.5" fill="none" stroke="#4c6472" stroke-linejoin="round"/><polygon points="29.54 12.5 19.4 12.5 17.08 15.5 12.96 15.5 10.95 12.5 0.5 12.5 0.5 0.5 29.54 0.5 29.54 12.5" fill="none" stroke="#4c6472" stroke-linejoin="round"/><circle cx="3" cy="15" r="2.5" fill="none" stroke="#4c6472" stroke-linejoin="round"/><path d="M12.13,18.77A2.5,2.5,0,1,0,13.5,21a1.34,1.34,0,0,0,0-.2" transform="translate(-1 -6)" fill="none" stroke="#4c6472" stroke-linejoin="round"/><path d="M20.32,18.61A2.41,2.41,0,0,1,21,18.5a2.5,2.5,0,1,1-2.5,2.5v-.1" transform="translate(-1 -6)" fill="none" stroke="#4c6472" stroke-linejoin="round"/><circle cx="27.04" cy="15" r="2.5" fill="none" stroke="#4c6472" stroke-linejoin="round"/><line x1="6.5" y1="4" x2="6.5" y2="9" fill="none" stroke="#4c6472" stroke-linejoin="round"/><line x1="17.54" y1="4" x2="17.54" y2="9" fill="none" stroke="#4c6472" stroke-linejoin="round"/><line x1="12.5" y1="4" x2="12.5" y2="9" fill="none" stroke="#4c6472" stroke-linejoin="round"/><line x1="23.54" y1="4" x2="23.54" y2="9" fill="none" stroke="#4c6472" stroke-linejoin="round"/></svg>