<svg id="Layer_1" data-name="Layer 1" xmlns="http://www.w3.org/2000/svg" viewBox="0 0 29.9 25"><title>truck_32x32</title><line x1="9.55" y1="21.5" x2="6.45" y2="21.5" fill="none" stroke="#4c6472" stroke-linejoin="round"/><polyline points="14.45 21.5 18.41 21.5 18.41 6.5 23.29 6.5 29.4 13.5 29.4 21.5 26.71 21.5" fill="none" stroke="#4c6472" stroke-linejoin="round"/><path d="M21.53,15.53v-3h2.62l2.28,2.4a.35.35,0,0,1-.23.6Z" transform="translate(-1.03 -3.03)" fill="none" stroke="#4c6472" stroke-linejoin="round"/><line x1="23" y1="21.5" x2="18" y2="21.5" fill="none" stroke="#4c6472" stroke-linejoin="round"/><circle cx="4" cy="22" r="2.5" fill="none" stroke="#4c6472" stroke-linejoin="round"/><circle cx="12" cy="22" r="2.5" fill="none" stroke="#4c6472" stroke-linejoin="round"/><circle cx="25" cy="22" r="2.5" fill="none" stroke="#4c6472" stroke-linejoin="round"/><polyline points="1.55 21.5 0.5 21.5 0.5 3.5 16.5 3.5" fill="none" stroke="#4c6472" stroke-linejoin="round"/><path d="M16.53,3.53H18A1.5,1.5,0,0,1,19.53,5v5.5" transform="translate(-1.03 -3.03)" fill="none" stroke="#4c6472" stroke-linejoin="round"/></svg>