<svg id="Layer_1" data-name="Layer 1" xmlns="http://www.w3.org/2000/svg" viewBox="0 0 26 32"><title>attribute_32x32</title><path d="M7.5,19.9c-.2,0-.2-.1-.2-.2v-.4c0-.2.1-.2.2-.2H9V13.2l-1.4.9c-.1.1-.2.1-.3-.1l-.2-.3c-.1-.1-.1-.2.1-.3L9,12.3c.1-.1.2-.1.4-.1h.4c.2,0,.2.1.2.2v6.8h1.4c.2,0,.2.1.2.2v.4c0,.2-.1.2-.2.2H7.5Z" transform="translate(-3)" fill="#4c6472"/><path d="M13.2,19.9c-.2,0-.2-.1-.2-.2v-.4c0-1.5.9-2.4,2.2-3.3.7-.5,1.4-.9,1.4-1.8s-.4-1.3-1.5-1.3a2.46,2.46,0,0,0-1.5.5.19.19,0,0,1-.3,0l-.2-.3a.19.19,0,0,1,0-.3,3.39,3.39,0,0,1,2-.6c1.7,0,2.4.9,2.4,2.1s-1,1.9-1.9,2.5A2.76,2.76,0,0,0,14,19.1h3.5c.2,0,.2.1.2.2v.4c0,.2-.1.2-.2.2Z" transform="translate(-3)" fill="#4c6472"/><path d="M22.3,20a4,4,0,0,1-2.1-.6.19.19,0,0,1,0-.3l.2-.3a.19.19,0,0,1,.3,0,2.54,2.54,0,0,0,1.6.5A1.5,1.5,0,0,0,24,17.7a1.5,1.5,0,0,0-1.7-1.6H22c-.1,0-.2,0-.3-.2l-.1-.1a.19.19,0,0,1,0-.3l1.9-2.4H20.6c-.2,0-.2-.1-.2-.2v-.4c0-.2.1-.2.2-.2h3.8c.2,0,.2.1.2.2v.2c0,.2,0,.3-.1.4l-1.1,1.5a6.47,6.47,0,0,1-.8.9A2.28,2.28,0,0,1,25,17.8C25,18.9,24.1,20,22.3,20Z" transform="translate(-3)" fill="#4c6472"/><polygon points="25.5 31.5 0.5 31.5 0.5 8.5 13.2 0.5 25.5 8.5 25.5 31.5" fill="none" stroke="#4c6472" stroke-linejoin="round"/><line x1="5" y1="23.5" x2="21" y2="23.5" fill="none" stroke="#4c6472" stroke-linejoin="round"/><line x1="7" y1="26.5" x2="19" y2="26.5" fill="none" stroke="#4c6472" stroke-linejoin="round"/><circle cx="13" cy="6.5" r="1.5" fill="#4c6472"/></svg>