<svg id="Layer_1" data-name="Layer 1" xmlns="http://www.w3.org/2000/svg" viewBox="0 0 30 21"><title>locomotive_32x32</title><line y1="20.5" x2="30" y2="20.5" fill="none" stroke="#4c6472" stroke-miterlimit="10"/><polyline points="3 11.5 26.5 11.5 29.5 17.5 25.5 17.5 24.5 14.5 5.5 14.5 4.5 17.5 0.5 17.5 0.5 0.5 19.5 0.5 21.5 5.5 26.5 5.5 26.5 11.5" fill="none" stroke="#4c6472" stroke-linejoin="round"/><path d="M12,19.5a2.5,2.5,0,1,1-4,0" transform="translate(-1 -5)" fill="none" stroke="#4c6472" stroke-miterlimit="10"/><path d="M18,19.5a2.5,2.5,0,1,1-4,0" transform="translate(-1 -5)" fill="none" stroke="#4c6472" stroke-miterlimit="10"/><path d="M24,19.5a2.5,2.5,0,1,1-4,0" transform="translate(-1 -5)" fill="none" stroke="#4c6472" stroke-miterlimit="10"/><path d="M21.44,7.5H16.56L17,9.05a1.63,1.63,0,0,0,1.44,1.45h4.5" transform="translate(-1 -5)" fill="none" stroke="#4c6472" stroke-linejoin="round"/></svg>