<svg id="Layer_1" data-name="Layer 1" xmlns="http://www.w3.org/2000/svg" viewBox="0 0 25 30"><title>orders_32x32</title><polygon points="24.5 6.5 24.5 29.5 0.5 29.5 0.5 0.5 18.5 0.5 24.5 6.5" fill="none" stroke="#4c6472" stroke-miterlimit="10"/><polyline points="17.5 0.5 17.5 7.5 24.5 7.5" fill="none" stroke="#4c6472" stroke-miterlimit="10"/><line x1="4" y1="20.5" x2="17" y2="20.5" fill="none" stroke="#4c6472" stroke-miterlimit="10"/><line x1="4" y1="16.5" x2="20" y2="16.5" fill="none" stroke="#4c6472" stroke-miterlimit="10"/><line x1="4" y1="24.5" x2="20" y2="24.5" fill="none" stroke="#4c6472" stroke-miterlimit="10"/><path d="M11.91,8c-.87-.28-1.68-.52-1.68-1.17v0c0-.56.49-1,1.26-1a3.58,3.58,0,0,1,1.93.66l.44-.76A4.4,4.4,0,0,0,12,5V4H11V5A1.9,1.9,0,0,0,9.3,6.94V7c0,1.25,1.13,1.62,2.15,1.92.86.25,1.63.51,1.63,1.19v0c0,.66-.57,1.08-1.35,1.08a3.72,3.72,0,0,1-2.26-.87L9,11A4.42,4.42,0,0,0,11,12v1h1V12a2,2,0,0,0,2-2v0C14,8.75,12.92,8.35,11.91,8Z" transform="translate(-3 -1)" fill="#4c6472"/></svg>