<svg id="Layer_1" data-name="Layer 1" xmlns="http://www.w3.org/2000/svg" viewBox="0 0 23.81 30"><title>wind_turbine_32x32</title><circle cx="13.07" cy="13.13" r="2.34" fill="none" stroke="#4c6472" stroke-linejoin="round"/><line x1="11.67" y1="17.81" x2="9.88" y2="29.5" fill="none" stroke="#4c6472" stroke-linejoin="round"/><line x1="16.35" y1="29.5" x2="14.56" y2="17.81" fill="none" stroke="#4c6472" stroke-linejoin="round"/><path d="M15.85,11.82,14.48,9.9A1.87,1.87,0,0,1,14.33,8L17.57,1.5h1.87L17.57,12.27" transform="translate(-3.1 -1)" fill="none" stroke="#4c6472" stroke-linejoin="round"/><path d="M18.33,15l2.34-.22a1.87,1.87,0,0,1,1.74.83l4,6-.94,1.62-8.39-7" transform="translate(-3.1 -1)" fill="none" stroke="#4c6472" stroke-linejoin="round"/><path d="M14.33,15.57l-1,2.14c-.29.63-1.16.67-1.85.71l-7,.81L3.6,17.61l10.26-3.76" transform="translate(-3.1 -1)" fill="none" stroke="#4c6472" stroke-linejoin="round"/><line x1="6.06" y1="29.5" x2="20.09" y2="29.5" fill="none" stroke="#4c6472" stroke-miterlimit="10"/></svg>