<?xml version="1.0" encoding="utf-8"?>
<!--Generator: Adobe Illustrator 21.0.2, SVG Export Plug-In . SVG Version: 6.00 Build 0)-->
<svg id="Layer_1" xmlns="http://www.w3.org/2000/svg" viewBox="0 0 32 32">
  <style>
    .st0{fill:none;stroke:#4C6472;stroke-linecap:round;stroke-linejoin:round;} .st1{fill:none;stroke:#4C6472;stroke-miterlimit:10;} .st2{fill:none;stroke:#4C6472;stroke-linecap:round;stroke-miterlimit:10;}
  </style>
  <title>
    airplane_engine_32x32
  </title>
  <g>
    <path d="M12.9 28H7.4c-.4 0-.7-.3-.7-.7-1.8-7.4-1.8-15.2 0-22.6 0-.4.3-.7.7-.7H13c-2.1 7.9-2.1 16.1-.1 24zm1.1-6.8a45.33 45.33 0 0 1 0-10.4"/>
    <path d="M11.4 28h1.7c.4 0 .7-.3.7-.7.5-2 .9-4 1.1-6.1M11.4 4h1.7c.4 0 .7.3.7.7.5 2 .8 4 1.1 6.1m-.8.2l7.2-2m-7.2 12l7.2 2m-7.2-9h7.2m-7.2 4h7.2m.2-10v16m.1-3.1s2.3 2 5.3-1V12c-3-3-5.3-1-5.3-1m5.3 3l3.9 2-3.9 2m-21.7.8l-3-1.5c-.7-.5-.9-1.5-.5-2.2.1-.2.3-.3.5-.5l3-1.5"/>
  </g>
</svg>
