<svg id="Layer_1" data-name="Layer 1" xmlns="http://www.w3.org/2000/svg" viewBox="0 0 30 27">
  <title>
    condenser_32x32
  </title>
  <path d="M19.57 29.5h-4V22c0-3 2.16-5.5 4.83-5.5h5.18v4h-4.3c-1.21 0-1.7 1.12-1.7 2.5z" transform="translate(-1 -3)" stroke-linejoin="round"/>
  <path d="M20.32 16.5h-7c-2.63 0-4.79 2.5-4.79 5.5v7.5h3.9V23c0-1.36.57-2.47 1.76-2.5" transform="translate(-1 -3)" stroke-linejoin="round"/>
  <path d="M13.29 16.5h-7C3.66 16.5 1.5 19 1.5 22v7.5h4V23c0-1.36.47-2.47 1.66-2.5" transform="translate(-1 -3)" stroke-linejoin="round"/>
  <path d="M6.77 15v-2c0-2.5 2.64-5.5 2.64-9.5h18.45c0 4 2.64 7 2.64 9.5v12.5H20.39" transform="translate(-1 -3)" stroke-linejoin="round"/>
</svg>
