<svg id="Layer_1" data-name="Layer 1" xmlns="http://www.w3.org/2000/svg" viewBox="0 0 18 30">
  <title>
    light_bulb_32x32
  </title>
  <path d="M24.5 10a8.5 8.5 0 1 0-13.69 6.73 4.27 4.27 0 0 1 1.69 3.37v6.68a.72.72 0 0 0 .72.72h5.56a.72.72 0 0 0 .72-.72v-6.67a4.4 4.4 0 0 1 1.75-3.44A8.47 8.47 0 0 0 24.5 10z" transform="translate(-7 -1)" stroke-linecap="round" stroke-linejoin="round"/>
  <path d="M18.5 28a2.5 2.5 0 1 1-5 0" transform="translate(-7 -1)" stroke-linejoin="round"/>
  <path stroke-linecap="round" stroke-linejoin="round" d="M5.5 20.5h7m-7 3h7"/>
</svg>
