<svg width="32" height="32" xmlns="http://www.w3.org/2000/svg">
  <title>
    machine_32x32
  </title>
  <g>
    <path stroke-miterlimit="10" d="M4.75 19.06c0-9.56 5.15-17.31 11.5-17.31s11.5 7.75 11.5 17.31"/>
    <circle stroke-miterlimit="10" r="2.34" cy="19.06" cx="16.25"/>
    <path stroke-miterlimit="10" d="M16.25 30.56a11.5 11.5 0 1 1 11.5-11.5 11.51 11.51 0 0 1-11.5 11.5zm-.41-13.99c-1.74-2.2-1.12-5.93-1.12-5.93m3 6.36c.32-2.79 3.4-5 3.4-5m-2.38 6.64c2.2-1.74 5.93-1.12 5.93-1.12m-6.37 3c2.79.32 5 3.4 5 3.4m-6.64-2.38c1.74 2.2 1.12 5.93 1.12 5.93m-3-6.36c-.32 2.79-3.4 5-3.4 5m2.38-6.64c-2.2 1.74-5.93 1.12-5.93 1.12m6.37-3c-2.79-.32-5-3.4-5-3.4"/>
  </g>
</svg>
