<svg id="Layer_1" data-name="Layer 1" xmlns="http://www.w3.org/2000/svg" viewBox="0 0 32 32"><title>resource_32x32</title><g><path d="M16,7a3,3,0,0,1,3,3v2a3,3,0,0,1-6,0V10a3,3,0,0,1,3-3m0-1h0a4,4,0,0,0-4,4v2a4,4,0,0,0,4,4h0a4,4,0,0,0,4-4V10a4,4,0,0,0-4-4Z"/><path d="M23.5,26H8.5a.5.5,0,0,1-.5-.5V17.57a.52.52,0,0,1,.14-.35l2.43-2.58.72.69L9,17.76V25H23V17.77l-2.33-2.44.73-.69,2.46,2.58a.5.5,0,0,1,.14.35V25.5A.5.5,0,0,1,23.5,26Z"/><path d="M8.5,9A1.5,1.5,0,0,1,10,10.5v1a1.5,1.5,0,0,1-3,0v-1A1.5,1.5,0,0,1,8.5,9m0-1A2.5,2.5,0,0,0,6,10.5v1a2.5,2.5,0,0,0,5,0v-1A2.5,2.5,0,0,0,8.5,8Z"/><path d="M7,23H4.5a.5.5,0,0,1-.5-.5v-7a.48.48,0,0,1,.15-.36l1.5-1.47.7.71L5,15.67V22H7Z"/><path d="M23.5,9A1.5,1.5,0,0,1,25,10.5v1a1.5,1.5,0,0,1-3,0v-1A1.5,1.5,0,0,1,23.5,9m0-1A2.5,2.5,0,0,0,21,10.5v1a2.5,2.5,0,0,0,5,0v-1A2.5,2.5,0,0,0,23.5,8Z"/><path d="M27.5,23H25V22h2V15.67l-1.35-1.33.7-.71,1.5,1.47a.48.48,0,0,1,.15.36v7A.5.5,0,0,1,27.5,23Z"/></g></svg>
