<svg xmlns="http://www.w3.org/2000/svg" viewBox="0 0 16 16"><title>_</title><g id="Document_CSV"><polyline points="3.5 14 3.5 15.5 15.5 15.5 15.5 3.5 12.5 0.5 3.5 0.5 3.5 7" fill="none" stroke="#4c6472" stroke-linejoin="round"/><polyline points="11.5 0.5 11.5 4.5 15.5 4.5" fill="none" stroke="#4c6472" stroke-linejoin="round"/><path d="M2.29,12.8A2.1,2.1,0,0,1,0,10.47,2.2,2.2,0,0,1,2.36,8a2,2,0,0,1,1.44.5.15.15,0,0,1,0,.23l-.37.48c-.06.08-.13.09-.2,0a1.32,1.32,0,0,0-.9-.35c-.79,0-1.19.69-1.19,1.58s.39,1.45,1.16,1.45a1.49,1.49,0,0,0,1-.36.13.13,0,0,1,.22,0l.39.47a.14.14,0,0,1,0,.22A2.34,2.34,0,0,1,2.29,12.8Z" fill="#4c6472"/><path d="M6.56,12.8A2.8,2.8,0,0,1,5,12.36a.14.14,0,0,1,0-.22l.31-.53c.06-.09.12-.1.2,0a1.93,1.93,0,0,0,1.16.36c.49,0,.77-.15.77-.48s-.29-.48-.76-.59C6,10.72,5,10.54,5,9.46,5,8.54,5.7,8,6.82,8a2.68,2.68,0,0,1,1.4.34.15.15,0,0,1,.06.22L8,9.12c0,.1-.11.11-.2,0a1.85,1.85,0,0,0-1-.28c-.56,0-.75.21-.75.5s.32.44.76.55c.84.2,1.65.41,1.65,1.4S7.71,12.8,6.56,12.8Z" fill="#4c6472"/><path d="M10.88,12.73a.21.21,0,0,1-.22-.14A26.83,26.83,0,0,1,9.25,8.34a.53.53,0,0,1,0-.13.12.12,0,0,1,.13-.12h.76c.11,0,.16,0,.19.16a22.72,22.72,0,0,0,1,3.37,28.17,28.17,0,0,0,1-3.38.17.17,0,0,1,.19-.15h.68a.12.12,0,0,1,.13.12.58.58,0,0,1,0,.13,26.74,26.74,0,0,1-1.41,4.25.21.21,0,0,1-.22.14Z" fill="#4c6472"/></g></svg>