<svg xmlns="http://www.w3.org/2000/svg" viewBox="0 0 16 16"><title>_</title><g id="Document_Word"><polygon points="1.5 15.5 14.5 15.5 14.5 3.5 11.5 0.5 1.5 0.5 1.5 15.5" fill="none" stroke="#4c6472" stroke-linejoin="round"/><polyline points="10.5 0.5 10.5 4.5 14.5 4.5" fill="none" stroke="#4c6472" stroke-linejoin="round"/><path d="M11.58,7.66c.13,0,.16.06.16.14a.64.64,0,0,1,0,.12,29.45,29.45,0,0,1-1.45,4.88A.24.24,0,0,1,10,13H9.29A.23.23,0,0,1,9,12.79,19.54,19.54,0,0,1,8,9.42a19.54,19.54,0,0,1-1,3.37.23.23,0,0,1-.24.16H6a.24.24,0,0,1-.25-.16A29.45,29.45,0,0,1,4.27,7.92a.72.72,0,0,1,0-.12c0-.08,0-.14.16-.14h.87a.18.18,0,0,1,.21.18,28.83,28.83,0,0,0,.93,3.81,23.76,23.76,0,0,0,1-3.81.18.18,0,0,1,.21-.18h.74a.18.18,0,0,1,.21.18,24.81,24.81,0,0,0,1.06,3.81,25.62,25.62,0,0,0,.86-3.81.18.18,0,0,1,.21-.18Z" fill="#4c6472"/></g></svg>