<svg xmlns="http://www.w3.org/2000/svg" viewBox="0 0 16 16"><title>_</title><g id="Document_PDF"><polyline points="3.5 14 3.5 15.5 15.5 15.5 15.5 3.5 12.5 0.5 3.5 0.5 3.5 7" fill="none" stroke="#4c6472" stroke-linejoin="round"/><polyline points="11.5 0.5 11.5 4.5 15.5 4.5" fill="none" stroke="#4c6472" stroke-linejoin="round"/><path d="M.4,12.73a.13.13,0,0,1-.15-.15V8.25A.13.13,0,0,1,.4,8.1H1.74c1.49,0,2,.69,2,1.59s-.57,1.62-2,1.62H1.31v1.27a.13.13,0,0,1-.15.15Zm.91-2.26H1.8c.65,0,.86-.35.86-.78s-.21-.78-.86-.78H1.31Z" fill="#4c6472"/><path d="M5.05,12.73a.13.13,0,0,1-.15-.15V8.25a.13.13,0,0,1,.15-.15H6.68a2.11,2.11,0,0,1,2.26,2.32,2.13,2.13,0,0,1-2.26,2.32ZM6,8.91v3h.64c.91,0,1.22-.71,1.22-1.51S7.52,8.91,6.61,8.91Z" fill="#4c6472"/><path d="M10.3,12.73a.13.13,0,0,1-.15-.15V8.25a.13.13,0,0,1,.15-.15H13a.13.13,0,0,1,.15.15v.52a.13.13,0,0,1-.15.15H11.21v1.16h1.5a.13.13,0,0,1,.15.15v.52a.13.13,0,0,1-.15.15h-1.5v1.67a.13.13,0,0,1-.15.15Z" fill="#4c6472"/></g></svg>