<svg id="Layer_1" data-name="Layer 1" xmlns="http://www.w3.org/2000/svg" viewBox="0 0 19 16"><title>_</title><path d="M0,6.07A1.06,1.06,0,0,1,0,5.9c0-.09.05-.14.18-.14h1c.14,0,.2.05.23.2a15.54,15.54,0,0,0,.88,3,16.55,16.55,0,0,0,.88-3c0-.14.09-.2.23-.2h.77c.12,0,.18.05.18.14a1.06,1.06,0,0,1,0,.17A17.43,17.43,0,0,1,3.33,9a8,8,0,0,1-1.9,2.94.24.24,0,0,1-.15.06.2.2,0,0,1-.14-.06l-.47-.44a.19.19,0,0,1-.07-.13.2.2,0,0,1,.07-.14,5.24,5.24,0,0,0,.85-1.05A16.79,16.79,0,0,1,0,6.07Z" fill="#4c6472"/><polyline points="9 7.5 10.5 7.5 11.5 11.5 14 3.5 19 3.5" fill="none" stroke="#4c6472" stroke-linejoin="round"/><line x1="14.5" y1="6.5" x2="18.5" y2="10.5" fill="none" stroke="#4c6472" stroke-linejoin="round"/><line x1="18.5" y1="6.5" x2="14.5" y2="10.5" fill="none" stroke="#4c6472" stroke-linejoin="round"/><line x1="5" y1="7.5" x2="8" y2="7.5" fill="none" stroke="#4c6472" stroke-linejoin="round"/><line x1="5" y1="9.5" x2="8" y2="9.5" fill="none" stroke="#4c6472" stroke-linejoin="round"/></svg>