<svg width="16" height="16" viewBox="0 0 16 16" xmlns="http://www.w3.org/2000/svg">
  <path fill-rule="evenodd" clip-rule="evenodd" d="M5.5.875c-2.75 0-5 2.25-5 5s2.25 5 5 5 5-2.25 5-5-2.25-5-5-5zm0 5.063V3.375h-.625V6.5c0 .125.062.188.125.25.031 0 .062.016.094.031.03.016.062.032.093.032.063 0 .125 0 .125-.063L7.5 5.5l-.313-.562-1.687 1zm-4.375-.063A4.348 4.348 0 0 0 5.5 10.25a4.348 4.348 0 0 0 4.375-4.375A4.348 4.348 0 0 0 5.5 1.5a4.348 4.348 0 0 0-4.375 4.375zm14.535 8.939L11.976 8.27a.5.5 0 0 0-.477-.292.5.5 0 0 0-.477.292L7.34 14.814a.574.574 0 0 0 0 .583.532.532 0 0 0 .477.265h7.366c.212 0 .37-.106.476-.265a.574.574 0 0 0 0-.583zm-3.392-3.868c-.026-.027-.053-.053-.106-.053h-1.325a.2.2 0 0 0-.105.053c-.027.026-.027.053-.027.08l.212 2.119c0 .08.053.132.133.132h.874c.053 0 .132-.053.132-.132l.212-2.12c.027-.026.027-.053 0-.08zm-1.165 2.596h.795c.079 0 .132.053.132.133v.794c0 .08-.053.133-.132.133h-.795c-.08 0-.133-.053-.133-.133v-.794c0-.08.053-.133.133-.133zm.132.795h.53v-.53h-.53v.53zm-.053-1.325h.636l.212-1.854h-1.06l.212 1.854zm3.974 2.385a.326.326 0 0 0 .265-.133.452.452 0 0 0 .027-.318l-3.683-6.544a.291.291 0 0 0-.265-.159.291.291 0 0 0-.265.16l-3.683 6.543a.338.338 0 0 0 0 .318c.053.08.16.133.265.133h7.34z"/>
  <path d="M15.66 14.814l-.218.123.217-.123zM11.976 8.27l-.23.098.005.013.007.011.218-.122zm3.682 7.127l.208.138.005-.007.005-.007-.218-.124zm-8.319 0l.217-.124-.217.124zm0-.583l.217.124.001-.002-.218-.122zm3.683-6.544l.218.122.006-.011.006-.013-.23-.098zm4.398 6.994l.208.139.009-.013.007-.014-.224-.112zm.027-.318l.237-.079-.008-.023-.011-.02-.218.122zm-3.683-6.544l-.224.112.006.01.218-.122zm-.53 0l.218.123.006-.011-.224-.112zm-3.683 6.544l-.218-.123-.005.011.223.112zm0 .318l-.223.112.007.014.008.013.208-.139zm8.325-.573l-3.682-6.544-.436.245 3.683 6.545.435-.246zm0 .83a.824.824 0 0 0 0-.831l-.434.248a.325.325 0 0 1 0 .335l.434.248zm-.694.39c.309 0 .54-.159.684-.376l-.416-.277c-.067.101-.153.154-.268.154v.5zm-7.366 0h7.366v-.5H7.817v.5zm-.694-.39c.16.278.438.39.694.39v-.5c-.114 0-.207-.046-.26-.138l-.434.248zm0-.831a.824.824 0 0 0 0 .83l.434-.247a.324.324 0 0 1 0-.335l-.434-.248zm3.682-6.543l-3.683 6.544.436.245 3.683-6.544-.436-.245zm.695-.419c-.295 0-.582.15-.707.443l.46.197c.033-.078.117-.14.247-.14v-.5zm.707.443a.752.752 0 0 0-.707-.443v.5c.13 0 .213.062.247.14l.46-.197zm3.006 6.955c.002-.002-.002.004-.016.01a.094.094 0 0 1-.04.01v.5a.576.576 0 0 0 .472-.243l-.416-.277zm-.002-.1a.175.175 0 0 1 .004.055.19.19 0 0 1-.017.071l.447.224a.7.7 0 0 0 .04-.509l-.474.158zm-3.664-6.501l3.683 6.544.436-.245-3.683-6.544-.436.245zm-.047-.032c.012 0 .022.003.028.007.006.003.01.007.013.014l.448-.224a.541.541 0 0 0-.489-.297v.5zm-.041.02a.03.03 0 0 1 .013-.013.058.058 0 0 1 .028-.007v-.5a.541.541 0 0 0-.489.297l.448.224zM7.77 15.07l3.683-6.544-.436-.245-3.683 6.544.436.245zm.006.083c-.018-.035-.018-.058 0-.094l-.447-.223a.587.587 0 0 0 0 .541l.447-.224zm.041-.005a.094.094 0 0 1-.04-.01c-.014-.007-.018-.013-.017-.011l-.416.277a.576.576 0 0 0 .473.244v-.5zm7.34 0h-7.34v.5h7.34v-.5z"/>
</svg>
