<svg width="16" height="16" viewBox="0 0 16 16" xmlns="http://www.w3.org/2000/svg">
  <path fill-rule="evenodd" clip-rule="evenodd" d="M5.5.875c-2.75 0-5 2.25-5 5s2.25 5 5 5 5-2.25 5-5-2.25-5-5-5zm0 5.063V3.375h-.625V6.5c0 .125.062.188.125.25.031 0 .062.016.094.031.03.016.062.032.093.032.063 0 .125 0 .125-.063L7.5 5.5l-.313-.562-1.687 1zm-4.375-.063A4.348 4.348 0 0 0 5.5 10.25a4.348 4.348 0 0 0 4.375-4.375A4.348 4.348 0 0 0 5.5 1.5a4.348 4.348 0 0 0-4.375 4.375z"/>
  <path fill-rule="evenodd" clip-rule="evenodd" d="M15.1 8.1c.05-.05.15-.05.25 0s.15.15.15.25v3.15c0 .1-.05.15-.1.2-.9.6-1.65.8-2.3.8-.7 0-1.3-.25-1.85-.5-.75-.3-1.4-.55-2.25-.1v3.6h-.5v-8H9v.7c.95-.4 1.7-.1 2.45.2.95.4 1.95.8 3.65-.3zm-3.65 3.45c.95.4 1.95.8 3.55-.2v-2.6c-1.7.95-2.8.5-3.75.1-.75-.3-1.4-.55-2.25-.1v2.6c.95-.4 1.7-.1 2.45.2z"/>
</svg>
