<svg viewBox="0 0 32 32" version="1.1" xmlns="http://www.w3.org/2000/svg" xmlns:xlink="http://www.w3.org/1999/xlink">
    <title>applications_32x32</title>
    <g stroke="none" stroke-width="1" fill="none">
        <g transform="translate(-678.000000, -280.000000)" stroke="#2C404C">
            <g transform="translate(100.000000, 164.000000)">
                <g transform="translate(578.000000, 116.000000)">
                    <path d="M16,19.5 L16,19.5 C14.067,19.5 12.5,17.933 12.5,16 C12.5,14.067 14.067,12.5 16,12.5 C17.933,12.5 19.5,14.067 19.5,16 C19.5,17.933 17.933,19.5 16,19.5 Z"></path>
                    <path d="M28,19.5 L28,19.5 C26.067,19.5 24.5,17.933 24.5,16 C24.5,14.067 26.067,12.5 28,12.5 C29.933,12.5 31.5,14.067 31.5,16 C31.5,17.933 29.933,19.5 28,19.5 Z"></path>
                    <path d="M4,19.5 L4,19.5 C2.067,19.5 0.5,17.933 0.5,16 C0.5,14.067 2.067,12.5 4,12.5 C5.933,12.5 7.5,14.067 7.5,16 C7.5,17.933 5.933,19.5 4,19.5 Z"></path>
                    <path d="M16,31.5 L16,31.5 C14.067,31.5 12.5,29.933 12.5,28 C12.5,26.067 14.067,24.5 16,24.5 C17.933,24.5 19.5,26.067 19.5,28 C19.5,29.933 17.933,31.5 16,31.5 Z"></path>
                    <path d="M28,31.5 L28,31.5 C26.067,31.5 24.5,29.933 24.5,28 C24.5,26.067 26.067,24.5 28,24.5 C29.933,24.5 31.5,26.067 31.5,28 C31.5,29.933 29.933,31.5 28,31.5 Z"></path>
                    <path d="M4,31.5 L4,31.5 C2.067,31.5 0.5,29.933 0.5,28 C0.5,26.067 2.067,24.5 4,24.5 C5.933,24.5 7.5,26.067 7.5,28 C7.5,29.933 5.933,31.5 4,31.5 Z"></path>
                    <path d="M7.5,4 C7.5,5.933 5.933,7.5 4,7.5 C2.067,7.5 0.5,5.933 0.5,4 C0.5,2.067 2.067,0.5 4,0.5 C5.933,0.5 7.5,2.067 7.5,4 Z"></path>
                    <path d="M19.5,4 C19.5,5.933 17.933,7.5 16,7.5 C14.067,7.5 12.5,5.933 12.5,4 C12.5,2.067 14.067,0.5 16,0.5 C17.933,0.5 19.5,2.067 19.5,4 Z"></path>
                    <path d="M31.5,4 C31.5,5.933 29.933,7.5 28,7.5 C26.067,7.5 24.5,5.933 24.5,4 C24.5,2.067 26.067,0.5 28,0.5 C29.933,0.5 31.5,2.067 31.5,4 Z"></path>
                </g>
            </g>
        </g>
    </g>
</svg>
