<?xml version="1.0" encoding="UTF-8"?>
<svg width="32px" height="32px" viewBox="0 0 32 32" version="1.1" xmlns="http://www.w3.org/2000/svg" xmlns:xlink="http://www.w3.org/1999/xlink">
    <title>asset_32x32</title>
    <g stroke="none" stroke-width="1" fill="none" fill-rule="evenodd">
        <g fill="#FFFFFF" fill-rule="nonzero">
            <g>
                <path d="M25.3221462,6.29985226 L19.9517174,4.39225657 C19.9517174,4.39225657 19.7332874,4.39225657 19.7332874,4.13654237 C19.7332874,3.71659094 19.9517174,3.71659094 19.9517174,3.71659094 L30.6742651,0.158164996 C31.1039859,0.0588096361 31.3063174,-0.0806223049 31.4364281,0.0588096361 C31.5665387,0.198241579 31.4364281,0.510016309 31.4364281,0.510016309 L28.1385228,11.3695556 C28.1385228,11.3695556 28.1391192,11.7399113 27.6517537,11.7399113 C27.1643883,11.7399113 27.1708658,11.3695556 27.1708658,11.3695556 L25.3221462,6.29985226 Z M31.231889,12.5738552 L31.231889,31.3128892 L4.31746016,31.3128892 C2.72411392,31.3635723 0.927854587,29.7859696 0.678135106,28.1909775 C0.590610468,27.3273796 0.455676652,25.6273296 1.03227233,24.9850888 C1.97642901,23.9470005 3.24606698,23.9524963 4.1064848,23.9470005 L4.62176583,23.9470005 C5.45403351,23.9470005 5.87717091,24.1689441 5.87717091,23.2600581 L5.87717091,6.04763973 L17.6691869,6.04763973 L17.6691869,5.36069733 L5.87717091,5.36069733 L5.87717091,0.499382183 C5.87717091,0.108775586 5.6321621,0.0939155112 5.18547742,0.0939155112 L4.1064848,0.0939155112 C1.60966669,0.0939155112 0,1.70265806 0,4.23200599 C0,18.509976 0,26.5344194 0,28.3053361 C0,29.3051849 0.818654631,30.3641413 1.42710895,30.9365423 C2.43518191,31.884883 3.53687803,32.000578 4.31746016,31.9999978 L31.231889,31.9999978 C32.0641868,31.9999978 31.9987941,31.5966845 31.9987941,30.7535431 L31.9100241,12.5738552 L31.231889,12.5738552 Z M3.81100109,0.810132526 L5.43616149,0.810132526 L5.43616149,23.3319724 L3.81100109,23.3319724 C2.60613969,23.3427829 1.44824542,23.7652929 0.560680333,24.5181234 L0.560680333,3.81304651 C0.560680333,2.15458216 2.01589769,0.810132526 3.81100109,0.810132526 Z M30.7886634,0.810132526 L27.5930954,10.688462 L26.0998393,6.43341296 C25.9633557,6.03558841 25.6561929,5.72078996 25.2636159,5.57638893 L21.0377011,4.07283802 L30.7886634,0.810132526 Z M22.3673778,26.4937893 L22.3673778,25.8516964 L25.3813116,25.8516964 L25.3813116,19.0850347 L20.8604109,19.0850347 C20.0281131,19.0850347 20.1822758,18.4216548 20.1822758,17.6032838 L20.1822758,13.1580311 L11.8186095,13.1580311 L11.8186095,18.0231128 L16.3395102,18.0231128 L16.3395102,18.6652057 L11.8186095,18.6652057 L11.8186095,25.8516964 L15.2469592,25.8516964 L15.2469592,22.0485366 L15.9250943,22.0485366 L15.9250943,25.8516964 L19.353444,25.8516964 L19.353444,26.4937893 L11.8186095,26.4937893 C10.9863418,26.4937893 11.1404744,25.8304094 11.1404744,25.0120384 L11.1404744,13.1580311 C11.1404744,12.92047 11.3808511,12.515953 11.8186095,12.515953 L19.353444,12.515953 C20.1857418,12.515953 20.8604109,12.3397045 20.8604109,13.1580311 L20.8604109,18.4429418 L25.3813116,18.4429418 C25.7007077,18.4429418 26.0594467,18.6652057 26.0594467,19.0850347 L26.0594467,25.0120384 C26.0594467,25.8304094 26.2136094,26.4937893 25.3813116,26.4937893 L22.3673778,26.4937893 Z" id="Shape"></path>
            </g>
        </g>
    </g>
</svg>
