<?xml version="1.0" encoding="UTF-8"?>
<svg width="32px" height="32px" viewBox="0 0 32 32" version="1.1" xmlns="http://www.w3.org/2000/svg" xmlns:xlink="http://www.w3.org/1999/xlink">
    <title>asset_32x32</title>
    <g stroke="none" stroke-width="1" fill="none" fill-rule="evenodd">
        <g transform="translate(-706.000000, -576.000000)" fill="#FFFFFF">
            <g transform="translate(706.000000, 576.000000)">
                <path d="M24.3231277,7.54726697 L19.5699242,5.85120007 C19.1060116,5.65768761 18.8095579,5.19840439 18.8240369,4.69612003 C18.8309108,4.18070577 19.1665601,3.72738802 19.6576757,3.57028252 L30.4072282,0.0611785835 C30.8391116,-0.0822443428 31.3148707,0.0310149109 31.6357485,0.353603911 C31.9630614,0.677567311 32.0816721,1.15733492 31.9428786,1.59641155 L28.3596944,12.3430424 C28.202473,12.8339806 27.7490905,13.1695679 27.2335508,13.1764706 C26.7203511,13.1800952 26.2617035,12.8567605 26.0927819,12.3722849 L24.3231277,7.54726697 Z M30.5454545,13.0904615 L30.5454545,30.5444295 L4.56727273,30.5444295 C3.02935273,30.5927188 1.69557818,29.489628 1.45454545,27.9699692 C1.37006545,27.1471601 1.63982545,26.3274054 2.19636364,25.7154983 C2.74448,25.091519 3.53314909,24.7316763 4.36363636,24.7264402 L5.81818182,24.7264402 C6.62149818,24.7264402 7.27272727,24.0752617 7.27272727,23.2719428 L7.27272727,7.27248668 L17.4545455,7.27248668 L17.4545455,5.81798934 L7.27272727,5.81798934 L7.27272727,1.45449734 C7.27272727,0.651207547 6.62149818,-1.38777878e-17 5.81818182,-1.38777878e-17 L4.36363636,-1.38777878e-17 C1.95367273,-1.38777878e-17 0,1.9536081 0,4.36349201 L0,27.6354348 L0,28.086329 C0.303316364,30.3636355 2.27037091,32.0486706 4.56727273,31.9989268 L30.5454545,31.9989268 C31.3488,31.9989268 32,31.3477484 32,30.5444295 L32,13.0904615 L30.5454545,13.0904615 Z M4.07843137,1.88235294 L5.64705882,1.88235294 L5.64705882,23.3404605 L4.07843137,23.3404605 C2.91548235,23.3507604 1.79786667,23.7533147 0.941176471,24.4705882 L0.941176471,4.74343585 C0.941176471,3.16330268 2.34577255,1.88235294 4.07843137,1.88235294 Z M30.1176471,1.88235294 L27.0332402,11.2941176 L25.5919287,7.24003939 C25.4601928,6.86100457 25.163715,6.5610744 24.7847942,6.4234936 L20.7058824,4.99095711 L30.1176471,1.88235294 Z M21.9893048,26.3529412 L21.9893048,24.9411751 L24.8983957,24.9411751 L24.8983957,19.2941106 L20.5347594,19.2941106 C19.7314139,19.2941106 19.0802139,18.6620629 19.0802139,17.8823445 L19.0802139,13.6470461 L11.8074866,13.6470461 L11.8074866,17.8823445 L16.171123,17.8823445 L16.171123,19.2941106 L11.8074866,19.2941106 L11.8074866,24.9411751 L14.7165775,24.9411751 L14.7165775,22.1176428 L16.171123,22.1176428 L16.171123,24.9411751 L19.0802139,24.9411751 L19.0802139,26.3529412 L11.8074866,26.3529412 C11.0041703,26.3529412 10.3529412,25.7208935 10.3529412,24.9411751 L10.3529412,13.6470461 C10.3529412,12.86737 11.0041703,12.2352941 11.8074866,12.2352941 L19.0802139,12.2352941 C19.8835594,12.2352941 20.5347594,12.86737 20.5347594,13.6470461 L20.5347594,17.8823445 L24.8983957,17.8823445 C25.7017412,17.8823445 26.3529412,18.5143922 26.3529412,19.2941106 L26.3529412,24.9411751 C26.3529412,25.7208935 25.7017412,26.3529412 24.8983957,26.3529412 L21.9893048,26.3529412 Z"></path>
            </g>
        </g>
    </g>
</svg>
