<?xml version="1.0" encoding="UTF-8"?>
<svg width="32px" height="32px" viewBox="0 0 32 32" version="1.1" xmlns="http://www.w3.org/2000/svg" xmlns:xlink="http://www.w3.org/1999/xlink">
    <title>asset_32x32</title>
    <g stroke="none" stroke-width="1" fill="none" fill-rule="evenodd">
        <g fill-rule="nonzero">
            <rect opacity="0" x="0" y="0" width="32" height="32"></rect>
            <g transform="translate(2.000000, 2.000000)" fill="#FFFFFF">
                <path d="M22.156878,5.51237072 L17.4577527,3.8432245 C17.4577527,3.8432245 17.2666265,3.8432245 17.2666265,3.61947458 C17.2666265,3.25201707 17.4577527,3.25201707 17.4577527,3.25201707 L26.839982,0.138394372 C27.2159877,0.0514584316 27.3930277,-0.0705445168 27.5068746,0.0514584316 C27.6207214,0.173461382 27.5068746,0.44626427 27.5068746,0.44626427 L24.6212074,9.94836114 C24.6212074,9.94836114 24.6217293,10.2724224 24.1952845,10.2724224 C23.7688398,10.2724224 23.7745076,9.94836114 23.7745076,9.94836114 L22.156878,5.51237072 Z M27.3279029,11.0021233 L27.3279029,27.398778 L3.77777764,27.398778 C2.38359968,27.4431258 0.811872764,26.0627234 0.593368218,24.6671053 C0.51678416,23.9114572 0.398717071,22.4239134 0.903238284,21.8619527 C1.72937538,20.9536255 2.84030861,20.9584343 3.5931742,20.9536255 L4.0440451,20.9536255 C4.77227932,20.9536255 5.14252455,21.1478261 5.14252455,20.3525508 L5.14252455,5.29168476 L15.4605385,5.29168476 L15.4605385,4.69061017 L5.14252455,4.69061017 L5.14252455,0.43695941 C5.14252455,0.0951786377 4.92814184,0.0821760723 4.53729274,0.0821760723 L3.5931742,0.0821760723 C1.40845836,0.0821760723 0,1.4898258 0,3.70300524 C0,16.196229 0,23.2176169 0,24.7671691 C0,25.6420368 0.716322802,26.5686236 1.24872033,27.0694746 C2.13078417,27.8992727 3.09476828,28.0005057 3.77777764,27.9999981 L27.3279029,27.9999981 C28.0561634,27.9999981 27.9989448,27.6470989 27.9989448,26.9093502 L27.9212711,11.0021233 L27.3279029,11.0021233 Z M3.33462596,0.70886596 L4.7566413,0.70886596 L4.7566413,20.4154758 L3.33462596,20.4154758 C2.28037223,20.424935 1.26721475,20.7946313 0.490595291,21.453358 L0.490595291,3.33641569 C0.490595291,1.88525939 1.76391048,0.70886596 3.33462596,0.70886596 Z M26.9400805,0.70886596 L24.1439584,9.35240429 L22.8373594,5.62923634 C22.7179362,5.28113986 22.4491688,5.00569122 22.1056639,4.87934032 L18.4079885,3.56373327 L26.9400805,0.70886596 Z M19.5714556,23.1820656 L19.5714556,22.6202343 L22.2086476,22.6202343 L22.2086476,16.6994054 L18.2528595,16.6994054 C17.524599,16.6994054 17.6594913,16.118948 17.6594913,15.4028734 L17.6594913,11.5132772 L10.3412833,11.5132772 L10.3412833,15.7702237 L14.2970714,15.7702237 L14.2970714,16.332055 L10.3412833,16.332055 L10.3412833,22.6202343 L13.3410893,22.6202343 L13.3410893,19.2924695 L13.9344575,19.2924695 L13.9344575,22.6202343 L16.9342635,22.6202343 L16.9342635,23.1820656 L10.3412833,23.1820656 C9.61304912,23.1820656 9.74791509,22.6016082 9.74791509,21.8855336 L9.74791509,11.5132772 C9.74791509,11.3054112 9.95824472,10.9514589 10.3412833,10.9514589 L16.9342635,10.9514589 C17.6625241,10.9514589 18.2528595,10.7972415 18.2528595,11.5132772 L18.2528595,16.1375741 L22.2086476,16.1375741 C22.4881192,16.1375741 22.8020159,16.332055 22.8020159,16.6994054 L22.8020159,21.8855336 C22.8020159,22.6016082 22.9369082,23.1820656 22.2086476,23.1820656 L19.5714556,23.1820656 Z"></path>
            </g>
        </g>
    </g>
</svg>
