<svg id="Layer_1" data-name="Layer 1" xmlns="http://www.w3.org/2000/svg" viewBox="0 0 32 32">
<title>crew_32x32</title>
<path fill="none" stroke="#4C6472" stroke-miterlimit="10" d="M16,14.4L16,14.4c-2.5,0-4.5-2-4.5-4.5V7.2c0-2.5,2-4.5,4.5-4.5h0
	c2.5,0,4.5,2,4.5,4.5v2.7C20.5,12.4,18.5,14.4,16,14.4z"/>
<polyline fill="none" stroke="#4C6472" stroke-linejoin="round" stroke-miterlimit="10" points="21.2,15.1 25.5,18.3 25.5,29.5
	6.5,29.5 6.5,18.3 10.7,15.1 "/>
<path fill="none" stroke="#4C6472" stroke-miterlimit="10" d="M25.5,13.5L25.5,13.5c-1.7,0-3-1.3-3-3v-2c0-1.7,1.3-3,3-3h0
	c1.7,0,3,1.3,3,3v2C28.5,12.2,27.2,13.5,25.5,13.5z"/>
<path fill="none" stroke="#4C6472" stroke-miterlimit="10" d="M6.5,13.5L6.5,13.5c-1.7,0-3-1.3-3-3v-2c0-1.7,1.3-3,3-3h0
	c1.7,0,3,1.3,3,3v2C9.5,12.2,8.2,13.5,6.5,13.5z"/>
<polyline fill="none" stroke="#4C6472" stroke-linejoin="round" stroke-miterlimit="10" points="28,26.5 31.5,26.5 31.5,16
	29.4,14.4 "/>
<polyline fill="none" stroke="#4C6472" stroke-linejoin="round" stroke-miterlimit="10" points="4,26.5 0.5,26.5 0.5,16 2.6,14.4
	"/></svg>
