<svg width="32" height="32" viewBox="0 0 32 32" fill="none" xmlns="http://www.w3.org/2000/svg">
<rect x="0.5" y="0.5" width="31" height="31" rx="15.5" stroke="#747477" stroke-linecap="round"/>
<path d="M24.8842 19.0655L24.9115 19.0772C25.6253 19.3614 26.2982 19.6622 26.7895 20.0205C27.2815 20.3796 27.5003 20.7272 27.5004 21.0938V21.541C27.5004 21.7643 27.2776 22.0174 26.9604 22.0176H18.64C18.3226 22.0176 18.1 21.7644 18.1 21.541V21.0938C18.1001 20.7379 18.3173 20.3903 18.808 20.0264C19.2952 19.6651 19.9586 19.3591 20.6498 19.0752L20.6615 19.0703L20.6723 19.0655C20.6902 19.057 20.708 19.0475 20.726 19.0391C21.348 19.4044 22.041 19.6006 22.7787 19.6006C23.5208 19.6005 24.231 19.3828 24.8285 19.0391C24.8471 19.0478 24.8656 19.0567 24.8842 19.0655ZM22.8002 13.2549C23.9345 13.255 24.8782 14.2113 24.8783 15.4395C24.8783 16.6678 23.9346 17.6239 22.8002 17.6241C21.6657 17.6241 20.7221 16.6679 20.7221 15.4395C20.7222 14.2112 21.6658 13.2549 22.8002 13.2549Z" stroke="#706E6C"/>
<path d="M11.2842 19.0655L11.3115 19.0772C12.0253 19.3614 12.6982 19.6622 13.1895 20.0205C13.6815 20.3796 13.9003 20.7272 13.9004 21.0938V21.541C13.9004 21.7643 13.6776 22.0174 13.3604 22.0176H5.04004C4.72259 22.0176 4.5 21.7644 4.5 21.541V21.0938C4.50006 20.7379 4.71732 20.3903 5.20801 20.0264C5.69515 19.6651 6.35863 19.3591 7.0498 19.0752L7.06152 19.0703L7.07227 19.0655C7.09024 19.057 7.10801 19.0475 7.12598 19.0391C7.74803 19.4044 8.44099 19.6006 9.1787 19.6006C9.9208 19.6005 10.631 19.3828 11.2285 19.0391C11.2471 19.0478 11.2656 19.0567 11.2842 19.0655ZM9.2002 13.2549C10.3345 13.255 11.2782 14.2113 11.2783 15.4395C11.2783 16.6678 10.3346 17.6239 9.2002 17.6241C8.06571 17.6241 7.12207 16.6679 7.12207 15.4395C7.12216 14.2112 8.06577 13.2549 9.2002 13.2549Z" stroke="#706E6C"/>
<path d="M13.3517 17.8584C14.2418 18.402 15.238 18.6924 16.301 18.6924C17.3683 18.6924 18.3923 18.3695 19.2443 17.8604L19.2453 17.8613C19.2524 17.8573 19.2566 17.8559 19.258 17.8555C19.2581 17.8555 19.2598 17.8554 19.2609 17.8555C19.2621 17.8556 19.2643 17.856 19.2668 17.8564C19.2703 17.8571 19.2751 17.8584 19.2814 17.8604C19.3051 17.8714 19.3291 17.8825 19.3527 17.8936C19.384 17.9082 19.4152 17.9228 19.4465 17.9375L19.4601 17.9443L19.4738 17.9492C20.5084 18.3612 21.5077 18.8063 22.2443 19.3438C22.9815 19.8817 23.3644 20.4435 23.3644 21.0791V21.7275C23.3643 22.1879 22.9284 22.6414 22.3586 22.6416H10.3068C9.7368 22.6416 9.3001 22.188 9.3 21.7275V21.0791C9.3 20.4587 9.6825 19.8966 10.4162 19.3525C11.1463 18.8111 12.1308 18.3589 13.133 17.9473L13.1437 17.9424L13.1555 17.9375C13.1867 17.9228 13.218 17.9082 13.2492 17.8936C13.2726 17.8826 13.2961 17.8713 13.3195 17.8604C13.3263 17.8582 13.3315 17.8571 13.3351 17.8564C13.3377 17.856 13.3398 17.8556 13.341 17.8555H13.343C13.3436 17.8557 13.347 17.856 13.3517 17.8584ZM16.3322 9.5C18.108 9.5 19.5665 10.9945 19.5666 12.8887C19.5666 14.783 18.1081 16.2783 16.3322 16.2783C14.5564 16.2783 13.0978 14.783 13.0978 12.8887C13.098 10.9945 14.5565 9.50005 16.3322 9.5Z" fill="white" stroke="#706E6C"/>
</svg>
