<svg viewBox="0 0 32 32" version="1.1" xmlns="http://www.w3.org/2000/svg" xmlns:xlink="http://www.w3.org/1999/xlink">
    <title>crew_manager_32x32</title>
    <g stroke="none" stroke-width="1" fill="none">
        <g transform="translate(-460.000000, -279.000000)" stroke="#2C404C">
            <g transform="translate(100.000000, 164.000000)">
                <g transform="translate(360.000000, 115.000000)">
                    <path d="M22.5,7 C22.5,10.59 19.59,13.5 16,13.5 C12.41,13.5 9.5,10.59 9.5,7 C9.5,3.41 12.41,0.5 16,0.5 C19.59,0.5 22.5,3.41 22.5,7 Z"></path>
                    <path d="M23,31.5 L9,31.5 C8.724,31.5 8.5,31.276 8.5,31 L8.5,20.678 C8.5,18.37 10.371,16.5 12.678,16.5 L19.322,16.5 C21.629,16.5 23.5,18.37 23.5,20.678 L23.5,31 C23.5,31.276 23.276,31.5 23,31.5 Z"></path>
                    <path d="M1.5,13.5 C1.5,15.157 2.843,16.5 4.5,16.5 C6.157,16.5 7.5,15.157 7.5,13.5 C7.5,11.843 6.157,10.5 4.5,10.5 C2.843,10.5 1.5,11.843 1.5,13.5 Z"></path>
                    <path d="M6,19.5 L4.161,19.5 C2.139,19.5 0.5,21.139 0.5,23.161 L0.5,31 C0.5,31.276 0.724,31.5 1,31.5 L6,31.5"></path>
                    <path d="M30.5,13.5 C30.5,15.157 29.157,16.5 27.5,16.5 C25.843,16.5 24.5,15.157 24.5,13.5 C24.5,11.843 25.843,10.5 27.5,10.5 C29.157,10.5 30.5,11.843 30.5,13.5 Z"></path>
                    <path d="M26,19.5 L27.839,19.5 C29.861,19.5 31.5,21.139 31.5,23.161 L31.5,31 C31.5,31.276 31.276,31.5 31,31.5 L26,31.5"></path>
                </g>
            </g>
        </g>
    </g>
</svg>
