<svg width="32" height="32" viewBox="0 0 32 32" fill="none" xmlns="http://www.w3.org/2000/svg">
  <rect x="4.625" y="7.625" width="20.75" height="5.75" stroke="black" stroke-width="0.75" stroke-linejoin="round"/>
  <rect x="10.625" y="16.625" width="20.75" height="5.75" stroke="black" stroke-width="0.75" stroke-linejoin="round"/>
  <path d="M2 10.5V10.25C1.86193 10.25 1.75 10.3619 1.75 10.5H2ZM2 20H1.75C1.75 20.1381 1.86193 20.25 2 20.25V20ZM10.6768 20.1768C10.7744 20.0791 10.7744 19.9209 10.6768 19.8232L9.08579 18.2322C8.98816 18.1346 8.82986 18.1346 8.73223 18.2322C8.6346 18.3299 8.6346 18.4882 8.73223 18.5858L10.1464 20L8.73223 21.4142C8.6346 21.5118 8.6346 21.6701 8.73223 21.7678C8.82986 21.8654 8.98816 21.8654 9.08579 21.7678L10.6768 20.1768ZM4.5 10.25H2V10.75H4.5V10.25ZM1.75 10.5V20H2.25V10.5H1.75ZM2 20.25H10.5V19.75H2V20.25Z" fill="black"/>
</svg>
