<svg width="28px" height="24px" viewBox="0 0 32 32" version="1.1" xmlns="http://www.w3.org/2000/svg" xmlns:xlink="http://www.w3.org/1999/xlink">
    <title>dependency</title>
    <defs>
        <path d="M22.5,2 L18.5,2 C18.2,2 18,2.2 18,2.5 L18,17.5 C18,17.8 18.2,18 18.5,18 L22.5,18 C22.8,18 23,17.8 23,17.5 L23,2.5 C23,2.2 22.8,2 22.5,2 Z M22,17 L19,17 L19,3 L22,3 L22,17 Z M13.5,6 L9.5,6 C9.2,6 9,6.2 9,6.5 L9,21.5 C9,21.8 9.2,22 9.5,22 L13.5,22 C13.8,22 14,21.8 14,21.5 L14,6.5 C14,6.2 13.8,6 13.5,6 Z M13,21 L10,21 L10,7 L13,7 L13,21 Z" id="dependency-path-1"></path>
    </defs>
    <g stroke="none" stroke-width="1" fill="none" fill-rule="evenodd">
        <g>
            <g transform="translate(2.000000, 7.000000)" stroke="#4C6472" stroke-linecap="square">
                <line x1="4.5" y1="0.5" x2="1.5" y2="0.5"></line>
                <line x1="0.5" y1="0.5" x2="0.5" y2="9.5"></line>
                <line x1="6.5" y1="9.5" x2="1.5" y2="9.5"></line>
                <line x1="7.5" y1="9.5" x2="5.5" y2="11.5"></line>
                <line x1="6.5" y1="7.5" x2="4.5" y2="9.5" transform="translate(5.500000, 8.500000) scale(1, -1) translate(-4.500000, -8.500000)"></line>
            </g>
            <mask fill="white">
                <use xlink:href="#dependency-path-1"></use>
            </mask>
            <use fill="#4C6472" fill-rule="nonzero" transform="translate(16.000000, 12.000000) rotate(90.000000) translate(-16.000000, -12.000000) " xlink:href="#dependency-path-1"></use>
        </g>
    </g>
</svg>
