<svg width="32" height="32" viewBox="0 0 32 32" fill="none" xmlns="http://www.w3.org/2000/svg">
<rect x="0.5" y="0.5" width="31" height="31" rx="15.5" stroke="#747477" stroke-linecap="round"/>
<path d="M12.5191 8.58635C12.3821 8.61159 12.2519 8.66533 12.137 8.74418C12.0221 8.82303 11.9251 8.92515 11.8522 9.04402L14.4674 11.6593C14.594 11.7813 14.6947 11.9274 14.7634 12.0892C14.8322 12.251 14.8676 12.425 14.8676 12.6007C14.8676 12.7765 14.8322 12.9504 14.7634 13.1122C14.6947 13.274 14.594 13.4202 14.4674 13.5422L13.5782 14.536C13.3338 14.7756 13.0052 14.9098 12.6629 14.9098C12.3206 14.9098 11.992 14.7756 11.7476 14.536L9.13235 11.9208C8.99837 11.9778 8.87855 12.0636 8.78139 12.172C8.68423 12.2805 8.61209 12.4089 8.57007 12.5484C8.3881 13.4609 8.466 14.4061 8.79488 15.2765C9.12377 16.1469 9.69043 16.9075 10.4304 17.4716C11.1703 18.0358 12.0537 18.3808 12.9802 18.4675C13.848 18.5487 14.7208 18.4001 15.5114 18.0382L22.5324 25.0617C23.0505 25.5797 23.893 25.5711 24.4003 25.0426L25.1044 24.3093C25.5954 23.7979 25.5859 22.9824 25.0872 22.4783L18.0659 15.3801C18.383 14.6124 18.5036 13.7761 18.4148 12.9474C18.3165 12.0311 17.9661 11.16 17.4024 10.431C16.8386 9.70188 16.0838 9.14353 15.2216 8.81793C14.3596 8.4922 13.424 8.41205 12.5191 8.58635Z" fill="white" stroke="#706E6C" stroke-linecap="round" stroke-linejoin="round"/>
</svg>
