<?xml version="1.0" encoding="UTF-8"?>
<svg viewBox="0 0 32 32" version="1.1" xmlns="http://www.w3.org/2000/svg" xmlns:xlink="http://www.w3.org/1999/xlink">
    <title>job_32x32</title>
    <g stroke="none" stroke-width="1">
        <path d="M26.6666667,30.6666667 L26.6666667,4 L22.6413333,4 C22.6466667,4.084 22.6666667,4.16266667 22.6666667,4.24666667 L22.6666667,5.33333333 C22.6666667,6.068 22.0693333,6.66666667 21.3333333,6.66666667 L10.6666667,6.66666667 C9.93066667,6.66666667 9.33333333,6.068 9.33333333,5.33333333 L9.33333333,4.24666667 C9.33333333,4.16266667 9.35333333,4.084 9.35866667,4 L5.33333333,4 L5.33333333,30.6666667 L26.6666667,30.6666667 Z M13.58,1.33333333 C11.9733333,1.33333333 10.6666667,2.64 10.6666667,4.24666667 L10.6666667,5.33333333 L21.3333333,5.33333333 L21.3333333,6 L21.3346667,5.33333333 L21.3333333,5.33333333 L21.3333333,4.24666667 C21.3333333,2.64 20.0266667,1.33333333 18.42,1.33333333 L13.58,1.33333333 Z M26.6666667,2.66666667 C27.4026667,2.66666667 28,3.26533333 28,4 L28,30.6666667 C28,31.4026667 27.4026667,32 26.6666667,32 L5.33333333,32 C4.59733333,32 4,31.4026667 4,30.6666667 L4,4 C4,3.26533333 4.59733333,2.66666667 5.33333333,2.66666667 L9.64533333,2.66666667 C10.2733333,1.10666667 11.7973333,0 13.58,0 L18.42,0 C20.2026667,0 21.7266667,1.10666667 22.3546667,2.66666667 L26.6666667,2.66666667 Z M18,17 L18,16 L23,16 L23,17 L18,17 Z M8,17 L8,16 L17,16 L17,17 L8,17 Z M13,13 L13,12 L24,12 L24,13 L13,13 Z M8,13 L8,12 L12,12 L12,13 L8,13 Z M8,21 L8,20 L16,20 L16,21 L8,21 Z" fill="#2C404C" fill-rule="nonzero"></path>
    </g>
</svg>
