<?xml version="1.0" encoding="UTF-8"?>
<svg viewBox="0 0 32 32" version="1.1" xmlns="http://www.w3.org/2000/svg" xmlns:xlink="http://www.w3.org/1999/xlink">
    <title>job_32x32</title>
    <g stroke="none" stroke-width="1" fill="none" fill-rule="evenodd">
        <path d="M21.5,2.5 L27,2.5 C27.5522847,2.5 28,2.94771525 28,3.5 L28,30.5 C28,31.0522847 27.5522847,31.5 27,31.5 L5,31.5 C4.44771525,31.5 4,31.0522847 4,30.5 L4,3.5 C4,2.94771525 4.44771525,2.5 5,2.5 L5,2.5 L10.6013167,2.5" stroke="#006AC6"></path>
        <path d="M13,0.5 C11.6192881,0.5 10.5,1.61928813 10.5,3 L10.5,5 C10.5,5.27614237 10.7238576,5.5 11,5.5 L21,5.5 C21.2761424,5.5 21.5,5.27614237 21.5,5 L21.5,3 C21.5,1.61928813 20.3807119,0.5 19,0.5 L13,0.5 Z" stroke="#006AC6"></path>
        <path d="M8.5,11.5 L11.5,11.5" stroke="#006AC6" stroke-linecap="square"></path>
        <path d="M19.5,15.5 L23.5,15.5" stroke="#006AC6" stroke-linecap="square"></path>
        <path d="M8.5,15.5 L16.5,15.5" stroke="#006AC6" stroke-linecap="square"></path>
        <path d="M8.5,19.5 L15.5,19.5" stroke="#006AC6" stroke-linecap="square"></path>
        <path d="M13.5,11.5 L23.5,11.5" stroke="#006AC6" stroke-linecap="square"></path>
    </g>
</svg>
