<?xml version="1.0" encoding="UTF-8"?>
<svg viewBox="0 0 32 32" version="1.1" xmlns="http://www.w3.org/2000/svg" xmlns:xlink="http://www.w3.org/1999/xlink">
    <title>jobs_32x32</title>
    <g stroke="none" stroke-width="1">
        <path d="M20.7422865,31 C20.1663274,31.004547 19.6509358,30.6430801 19.4590783,30.0999861 L14.7771801,17.2239248 L1.90052425,12.5411241 C1.35214617,12.3419471 0.990560817,11.8167445 1,11.2333853 C1.00981448,10.6500262 1.38853243,10.1370408 1.94318392,9.95606711 L29.2077689,1.06711367 C29.697403,0.907922762 30.2349488,1.03692775 30.5990108,1.4009962 C30.9630729,1.76506464 31.0920756,2.30261985 30.9328875,2.7922625 L22.04409,30.0573257 C21.8673329,30.614621 21.352206,30.9950138 20.7675815,31 L20.7422865,31 Z M20.8712136,29.9917178 L20.8754263,30 L30,2 L2,11.125903 L15.2234704,15.9321278 C15.6145308,16.0736203 15.9224949,16.3814871 16.0640321,16.772424 L20.8712136,29.9917178 Z"></path>
    </g>
</svg>
