<svg viewBox="0 0 33 32" version="1.1" xmlns="http://www.w3.org/2000/svg" xmlns:xlink="http://www.w3.org/1999/xlink">
    <title>maps_32x32</title>
    <g stroke="none" stroke-width="1" fill="none">
        <g transform="translate(-348.000000, -281.000000)" stroke="#2C404C">
            <g transform="translate(100.000000, 164.000000)">
                <g transform="translate(248.000000, 117.000000)">
                    <path d="M9.8384,17.8888 L5.2374,9.4398 C3.9684,7.1108 4.3854,4.2238 6.2614,2.3478 L6.2634,2.3458 C8.6004,0.0088 12.3884,0.0088 14.7244,2.3458 C16.6014,4.2218 17.0174,7.1108 15.7464,9.4408 L11.1384,17.8888 C10.8574,18.4038 10.1184,18.4038 9.8384,17.8888 Z"></path>
                    <path d="M12.5,6.4953 C12.5,7.5993 11.604,8.4953 10.5,8.4953 C9.396,8.4953 8.5,7.5993 8.5,6.4953 C8.5,5.3913 9.396,4.4953 10.5,4.4953 C11.604,4.4953 12.5,5.3913 12.5,6.4953 Z"></path>
                    <path d="M10.5,30.9953 L10.5,20.9543"></path>
                    <path d="M20.5,0.9953 L20.5,25.5713"></path>
                    <path d="M17.6543,2.1496 L20.2513,0.5716 C20.4043,0.4796 20.5923,0.4756 20.7483,0.5606 L31.2393,6.3526 C31.4003,6.4406 31.5003,6.6096 31.5003,6.7926 L31.5003,31.0326 C31.5003,31.4126 31.0933,31.6536 30.7603,31.4716 L20.7513,25.6316 C20.5953,25.5466 20.4063,25.5506 20.2543,25.6426 L10.7573,31.4616 C10.5993,31.5566 10.4013,31.5566 10.2423,31.4616 L0.7423,25.6406 C0.5923,25.5506 0.5003,25.3876 0.5003,25.2116 L0.5003,1.0016 C0.5003,0.6126 0.9243,0.3726 1.2573,0.5726 L3.4413,1.9716"></path>
                </g>
            </g>
        </g>
    </g>
</svg>
