<svg width="16" height="16" viewBox="0 0 16 16" fill="none" xmlns="http://www.w3.org/2000/svg">
<g clip-path="url(#clip0_276_101538)">
<g clip-path="url(#clip1_276_101538)">
<path d="M16 10.8982C15.3961 11.9788 14.5499 12.9047 13.5279 13.6032C12.5059 14.3017 11.3359 14.7538 10.1097 14.924C8.88353 15.0941 7.63461 14.9777 6.46101 14.5839C5.28741 14.1901 4.22107 13.5296 3.34573 12.6543C2.47039 11.7789 1.80989 10.7126 1.41607 9.53899C1.02226 8.36539 0.905863 7.11647 1.07602 5.89031C1.24618 4.66414 1.69827 3.49411 2.39678 2.4721C3.09529 1.45008 4.0212 0.603901 5.10182 0C3.39472 3.04937 3.83361 6.97926 6.42672 9.57236C9.02074 12.1664 12.9497 12.6062 16 10.8982Z" fill="white"/>
</g>
</g>
<defs>
<clipPath id="clip0_276_101538">
<rect width="16" height="16" fill="white"/>
</clipPath>
<clipPath id="clip1_276_101538">
<rect width="16" height="16" fill="white"/>
</clipPath>
</defs>
</svg>
