<svg xmlns="http://www.w3.org/2000/svg" width="32" height="32" viewBox="0 0 32 32" fill="none">
  <g transform="scale(1.3333)">
    <path d="M22.0782 5.58753C22.079 5.87826 22.0223 6.16629 21.9113 6.435C21.8003 6.7037 21.6371 6.94778 21.4313 7.15315L17.0438 11.5407L8.11885 20.4375L2.8501 21.1313L3.5626 15.8813L12.4782 6.95628L16.8657 2.56878C17.282 2.15543 17.8448 1.92346 18.4313 1.92346C19.0179 1.92346 19.5807 2.15543 19.997 2.56878L21.4501 4.0219C21.6529 4.2285 21.8129 4.47321 21.9207 4.74192C22.0285 5.01063 22.082 5.29802 22.0782 5.58753Z" stroke="black" stroke-miterlimit="10"/>
    <path d="M14.7563 4.66876L19.3313 9.24376" stroke="black" stroke-miterlimit="10"/>
    <path d="M8.12812 20.4375L2.85938 21.1312L3.5625 15.8812C4.66168 16.1625 5.66522 16.7336 6.46832 17.5351C7.27142 18.3365 7.84464 19.3389 8.12812 20.4375Z" stroke="black" stroke-miterlimit="10"/>
    <path d="M17.0438 6.95624L6.46875 17.5312" stroke="black" stroke-miterlimit="10"/>
    <path d="M14.597 9.40314L13.3032 10.6969" stroke="black" stroke-miterlimit="10"/>
    <path d="M2.39551 7.87579L7.89105 2.38025L12.4718 6.96097L6.97623 12.4565L2.39551 7.87579Z" stroke="black" stroke-miterlimit="10"/>
    <path d="M11.5454 17.0285L17.041 11.533L21.6217 16.1137L16.1261 21.6092L11.5454 17.0285Z" stroke="black" stroke-miterlimit="10"/>
    <path d="M4.67822 10.1625L6.51572 8.33435" stroke="black" stroke-miterlimit="10"/>
    <path d="M13.8374 19.3219L15.6655 17.4844" stroke="black" stroke-miterlimit="10"/>
  </g>
</svg>