<svg viewBox="0 0 32 32" version="1.1" xmlns="http://www.w3.org/2000/svg" xmlns:xlink="http://www.w3.org/1999/xlink">
    <title>project_32x32</title>
    <g stroke="none" stroke-width="1" fill="none">
        <g transform="translate(-131.000000, -281.000000)" stroke="#2C404C">
            <g transform="translate(100.000000, 164.000000)">
                <g transform="translate(31.000000, 117.000000)">
                    <path d="M5,17.5 L17,17.5"></path>
                    <path d="M12,21.5 L27,21.5"></path>
                    <path d="M12,25.5 L20,25.5"></path>
                    <g>
                        <path d="M31,31.5 L1,31.5 C0.724,31.5 0.5,31.276 0.5,31 L0.5,8 C0.5,7.724 0.724,7.5 1,7.5 L10.293,7.5 C10.425,7.5 10.553,7.553 10.646,7.646 L14.354,11.354 C14.447,11.447 14.575,11.5 14.707,11.5 L31,11.5 C31.276,11.5 31.5,11.724 31.5,12 L31.5,31 C31.5,31.276 31.276,31.5 31,31.5 Z"></path>
                        <path d="M0.5,5 L0.5,1 C0.5,0.724 0.724,0.5 1,0.5 L12.855,0.5 C12.979,0.5 13.099,0.546 13.19,0.629 L17.333,4.371 C17.425,4.454 17.545,4.5 17.668,4.5 L31,4.5 C31.276,4.5 31.5,4.724 31.5,5 L31.5,9"></path>
                    </g>
                </g>
            </g>
        </g>
    </g>
</svg>
