<?xml version="1.0" encoding="UTF-8"?>
<svg width="32px" height="32px" viewBox="0 0 32 32" version="1.1" xmlns="http://www.w3.org/2000/svg" xmlns:xlink="http://www.w3.org/1999/xlink">
    <title>resource_home_32x32</title>
    <defs>
        <path d="M0.746666667,20.0233333 L5.48904762,15.642381 L6.23380952,16.4419048 L1.66666667,20.6695238 L1.66666667,25.9047619 L14.7,25.9047619 L14.7,27 L1.11904762,27 C0.812380952,27 0.571428571,26.7590476 0.571428571,26.452381 L0.571428571,20.4285714 C0.571428571,20.2752381 0.637142857,20.1328571 0.746666667,20.0233333 Z M17,11.6666667 L17,9.47619048 C17,6.45333333 14.5466667,4 11.5238095,4 C8.50095238,4 6.04761905,6.45333333 6.04761905,9.47619048 L6.04761905,11.6666667 C6.04761905,14.6895238 8.50095238,17.1428571 11.5238095,17.1428571 C14.5466667,17.1428571 17,14.6895238 17,11.6666667 Z M15.9047619,11.6666667 C15.9047619,14.0871429 13.9442857,16.047619 11.5238095,16.047619 C9.10333333,16.047619 7.14285714,14.0871429 7.14285714,11.6666667 L7.14285714,9.47619048 C7.14285714,7.05571429 9.10333333,5.0952381 11.5238095,5.0952381 C13.9442857,5.0952381 15.9047619,7.05571429 15.9047619,9.47619048 L15.9047619,11.6666667 Z" id="path-1"></path>
        <path d="M16.7940976,21 L16.7940976,29.1682991 L20.0000521,29.1686318 C20.0000174,29.166927 20,29.1652184 20,29.1635062 L20,24.2777778 C20,24.1243653 20.139911,24 20.3125,24 L24.6875,24 C24.860089,24 25,24.1243653 25,24.2777778 L25,29.168 L28.2493833,29.1682991 L28.2493833,21 L29,21 L29,29.7 C29,29.8656854 28.8677205,30 28.7045455,30 L28.7045455,30 L16.2954545,30 C16.1322795,30 16,29.8656854 16,29.7 L16,29.7 L16,21 L16.7940976,21 Z M24.2331961,24.7513227 L20.7594119,24.7513227 L20.7594119,29 L24.2331961,29 L24.2331961,24.7513227 Z M22.3078708,13.073882 C22.4169669,12.9753727 22.5830331,12.9753727 22.6921292,13.073882 L22.6921292,13.073882 L31,20.5755541 L30.1866909,21 L22.5,14.123955 L14.7,21.1948146 L14,20.5755541 Z" id="path-3"></path>
    </defs>
    <g id="RRDefaultHome" stroke="none" stroke-width="1" fill="none" fill-rule="evenodd">
        <g id="Users">
            <rect id="Container" x="0" y="0" width="46" height="42"></rect>
            <mask id="mask-2" fill="white">
                <use xlink:href="#path-1"></use>
            </mask>
            <use id="Mask" fill="#4C6472" fill-rule="nonzero" xlink:href="#path-1"></use>
            <g id="Group" mask="url(#mask-2)" fill="#2C404C">
                <g id="🎨Color">
                    <rect id="Rectangle-Copy" x="0" y="0" width="46" height="42"></rect>
                </g>
            </g>
        </g>
        <mask id="mask-4" fill="white">
            <use xlink:href="#path-3"></use>
        </mask>
        <use id="Mask" fill="#4C6472" fill-rule="nonzero" xlink:href="#path-3"></use>
    </g>
</svg>
