<svg width="32" height="32" viewBox="0 0 32 32" fill="none" xmlns="http://www.w3.org/2000/svg">
<rect x="0.5" y="0.5" width="31" height="31" rx="15.5" stroke="#747477" stroke-linecap="round"/>
<path d="M19.654 18.2106C19.666 18.21 19.6885 18.2124 19.7262 18.2262L19.9489 18.3375L19.9635 18.3434C21.2562 18.8918 22.5165 19.4884 23.4508 20.2145C24.3822 20.9383 24.9157 21.7316 24.9157 22.6696V23.5319C24.9157 24.2757 24.2757 24.9157 23.5319 24.9157H8.46744C7.72369 24.9155 7.08463 24.2756 7.08463 23.5319V22.6696L7.09048 22.4987C7.15229 21.6526 7.67488 20.9127 8.54263 20.2272C9.4687 19.4957 10.711 18.8894 11.9635 18.3414L11.9753 18.3356L11.987 18.3307C12.0568 18.2958 12.1262 18.2601 12.196 18.2252C12.2334 18.2116 12.2563 18.21 12.2682 18.2106C12.2787 18.2112 12.2964 18.2141 12.3258 18.2311C13.4205 18.9437 14.6482 19.3248 15.9606 19.3248C17.2804 19.3248 18.5472 18.9005 19.5973 18.2301C19.6262 18.2137 19.6438 18.2111 19.654 18.2106ZM15.9997 7.08461C18.2648 7.08461 20.1686 9.125 20.1686 11.7633C20.1685 14.4015 18.2647 16.4411 15.9997 16.4411C13.7348 16.4408 11.8318 14.4013 11.8317 11.7633C11.8317 9.1252 13.7347 7.08482 15.9997 7.08461Z" stroke="#706E6C"/>
</svg>
