<svg width="32" height="32" viewBox="0 0 32 32" fill="none" xmlns="http://www.w3.org/2000/svg">
    <title>resource_home_32x32</title>
    <g clip-path="url(#clip0_820_89542)">
        <path fill-rule="evenodd" clip-rule="evenodd" d="M10.9998 16.0001C13.7998 16.0001 15.9998 13.8001 15.9998 11V9.00003C15.9998 6.20001 13.7998 4 10.9998 4C8.19978 4 5.99976 6.20001 5.99976 9.00003V11C5.99976 13.8001 8.19978 16.0001 10.9998 16.0001ZM7.00001 9.00002C7.00001 6.80001 8.80002 5 11 5C13.2 5 15.0001 6.80001 15.0001 9.00002V11C15.0001 13.2 13.2 15.0001 11 15.0001C8.80002 15.0001 7.00001 13.2 7.00001 11V9.00002ZM17.0634 25.0004H2.00001V19.3004L6.10003 16.4004L5.50003 15.6004L1.2 18.6004C1.1 18.7004 1 18.8004 1 19.0004V25.5004C1 25.8004 1.2 26.0004 1.5 26.0004H17C17.2033 26.0004 17.1311 25.4492 17.0634 25.0004Z" fill="white"/>
        <path d="M20.9998 10.5005L31.3922 19.5005H10.6075L20.9998 10.5005Z" fill="white"/>
        <path d="M14.9998 19.5005V28.5005H17.9998V22.5005H23.9998V28.5005H26.9998V19.5005H14.9998Z" fill="white"/>
    </g>
    <defs>
        <clipPath id="clip0_820_89542">
            <rect width="32" height="32" fill="white"/>
        </clipPath>
    </defs>
</svg>


