<svg xmlns="http://www.w3.org/2000/svg" width="32" height="32" viewBox="0 0 32 32" fill="none">
  <path d="M17.745 25.365H16.6868C16.5437 25.362 16.4078 25.3023 16.3084 25.1995C16.2093 25.0965 16.155 24.9583 16.1575 24.8154V7.65878C16.1562 7.58808 16.1691 7.5178 16.195 7.45197C16.2209 7.38613 16.2608 7.32605 16.3087 7.27515C16.3567 7.22425 16.412 7.18352 16.4813 7.1553C16.5507 7.12708 16.6239 7.11208 16.6975 7.11068H17.745" stroke="black" stroke-width="2" stroke-linecap="round" stroke-linejoin="round"/>
  <path d="M13.7767 16.6348H16.1575" stroke="black" stroke-width="2" stroke-linecap="round" stroke-linejoin="round"/>
  <path d="M20.9193 7.11143C20.9193 7.42403 20.9808 7.7337 21.1006 8.02253C21.2202 8.31138 21.3956 8.57392 21.6167 8.79505C21.8378 9.01618 22.1004 9.19166 22.3892 9.31126C22.678 9.43086 22.9876 9.49237 23.3002 9.49237C23.6128 9.49237 23.9225 9.43086 24.2113 9.31126C24.5001 9.19166 24.7627 9.01618 24.9838 8.79505C25.2049 8.57392 25.3804 8.31138 25.5 8.02253C25.6196 7.7337 25.6812 7.42403 25.6812 7.11143C25.6812 6.79883 25.6196 6.48916 25.5 6.20033C25.3804 5.9115 25.2049 5.64895 24.9838 5.42782C24.7627 5.20669 24.5001 5.03121 24.2113 4.91161C23.9225 4.79201 23.6128 4.7305 23.3002 4.7305C22.9876 4.7305 22.678 4.79201 22.3892 4.91161C22.1004 5.03121 21.8378 5.20669 21.6167 5.42782C21.3956 5.64895 21.2202 5.9115 21.1006 6.20033C20.9808 6.48916 20.9193 6.79883 20.9193 7.11143Z" stroke="black" stroke-width="2" stroke-linecap="round" stroke-linejoin="round"/>
  <path d="M27.2688 13.4603C27.033 12.5772 26.5206 11.7923 25.807 11.2213C25.0931 10.6503 24.215 10.3222 23.3001 10.2858C22.3849 10.3219 21.5068 10.6501 20.7929 11.2211C20.079 11.792 19.5665 12.577 19.3306 13.4603H27.2688Z" stroke="black" stroke-width="2" stroke-linecap="round" stroke-linejoin="round"/>
  <path d="M20.9193 22.1908C20.9193 22.5035 20.9808 22.8131 21.1006 23.102C21.2202 23.3908 21.3956 23.6534 21.6167 23.8745C21.8378 24.0956 22.1004 24.2711 22.3892 24.3907C22.678 24.5103 22.9876 24.5718 23.3002 24.5718C23.6128 24.5718 23.9225 24.5103 24.2113 24.3907C24.5001 24.2711 24.7627 24.0956 24.9838 23.8745C25.2049 23.6534 25.3804 23.3908 25.5 23.102C25.6196 22.8131 25.6812 22.5035 25.6812 22.1908C25.6812 21.8782 25.6196 21.5685 25.5 21.2797C25.3804 20.9909 25.2049 20.7284 24.9838 20.5073C24.7627 20.2862 24.5001 20.1107 24.2113 19.9911C23.9225 19.8715 23.6128 19.81 23.3002 19.81C22.9876 19.81 22.678 19.8715 22.3892 19.9911C22.1004 20.1107 21.8378 20.2862 21.6167 20.5073C21.3956 20.7284 21.2202 20.9909 21.1006 21.2797C20.9808 21.5685 20.9193 21.8782 20.9193 22.1908Z" stroke="black" stroke-width="2" stroke-linecap="round" stroke-linejoin="round"/>
  <path d="M27.2685 28.5398C27.0327 27.6566 26.5202 26.8716 25.8064 26.3006C25.0925 25.7296 24.2144 25.4015 23.2993 25.3651C22.3841 25.4013 21.5059 25.7295 20.792 26.3005C20.0782 26.8714 19.5657 27.6565 19.3298 28.5398H27.2685Z" stroke="black" stroke-width="2" stroke-linecap="round" stroke-linejoin="round"/>
  <path d="M5.04626 13.4603C5.04626 14.3024 5.38068 15.1099 5.97604 15.7053C6.57139 16.3007 7.37889 16.6351 8.221 16.6351C9.06311 16.6351 9.87061 16.3007 10.466 15.7053C11.0613 15.1099 11.3958 14.3024 11.3958 13.4603C11.3958 12.6182 11.0613 11.8107 10.466 11.2154C9.87061 10.62 9.06311 10.2856 8.221 10.2856C7.37889 10.2856 6.57139 10.62 5.97604 11.2154C5.38068 11.8107 5.04626 12.6182 5.04626 13.4603Z" stroke="black" stroke-width="2" stroke-linecap="round" stroke-linejoin="round"/>
  <path d="M3.45892 22.9844C3.45892 21.7212 3.96062 20.5103 4.85371 19.6172C5.74681 18.7242 6.95773 18.2225 8.22097 18.2225C9.4842 18.2225 10.6951 18.7242 11.5882 19.6172C12.4813 20.5103 12.983 21.7212 12.983 22.9844H3.45892Z" stroke="black" stroke-width="2" stroke-linecap="round" stroke-linejoin="round"/>
</svg>