<svg xmlns="http://www.w3.org/2000/svg" width="32" height="32" viewBox="0 0 32 32" fill="none">
  <path d="M13.3087 19.0237H12.5151C12.4078 19.0217 12.3058 18.9771 12.2314 18.8998C12.157 18.8226 12.1163 18.719 12.1182 18.6118V5.74436C12.1173 5.69131 12.1268 5.63859 12.1462 5.58922C12.1656 5.53985 12.1946 5.49478 12.2315 5.4566C12.2683 5.41843 12.3124 5.38789 12.361 5.36672C12.4097 5.34555 12.462 5.33418 12.5151 5.33325H13.3087" stroke="black" stroke-width="1.5" stroke-linecap="round" stroke-linejoin="round"/>
  <path d="M10.3325 12.4761H12.1182" stroke="black" stroke-width="1.5" stroke-linecap="round" stroke-linejoin="round"/>
  <path d="M15.6895 5.33332C15.6895 5.56782 15.7356 5.80004 15.8254 6.01669C15.9152 6.23334 16.0467 6.4302 16.2125 6.59601C16.3783 6.76183 16.5752 6.89337 16.7918 6.98311C17.0085 7.07285 17.2406 7.11904 17.4752 7.11904C17.7097 7.11904 17.9419 7.07285 18.1586 6.98311C18.3752 6.89337 18.5721 6.76183 18.7379 6.59601C18.9037 6.4302 19.0352 6.23334 19.125 6.01669C19.2147 5.80004 19.2609 5.56782 19.2609 5.33332C19.2609 5.09882 19.2147 4.86661 19.125 4.64996C19.0352 4.43331 18.9037 4.23645 18.7379 4.07063C18.5721 3.90481 18.3752 3.77327 18.1586 3.68354C17.9419 3.5938 17.7097 3.54761 17.4752 3.54761C17.2406 3.54761 17.0085 3.5938 16.7918 3.68354C16.5752 3.77327 16.3783 3.90481 16.2125 4.07063C16.0467 4.23645 15.9152 4.43331 15.8254 4.64996C15.7356 4.86661 15.6895 5.09882 15.6895 5.33332Z" stroke="black" stroke-width="1.5" stroke-linecap="round" stroke-linejoin="round"/>
  <path d="M20.4516 10.0953C20.2748 9.43282 19.8905 8.84432 19.3552 8.4159C18.8198 7.98748 18.1613 7.74165 17.4762 7.71436C16.7909 7.74148 16.1323 7.98724 15.5967 8.41567C15.0613 8.8441 14.6769 9.4327 14.5 10.0953H20.4516Z" stroke="black" stroke-width="1.5" stroke-linecap="round" stroke-linejoin="round"/>
  <path d="M15.6895 16.6429C15.6895 16.8774 15.7356 17.1096 15.8254 17.3262C15.9152 17.5429 16.0467 17.7398 16.2125 17.9056C16.3783 18.0714 16.5752 18.203 16.7918 18.2927C17.0085 18.3824 17.2406 18.4286 17.4752 18.4286C17.7097 18.4286 17.9419 18.3824 18.1586 18.2927C18.3752 18.203 18.5721 18.0714 18.7379 17.9056C18.9037 17.7398 19.0352 17.5429 19.125 17.3262C19.2147 17.1096 19.2609 16.8774 19.2609 16.6429C19.2609 16.4084 19.2147 16.1761 19.125 15.9596C19.0352 15.7429 18.9037 15.546 18.7379 15.3802C18.5721 15.2144 18.3752 15.0828 18.1586 14.9931C17.9419 14.9034 17.7097 14.8572 17.4752 14.8572C17.2406 14.8572 17.0085 14.9034 16.7918 14.9931C16.5752 15.0828 16.3783 15.2144 16.2125 15.3802C16.0467 15.546 15.9152 15.7429 15.8254 15.9596C15.7356 16.1761 15.6895 16.4084 15.6895 16.6429Z" stroke="black" stroke-width="1.5" stroke-linecap="round" stroke-linejoin="round"/>
  <path d="M20.4514 21.4049C20.2745 20.7423 19.8902 20.1537 19.3547 19.7253C18.8191 19.2968 18.1605 19.0511 17.4752 19.0239C16.79 19.0511 16.1313 19.2968 15.5958 19.7253C15.0603 20.1537 14.6759 20.7423 14.499 21.4049H20.4514Z" stroke="black" stroke-width="1.5" stroke-linecap="round" stroke-linejoin="round"/>
  <path d="M3.78467 10.0953C3.78467 10.7268 4.03552 11.3324 4.48203 11.7789C4.92855 12.2254 5.53415 12.4763 6.16562 12.4763C6.79709 12.4763 7.40269 12.2254 7.84921 11.7789C8.29572 11.3324 8.54657 10.7268 8.54657 10.0953C8.54657 9.46384 8.29572 8.85824 7.84921 8.41172C7.40269 7.9652 6.79709 7.71436 6.16562 7.71436C5.53415 7.71436 4.92855 7.9652 4.48203 8.41172C4.03552 8.85824 3.78467 9.46384 3.78467 10.0953Z" stroke="black" stroke-width="1.5" stroke-linecap="round" stroke-linejoin="round"/>
  <path d="M2.59424 17.2382C2.59424 16.291 2.97051 15.3825 3.64028 14.7128C4.31006 14.043 5.21847 13.6667 6.16566 13.6667C7.11287 13.6667 8.02127 14.043 8.69104 14.7128C9.36082 15.3825 9.73709 16.291 9.73709 17.2382H2.59424Z" stroke="black" stroke-width="1.5" stroke-linecap="round" stroke-linejoin="round"/>
</svg>