<?xml version="1.0" encoding="UTF-8"?>
<svg viewBox="0 0 32 32" version="1.1" xmlns="http://www.w3.org/2000/svg" xmlns:xlink="http://www.w3.org/1999/xlink">
    <title>routes_32x32</title>
    <g stroke="none" stroke-width="1">
        <path d="M16.0010216,25 L7.12970455,25 C4.49666054,25 2.36215667,22.9106621 2.36215667,20.3333333 C2.36215667,17.7560045 4.49666054,15.6666667 7.12970455,15.6666667 L25.5513737,15.6666667 C28.5605669,15.6666667 31,13.278852 31,10.3333333 C31,7.38781467 28.5605669,5 25.5513737,5 L11.9690382,5 L11.9690382,6.33333333 L25.5519186,6.33333333 C27.8088135,6.33333333 29.6383883,8.12419433 29.6383883,10.3333333 C29.6383883,12.5424723 27.8088135,14.3333333 25.5519186,14.3333333 L7.12970455,14.3333333 C3.74436221,14.3333333 1,17.0196248 1,20.3333333 C1,23.6470418 3.74436221,26.3333333 7.12970455,26.3333333 L16.0010216,26.3333333 L16.0010216,29 L20.0182938,25.7132 L16.0010216,22.3333333 L16.0010216,25 Z"></path>
        <path d="M5.5,10 C7.98528137,10 10,7.98528137 10,5.5 C10,3.01471863 7.98528137,1 5.5,1 C3.01471863,1 1,3.01471863 1,5.5 C1.0029755,7.98404784 3.01595216,9.9970245 5.5,10 Z M5.5,2.28571429 C7.27520098,2.28571429 8.71428571,3.72479902 8.71428571,5.5 C8.71428571,7.27520098 7.27520098,8.71428571 5.5,8.71428571 C3.72479902,8.71428571 2.28571429,7.27520098 2.28571429,5.5 C2.28783965,3.72568012 3.72568012,2.28783965 5.5,2.28571429 Z"></path>
        <path d="M26.5,22 C24.0147186,22 22,24.0147186 22,26.5 C22,28.9852814 24.0147186,31 26.5,31 C28.9852814,31 31,28.9852814 31,26.5 C30.9970245,24.0159522 28.9840478,22.0029755 26.5,22 L26.5,22 Z M26.5,29.7142857 C24.724799,29.7142857 23.2857143,28.275201 23.2857143,26.5 C23.2857143,24.724799 24.724799,23.2857143 26.5,23.2857143 C28.275201,23.2857143 29.7142857,24.724799 29.7142857,26.5 C29.7124432,28.2744372 28.2744372,29.7124432 26.5,29.7142857 L26.5,29.7142857 Z"></path>
    </g>
</svg>
