<?xml version="1.0" encoding="UTF-8"?>
<svg viewBox="0 0 32 32" version="1.1" xmlns="http://www.w3.org/2000/svg" xmlns:xlink="http://www.w3.org/1999/xlink">
    <title>satellite_32x32</title>
    <g stroke="none" stroke-width="1">
        <path d="M27.6061953,12.2442201 C28.1348995,11.7083796 28.1307158,10.8473461 27.5968293,10.3166416 L21.6218549,4.39757582 C21.3670019,4.14352681 21.0211403,4.00125813 20.6608203,4.00225842 C20.2908393,3.97950933 19.9312798,4.12959921 19.6878407,4.40840643 L9.34694609,14.87281 C6.51906031,14.425247 3.63671491,15.2381118 1.46252636,17.096335 C1.18175058,17.3396602 1.01465314,17.6881723 1.00101259,18.0589058 C0.986311303,18.4438842 1.13222201,18.8177261 1.4040227,19.0914694 L6.66365076,24.3456709 L1.84558278,29.1684078 L2.80661733,30.1229911 L7.62142756,25.3033679 L12.9187912,30.5953412 C13.1787118,30.8543076 13.531031,31 13.898422,31 L13.9540751,30.9986462 C14.3257972,30.9845045 14.674898,30.816886 14.9178245,30.5359082 C16.75018,28.3944892 17.5686835,25.5695177 17.1640391,22.7833549 L27.6061953,12.2442201 Z M13.8982067,30 L2,18.0988787 C5.35732688,15.1804816 10.3927945,15.3212826 13.5815691,18.4227207 C16.680291,21.6137925 16.8178817,26.6445469 13.8982067,30 L13.8982067,30 Z M14.7035799,17.2308191 C13.6633541,16.2028484 12.39513,15.429848 11,14.9734353 L20.9319519,5 L27,10.9873664 L17.0129066,21 C16.5568873,19.5794149 15.7651693,18.2872079 14.7035799,17.2308191 L14.7035799,17.2308191 Z"></path>
        <path d="M30.6113739,22.461073 L25.1017728,16.9995529 L24.1705409,17.938159 L29.6761663,23.4081125 L26.4544246,26.6792002 L20.9326316,21.2157036 L20.0019298,22.1536508 L25.5208073,27.6134579 C25.7693897,27.8615537 26.1073898,28.0005612 26.459593,27.9995529 L26.4719175,27.9995529 C26.8274197,27.9970351 27.1670624,27.8528818 27.4148114,27.5993584 L30.6242285,24.3294566 C31.1327891,23.8072709 31.1270719,22.9762913 30.6113739,22.461073 Z"></path>
        <path d="M9.89348407,11.9995529 L10.8477681,11.0821077 L5.34030422,5.48690236 L8.43326158,2.31795281 L14.064977,7.87104936 L15.0019298,6.93504993 L9.37594698,1.38761175 C9.10781492,1.15776732 8.77050576,1.02140096 8.41606367,0.999552939 C8.05450666,1.00118976 7.70912883,1.14770507 7.45911333,1.40550798 L4.37788788,4.57458913 C3.87382775,5.08963726 3.87701997,5.90722963 4.38508701,6.41842773 L9.89348407,11.9995529 Z"></path>
    </g>
</svg>
