<svg viewBox="0 0 32 32" version="1.1" xmlns="http://www.w3.org/2000/svg" xmlns:xlink="http://www.w3.org/1999/xlink">
    <title>schedule_32x32</title>
    <g stroke="none" stroke-width="1" fill="none">
        <g transform="translate(-236.000000, -281.000000)" stroke="#2C404C">
            <g transform="translate(100.000000, 164.000000)">
                <g transform="translate(136.000000, 117.000000)">
                    <path d="M7,7.5 L1,7.5 C0.724,7.5 0.5,7.276 0.5,7 L0.5,1 C0.5,0.724 0.724,0.5 1,0.5 L7,0.5 C7.276,0.5 7.5,0.724 7.5,1 L7.5,7 C7.5,7.276 7.276,7.5 7,7.5 Z"></path>
                    <path d="M12,31.5 L6,31.5 C5.724,31.5 5.5,31.276 5.5,31 L5.5,25 C5.5,24.724 5.724,24.5 6,24.5 L12,24.5 C12.276,24.5 12.5,24.724 12.5,25 L12.5,31 C12.5,31.276 12.276,31.5 12,31.5 Z"></path>
                    <path d="M12,19.5 L6,19.5 C5.724,19.5 5.5,19.276 5.5,19 L5.5,13 C5.5,12.724 5.724,12.5 6,12.5 L12,12.5 C12.276,12.5 12.5,12.724 12.5,13 L12.5,19 C12.5,19.276 12.276,19.5 12,19.5 Z"></path>
                    <path d="M10,3.5 L27,3.5"></path>
                    <path d="M15,15.5 L32,15.5"></path>
                    <path d="M15,27.5 L32,27.5"></path>
                </g>
            </g>
        </g>
    </g>
</svg>
