<svg viewBox="0 0 32 32" version="1.1" xmlns="http://www.w3.org/2000/svg" xmlns:xlink="http://www.w3.org/1999/xlink">
    <title>settings_32x32</title>
    <g stroke="none" stroke-width="1" fill="none">
        <g transform="translate(-569.000000, -280.000000)" stroke="#2C404C">
            <g transform="translate(100.000000, 164.000000)">
                <g transform="translate(469.000000, 116.000000)">
                    <path d="M31.5,19 L31.5,13 C31.5,12.724 31.276,12.5 31,12.5 L28.745,12.5 C28.525,12.5 28.336,12.354 28.272,12.144 C28.033,11.354 27.719,10.596 27.337,9.879 C27.234,9.686 27.265,9.449 27.42,9.294 L29.013,7.701 C29.208,7.507 29.208,7.189 29.013,6.994 L25.005,2.987 C24.81,2.792 24.494,2.792 24.298,2.987 L22.706,4.58 C22.55,4.735 22.315,4.767 22.121,4.663 C21.404,4.28 20.647,3.968 19.856,3.728 C19.646,3.664 19.5,3.475 19.5,3.255 L19.5,1.354 C19.5,0.796 19.202,0.5 18.833,0.5 L13,0.5 C12.724,0.5 12.5,0.724 12.5,1 L12.5,3.255 C12.5,3.475 12.354,3.664 12.144,3.728 C11.353,3.968 10.596,4.28 9.879,4.663 C9.685,4.767 9.45,4.735 9.294,4.58 L7.952,3.238 C7.558,2.844 7.137,2.845 6.876,3.105 L2.988,6.994 C2.792,7.189 2.792,7.507 2.988,7.701 L4.58,9.294 C4.735,9.449 4.766,9.685 4.663,9.879 C4.281,10.596 3.967,11.354 3.728,12.144 C3.664,12.354 3.475,12.5 3.255,12.5 L1,12.5 C0.724,12.5 0.5,12.724 0.5,13 L0.5,19 C0.5,19.276 0.724,19.5 1,19.5 L3.255,19.5 C3.475,19.5 3.664,19.646 3.728,19.856 C3.967,20.646 4.281,21.404 4.663,22.121 C4.766,22.315 4.735,22.551 4.58,22.706 L2.988,24.299 C2.792,24.493 2.792,24.811 2.988,25.006 L6.995,29.013 C7.19,29.208 7.506,29.208 7.702,29.013 L9.294,27.42 C9.45,27.265 9.685,27.233 9.879,27.337 C10.596,27.72 11.353,28.032 12.144,28.272 C12.354,28.336 12.5,28.525 12.5,28.745 L12.5,30.646 C12.5,31.204 12.798,31.5 13.167,31.5 L19,31.5 C19.276,31.5 19.5,31.276 19.5,31 L19.5,28.745 C19.5,28.525 19.646,28.336 19.856,28.272 C20.647,28.032 21.405,27.72 22.121,27.337 C22.315,27.233 22.55,27.265 22.706,27.42 L24.048,28.762 C24.442,29.156 24.863,29.155 25.124,28.895 L29.013,25.006 C29.208,24.811 29.208,24.493 29.013,24.299 L27.42,22.706 C27.265,22.551 27.234,22.314 27.337,22.121 C27.719,21.404 28.033,20.646 28.272,19.856 C28.336,19.646 28.525,19.5 28.745,19.5 L31,19.5 C31.276,19.5 31.5,19.276 31.5,19 Z"></path>
                    <path d="M22.5,16 C22.5,19.59 19.59,22.5 16,22.5 C12.41,22.5 9.5,19.59 9.5,16 C9.5,12.41 12.41,9.5 16,9.5 C19.59,9.5 22.5,12.41 22.5,16 Z"></path>
                </g>
            </g>
        </g>
    </g>
</svg>
