<?xml version="1.0" encoding="UTF-8"?>
<svg viewBox="0 0 32 32" version="1.1" xmlns="http://www.w3.org/2000/svg" xmlns:xlink="http://www.w3.org/1999/xlink">
    <title>traffic_32x32</title>
    <rect x="10.5833" y="0.5" width="11.8333" height="25.35" rx="0.5" stroke="black"/>
      <path d="M19.5 5.425C19.5 7.07327 18.1585 8.4125 16.5 8.4125C14.8415 8.4125 13.5 7.07327 13.5 5.425C13.5 3.77673 14.8415 2.4375 16.5 2.4375C18.1585 2.4375 19.5 3.77673 19.5 5.425Z" stroke="black"/>
      <path d="M19.5 13.5625C19.5 15.2108 18.1585 16.55 16.5 16.55C14.8415 16.55 13.5 15.2108 13.5 13.5625C13.5 11.9142 14.8415 10.575 16.5 10.575C18.1585 10.575 19.5 11.9142 19.5 13.5625Z" stroke="black"/>
      <path d="M19.5 21.7C19.5 23.3483 18.1585 24.6875 16.5 24.6875C14.8415 24.6875 13.5 23.3483 13.5 21.7C13.5 20.0517 14.8415 18.7125 16.5 18.7125C18.1585 18.7125 19.5 20.0517 19.5 21.7Z" stroke="black"/>
      <path d="M10.5833 3.68124V3.18124H10.0833H6.13249H5.73213L5.64459 3.57191C5.5381 4.04712 5.43826 4.63253 5.5472 5.27957C5.65797 5.93753 5.97678 6.61767 6.63655 7.30406L6.65027 7.31834L6.66509 7.33149C6.7316 7.39054 6.78855 7.4463 6.84743 7.5046C6.85253 7.50965 6.8577 7.51478 6.86295 7.51998C6.91537 7.57194 6.97526 7.63131 7.03771 7.68681C7.18903 7.82128 7.36317 7.94081 7.61731 8.03095C8.07658 8.19384 8.78057 8.24999 10.0833 8.24999H10.5833V7.74999V3.68124Z" stroke="black"/>
      <path d="M10.5833 11.2375V10.7375H10.0833H6.13249H5.73213L5.64459 11.1282C5.5381 11.6034 5.43826 12.1888 5.54719 12.8358C5.65797 13.4938 5.97678 14.1739 6.63655 14.8603L6.65027 14.8746L6.66509 14.8878C6.7316 14.9468 6.78854 15.0026 6.84743 15.0609C6.85253 15.0659 6.8577 15.071 6.86295 15.0762C6.91537 15.1282 6.97526 15.1876 7.03771 15.2431C7.18903 15.3775 7.36317 15.4971 7.61731 15.5872C8.07658 15.7501 8.78057 15.8063 10.0833 15.8063H10.5833V15.3063V11.2375Z" stroke="black"/>
      <path d="M10.5833 18.7937V18.2937H10.0833H6.13249H5.73213L5.64459 18.6844C5.5381 19.1596 5.43826 19.745 5.5472 20.3921C5.65797 21.05 5.97678 21.7302 6.63655 22.4166L6.65027 22.4308L6.66509 22.444C6.7316 22.503 6.78855 22.5588 6.84743 22.6171C6.85253 22.6221 6.8577 22.6273 6.86295 22.6325C6.91537 22.6844 6.97526 22.7438 7.03771 22.7993C7.18903 22.9338 7.36317 23.0533 7.61731 23.1434C8.07658 23.3063 8.78057 23.3625 10.0833 23.3625H10.5833V22.8625V18.7937Z" stroke="black"/>
      <path d="M22.4167 3.68124V3.18124H22.9167H26.8675H27.2679L27.3554 3.57191C27.4619 4.04712 27.5617 4.63253 27.4528 5.27957C27.342 5.93753 27.0232 6.61767 26.3635 7.30406L26.3497 7.31834L26.3349 7.33149C26.2684 7.39054 26.2115 7.4463 26.1526 7.5046C26.1475 7.50965 26.1423 7.51478 26.137 7.51998C26.0846 7.57194 26.0247 7.63131 25.9623 7.68681C25.811 7.82128 25.6368 7.94081 25.3827 8.03095C24.9234 8.19384 24.2194 8.24999 22.9167 8.24999H22.4167V7.74999V3.68124Z" stroke="black"/>
      <path d="M22.4167 11.2375V10.7375H22.9167H26.8675H27.2679L27.3554 11.1282C27.4619 11.6034 27.5617 12.1888 27.4528 12.8358C27.342 13.4938 27.0232 14.1739 26.3635 14.8603L26.3497 14.8746L26.3349 14.8878C26.2684 14.9468 26.2115 15.0026 26.1526 15.0609C26.1475 15.0659 26.1423 15.071 26.137 15.0762C26.0846 15.1282 26.0247 15.1876 25.9623 15.2431C25.811 15.3775 25.6368 15.4971 25.3827 15.5872C24.9234 15.7501 24.2194 15.8063 22.9167 15.8063H22.4167V15.3063V11.2375Z" stroke="black"/>
      <path d="M22.4167 18.7937V18.2937H22.9167H26.8675H27.2679L27.3554 18.6844C27.4619 19.1596 27.5617 19.745 27.4528 20.3921C27.342 21.05 27.0232 21.7302 26.3635 22.4166L26.3497 22.4308L26.3349 22.444C26.2684 22.503 26.2115 22.5588 26.1526 22.6171C26.1475 22.6221 26.1423 22.6273 26.137 22.6325C26.0846 22.6844 26.0247 22.7438 25.9623 22.7993C25.811 22.9338 25.6368 23.0533 25.3827 23.1434C24.9234 23.3063 24.2194 23.3625 22.9167 23.3625H22.4167V22.8625V18.7937Z" stroke="black"/>
    <rect x="14.8333" y="25.85" width="4.11111" height="5.65" rx="1" stroke="black"/>
</svg>
