<?xml version="1.0" encoding="UTF-8"?>
<svg viewBox="0 0 32 32" version="1.1" xmlns="http://www.w3.org/2000/svg" xmlns:xlink="http://www.w3.org/1999/xlink">
    <title>traffic_32x32</title>
    <g stroke="none" stroke-width="1">
        <path d="M21.970237,19.7162868 C21.9708929,19.5988 21.9562308,19.4817357 21.9266274,19.3681005 L19.7808084,10.9232778 C19.6228327,10.2995566 19.0653614,9.86327989 18.4268122,9.86364115 L4.55041353,9.86364115 C3.91182936,9.86326552 3.35431002,10.2995347 3.19627762,10.9232778 L1.05325411,19.3571096 C1.02266992,19.4732982 1.00707297,19.5929771 1.00684895,19.7131868 L1,21.1335505 L1.00684895,21.1335505 L1.00684895,26.7727323 C1.00731159,27.5507585 1.63283267,28.1813568 2.40459452,28.1818232 L3.8023401,28.1818232 L3.8023401,31.000005 L5.20008567,31.000005 L5.20008567,28.1818232 L17.7797958,28.1818232 L17.7797958,31.000005 L19.1775414,31.000005 L19.1775414,28.1818232 L20.575287,28.1818232 C21.3470488,28.1813568 21.9725699,27.5507585 21.9730325,26.7727323 L21.9730325,19.7272778 L21.970237,19.7272778 L21.970237,19.7162868 Z M2.40459452,19.7272778 L2.40459452,19.7189641 L4.55041353,11.2727323 L18.4268122,11.2727323 L20.5724915,19.7176959 L20.5724915,19.7272778 L2.40459452,19.7272778 Z M20.5766847,26.7727323 L2.40459452,26.7727323 L2.40459452,21.1363687 L20.575287,21.1363687 L20.575287,26.7727323 L20.5766847,26.7727323 Z"></path>
        <path d="M30.6209962,10.4358379 C30.6207288,10.3316475 30.6082433,10.2278566 30.5838013,10.126638 L28.6220999,2.14743985 C28.4760081,1.55295175 27.947735,1.13577617 27.3417775,1.13636867 L14.654491,1.13636867 C14.051687,1.13475153 13.5250156,1.54774098 13.3766747,2.13837319 L11.622447,8.84930492 L12.8976254,9.19037151 L14.654491,2.46970644 L27.3417775,2.46970644 L29.3015004,10.4406379 L21.387032,10.4697045 L21.3923079,11.8030376 L29.3034789,11.7743709 L29.3034789,17.1363687 L22.7086381,17.1363687 L22.7086381,18.4697026 L26.6655426,18.4697026 L26.6655426,21.1363687 L27.9845107,21.1363687 L27.9845107,18.4697026 L29.3034789,18.4697026 C30.031744,18.4692613 30.6220105,17.8725662 30.622447,17.1363687 L30.622447,10.4358379 L30.6209962,10.4358379 Z"></path>
        <ellipse cx="5.20008567" cy="23.9545505" rx="1.39774557" ry="1.40909091"></ellipse>
        <ellipse cx="17.7797958" cy="23.9545505" rx="1.39774557" ry="1.40909091"></ellipse>
        <ellipse cx="26.5640148" cy="14.0909141" rx="1.39774557" ry="1.40909091"></ellipse>
    </g>
</svg>
