<svg viewBox="0 0 32 32" version="1.1" xmlns="http://www.w3.org/2000/svg" xmlns:xlink="http://www.w3.org/1999/xlink">
    <title>user_32x32</title>
    <g stroke="none" stroke-width="1" fill="none">
        <g transform="translate(-793.000000, -279.000000)" stroke="#2C404C">
            <g transform="translate(100.000000, 164.000000)">
                <g transform="translate(693.000000, 115.000000)">
                    <path d="M25.5,9.5 C25.5,14.471 21.471,18.5 16.5,18.5 C11.529,18.5 7.5,14.471 7.5,9.5 C7.5,4.529 11.529,0.5 16.5,0.5 C21.471,0.5 25.5,4.529 25.5,9.5 Z"></path>
                    <path d="M22,21.5 L10,21.5 C4.753,21.5 0.5,25.753 0.5,31 C0.5,31.276 0.724,31.5 1,31.5 L31,31.5 C31.276,31.5 31.5,31.276 31.5,31 C31.5,25.753 27.247,21.5 22,21.5 Z"></path>
                </g>
            </g>
        </g>
    </g>
</svg>
