<svg viewBox="0 0 32 32" xmlns="http://www.w3.org/2000/svg">
  <title>
    applications_32x32
  </title>
  <g>
    <g transform="translate(-678 -280)">
      <g transform="translate(100 164)">
        <g transform="translate(578 116)">
          <path d="M16 19.5a3.5 3.5 0 1 1 0-7 3.5 3.5 0 0 1 0 7zm12 0a3.5 3.5 0 1 1 0-7 3.5 3.5 0 0 1 0 7zm-24 0a3.5 3.5 0 1 1 0-7 3.5 3.5 0 0 1 0 7zm12 12a3.5 3.5 0 1 1 0-7 3.5 3.5 0 0 1 0 7zm12 0a3.5 3.5 0 1 1 0-7 3.5 3.5 0 0 1 0 7zm-24 0a3.5 3.5 0 1 1 0-7 3.5 3.5 0 0 1 0 7zM7.5 4a3.5 3.5 0 1 1-7 0 3.5 3.5 0 0 1 7 0zm12 0a3.5 3.5 0 1 1-7 0 3.5 3.5 0 0 1 7 0zm12 0a3.5 3.5 0 1 1-7 0 3.5 3.5 0 0 1 7 0z"/>
        </g>
      </g>
    </g>
  </g>
</svg>
