<?xml version="1.0" encoding="UTF-8"?>
<svg width="32" height="32" viewBox="0 0 32 32" xmlns="http://www.w3.org/2000/svg">
  <title>
    asset_32x32
  </title>
  <g fill-rule="evenodd">
    <g fill-rule="nonzero">
      <path opacity="0" d="M0 0h32v32H0z"/>
      <g transform="translate(2 2)">
        <path d="M22.157 5.512l-4.7-1.669s-.19 0-.19-.224c0-.367.19-.367.19-.367L26.84.138c.376-.087.553-.209.667-.087.114.122 0 .395 0 .395L24.62 9.948s0 .324-.426.324-.42-.324-.42-.324l-1.618-4.436zm5.17 5.49V27.4H3.778c-1.393.044-2.965-1.336-3.184-2.732-.076-.756-.194-2.243.31-2.805.826-.908 1.937-.904 2.69-.908h.451c.728 0 1.099.194 1.099-.601V5.292H15.46V4.69H5.143V.437c0-.342-.215-.355-.606-.355h-.944C1.408.082 0 1.49 0 3.703v21.064c0 .875.716 1.802 1.249 2.302.882.83 1.846.932 2.529.931h23.55c.728 0 .67-.353.67-1.09l-.077-15.908h-.593zM3.336.71h1.422v19.706H3.335A4.465 4.465 0 0 0 .49 21.453V3.336C.49 1.886 1.764.71 3.335.71zm23.605 0l-2.796 8.643-1.307-3.723a1.22 1.22 0 0 0-.731-.75l-3.698-1.315L26.94.709zm-7.369 22.473v-.562h2.638V16.7h-3.956c-.728 0-.594-.581-.594-1.297v-3.89h-7.318v4.257h3.956v.562h-3.956v6.288h3v-3.328h.593v3.328h3v.562h-6.593c-.728 0-.593-.58-.593-1.296V11.513c0-.208.21-.562.593-.562h6.593c.729 0 1.319-.154 1.319.562v4.625h3.956c.28 0 .593.194.593.561v5.187c0 .716.135 1.296-.593 1.296h-2.64z"/>
      </g>
    </g>
  </g>
</svg>
