<?xml version="1.0" encoding="UTF-8"?>
<svg width="32" height="32" viewBox="0 0 32 32" xmlns="http://www.w3.org/2000/svg">
  <title>
    asset_32x32
  </title>
  <g fill-rule="evenodd">
    <g fill-rule="nonzero">
      <g>
        <path d="M25.322 6.3l-5.37-1.908s-.219 0-.219-.255c0-.42.219-.42.219-.42L30.674.158c.43-.1.632-.239.762-.1.13.14 0 .452 0 .452L28.14 11.37s0 .37-.487.37c-.488 0-.481-.37-.481-.37l-1.85-5.07zm5.91 6.274v18.739H4.317c-1.593.05-3.39-1.527-3.639-3.122-.087-.864-.222-2.564.354-3.206.944-1.038 2.214-1.033 3.074-1.038h.516c.832 0 1.255.222 1.255-.687V6.048H17.67V5.36H5.877V.499c0-.39-.245-.405-.692-.405H4.106C1.61.094 0 1.703 0 4.232v24.073c0 1 .819 2.06 1.427 2.632C2.435 31.885 3.537 32 4.317 32h26.915c.832 0 .767-.403.767-1.246l-.089-18.18h-.678zM3.81.81h1.625v22.522H3.811a5.103 5.103 0 0 0-3.25 1.186V3.813C.56 2.155 2.016.81 3.81.81zm26.978 0l-3.196 9.878L26.1 6.433a1.394 1.394 0 0 0-.836-.857l-4.226-1.503L30.788.81zm-8.422 25.684v-.642h3.014v-6.767h-4.52c-.833 0-.679-.663-.679-1.482v-4.445H11.82v4.865h4.52v.642h-4.52v7.187h3.428v-3.803h.678v3.803h3.428v.642H11.82c-.833 0-.679-.664-.679-1.482V13.158c0-.238.24-.642.679-.642h7.534c.833 0 1.507-.176 1.507.642v5.285h4.521c.32 0 .678.222.678.642v5.927c0 .818.155 1.482-.678 1.482h-3.014z" id="Shape"/>
      </g>
    </g>
  </g>
</svg>
