<?xml version="1.0" encoding="UTF-8"?>
<svg width="32" height="32" viewBox="0 0 32 32" xmlns="http://www.w3.org/2000/svg">
  <title>
    asset_32x32
  </title>
  <g fill-rule="evenodd">
    <g transform="translate(-706 -576)">
      <g transform="translate(706 576)">
        <path d="M24.323 7.547L19.57 5.851a1.214 1.214 0 0 1-.746-1.155 1.2 1.2 0 0 1 .834-1.126L30.408.061a1.2 1.2 0 0 1 1.228.293c.327.324.446.803.307 1.242L28.36 12.343a1.2 1.2 0 0 1-1.126.833 1.2 1.2 0 0 1-1.141-.804l-1.77-4.825zm6.222 5.543v17.454H4.567a3.055 3.055 0 0 1-3.112-2.574 2.909 2.909 0 0 1 .741-2.255 2.909 2.909 0 0 1 2.168-.989h1.454c.803 0 1.455-.65 1.455-1.454v-16h10.182V5.818H7.273V1.454C7.273.651 6.62 0 5.818 0H4.364A4.364 4.364 0 0 0 0 4.363v23.723A4.509 4.509 0 0 0 4.567 32h25.978c.804 0 1.455-.651 1.455-1.455V13.09h-1.455zM4.078 1.882h1.57V23.34h-1.57a4.964 4.964 0 0 0-3.137 1.13V4.744c0-1.58 1.405-2.86 3.137-2.86zm26.04 0l-3.085 9.412-1.441-4.054a1.336 1.336 0 0 0-.807-.817l-4.08-1.432 9.413-3.109zm-8.129 24.47v-1.41h2.91v-5.648h-4.364c-.804 0-1.455-.632-1.455-1.412v-4.235h-7.273v4.235h4.364v1.412h-4.364v5.647h2.91v-2.823h1.454v2.823h2.91v1.412h-7.274c-.803 0-1.454-.632-1.454-1.412V13.647c0-.78.651-1.412 1.454-1.412h7.273c.804 0 1.455.632 1.455 1.412v4.235h4.363c.804 0 1.455.632 1.455 1.412v5.647c0 .78-.651 1.412-1.455 1.412H21.99z"/>
      </g>
    </g>
  </g>
</svg>
