<svg id="Layer_1" data-name="Layer 1" xmlns="http://www.w3.org/2000/svg" viewBox="0 0 32 32">
  <title>
    crew_32x32
  </title>
  <path stroke-miterlimit="10" d="M16 14.4c-2.5 0-4.5-2-4.5-4.5V7.2c0-2.5 2-4.5 4.5-4.5s4.5 2 4.5 4.5v2.7c0 2.5-2 4.5-4.5 4.5z"/>
  <path stroke-linejoin="round" stroke-miterlimit="10" d="M21.2 15.1l4.3 3.2v11.2h-19V18.3l4.2-3.2"/>
  <path stroke-miterlimit="10" d="M25.5 13.5c-1.7 0-3-1.3-3-3v-2c0-1.7 1.3-3 3-3s3 1.3 3 3v2c0 1.7-1.3 3-3 3zm-19 0c-1.7 0-3-1.3-3-3v-2c0-1.7 1.3-3 3-3s3 1.3 3 3v2c0 1.7-1.3 3-3 3z"/>
  <path stroke-linejoin="round" stroke-miterlimit="10" d="M28 26.5h3.5V16l-2.1-1.6M4 26.5H.5V16l2.1-1.6"/>
</svg>
