<svg width="32" height="32" viewBox="0 0 32 32" xmlns="http://www.w3.org/2000/svg">
  <rect x=".5" y=".5" width="31" height="31" rx="15.5"/>
  <path d="m24.884 19.066.027.011c.714.284 1.387.585 1.878.943.492.36.711.707.711 1.074v.447c0 .223-.222.476-.54.477h-8.32c-.317 0-.54-.254-.54-.477v-.447c0-.356.217-.704.708-1.068.487-.36 1.15-.667 1.842-.95l.012-.006.01-.005.054-.026a4 4 0 0 0 2.053.562 4.14 4.14 0 0 0 2.05-.562zM22.8 13.255c1.134 0 2.078.956 2.078 2.185 0 1.228-.943 2.184-2.078 2.184s-2.078-.956-2.078-2.184.944-2.185 2.078-2.185m-11.516 5.811.027.011c.714.284 1.387.585 1.879.943.492.36.71.707.71 1.074v.447c0 .223-.222.476-.54.477H5.04c-.317 0-.54-.254-.54-.477v-.447c0-.356.217-.704.708-1.068.487-.36 1.15-.667 1.842-.95l.012-.006.01-.005.054-.026a4 4 0 0 0 2.053.562 4.14 4.14 0 0 0 2.05-.562zM9.2 13.255c1.135 0 2.078.956 2.078 2.185 0 1.228-.943 2.184-2.078 2.184s-2.078-.956-2.078-2.184.944-2.185 2.078-2.185"/>
  <path d="M13.352 17.858c.89.544 1.886.834 2.949.834a5.8 5.8 0 0 0 2.943-.832l.001.001.013-.006h.003l.006.001.014.004.072.034.093.044.014.006.014.005c1.034.412 2.034.857 2.77 1.395.738.538 1.12 1.1 1.12 1.735v.648c0 .46-.436.914-1.005.915H10.307c-.57 0-1.007-.454-1.007-.915v-.648c0-.62.382-1.182 1.116-1.727.73-.54 1.715-.993 2.717-1.405l.01-.005.012-.005.094-.043.07-.034.016-.004h.008zm2.98-8.358c1.776 0 3.235 1.495 3.235 3.389s-1.459 3.39-3.235 3.39-3.234-1.496-3.234-3.39S14.556 9.5 16.332 9.5"/>
</svg>
