<svg viewBox="0 0 32 32" xmlns="http://www.w3.org/2000/svg">
  <title>
    crew_manager_32x32
  </title>
  <g>
    <g transform="translate(-460 -279)">
      <g transform="translate(100 164)">
        <g transform="translate(360 115)">
          <path d="M22.5 7a6.5 6.5 0 1 1-13 0 6.5 6.5 0 0 1 13 0zm.5 24.5H9a.5.5 0 0 1-.5-.5V20.678a4.178 4.178 0 0 1 4.178-4.178h6.644a4.178 4.178 0 0 1 4.178 4.178V31a.5.5 0 0 1-.5.5zm-21.5-18a3 3 0 1 0 6 0 3 3 0 0 0-6 0zm4.5 6H4.161A3.66 3.66 0 0 0 .5 23.161V31a.5.5 0 0 0 .5.5h5m24.5-18a3 3 0 1 1-6 0 3 3 0 0 1 6 0zm-4.5 6h1.839a3.66 3.66 0 0 1 3.661 3.661V31a.5.5 0 0 1-.5.5h-5"/>
        </g>
      </g>
    </g>
  </g>
</svg>
