<svg id="Layer_1" data-name="Layer 1" xmlns="http://www.w3.org/2000/svg" viewBox="0 0 32 32">
  <title>
    crew_32x32
  </title>
  <path stroke-miterlimit="10" d="M16 15.5c-1.9 0-3.5-1.6-3.5-3.5v-2c0-1.9 1.6-3.5 3.5-3.5s3.5 1.6 3.5 3.5v2c0 2-1.6 3.5-3.5 3.5z"/>
  <path stroke-linejoin="round" stroke-miterlimit="10" d="M21 15l2.5 2.6v7.9H8.6v-7.9L11 15"/>
  <path stroke-miterlimit="10" d="M8.5 13.5c-1.1 0-2-.9-2-2v-1c0-1.1.9-2 2-2s2 .9 2 2v1c0 1.1-.9 2-2 2zm15 0c-1.1 0-2-.9-2-2v-1c0-1.1.9-2 2-2s2 .9 2 2v1c0 1.1-.9 2-2 2z"/>
  <path stroke-linejoin="round" stroke-miterlimit="10" d="M7 22.5H4.5v-7L6 14m19 8.5h2.5v-7L26 14"/>
</svg>
