<svg width="28" height="24" viewBox="0 0 32 32" xmlns="http://www.w3.org/2000/svg" xmlns:xlink="http://www.w3.org/1999/xlink">
  <title>
    dependency
  </title>
  <defs>
    <path d="M22.5 2h-4c-.3 0-.5.2-.5.5v15c0 .3.2.5.5.5h4c.3 0 .5-.2.5-.5v-15c0-.3-.2-.5-.5-.5zM22 17h-3V3h3v14zM13.5 6h-4c-.3 0-.5.2-.5.5v15c0 .3.2.5.5.5h4c.3 0 .5-.2.5-.5v-15c0-.3-.2-.5-.5-.5zM13 21h-3V7h3v14z" id="dependency-path-1"/>
  </defs>
  <g fill-rule="evenodd">
    <g>
      <g transform="translate(2 7)" stroke-linecap="square">
        <path d="M4.5.5h-3m-1 0v9m6 0h-5m6 0l-2 2m2-2l-2-2"/>
      </g>
      <mask>
        <use xlink:href="#dependency-path-1"/>
      </mask>
      <use fill-rule="nonzero" transform="rotate(90 16 12)" xlink:href="#dependency-path-1"/>
    </g>
  </g>
</svg>
