<?xml version="1.0" encoding="UTF-8"?>
<svg viewBox="0 0 32 32" xmlns="http://www.w3.org/2000/svg">
  <title>
    job_32x32
  </title>
  <g>
    <path d="M26.667 30.667V4H22.64c.006.084.026.163.026.247v1.086c0 .735-.598 1.334-1.334 1.334H10.667a1.335 1.335 0 0 1-1.334-1.334V4.247c0-.084.02-.163.026-.247H5.333v26.667h21.334zM13.58 1.333a2.916 2.916 0 0 0-2.913 2.914v1.086h10.666V6l.002-.667h-.002V4.247a2.916 2.916 0 0 0-2.913-2.914h-4.84zm13.087 1.334C27.403 2.667 28 3.265 28 4v26.667c0 .736-.597 1.333-1.333 1.333H5.333A1.334 1.334 0 0 1 4 30.667V4c0-.735.597-1.333 1.333-1.333h4.312A4.247 4.247 0 0 1 13.58 0h4.84a4.247 4.247 0 0 1 3.935 2.667h4.312zM18 17v-1h5v1h-5zM8 17v-1h9v1H8zm5-4v-1h11v1H13zm-5 0v-1h4v1H8zm0 8v-1h8v1H8z"/>
  </g>
</svg>
