<svg viewBox="0 0 33 32" xmlns="http://www.w3.org/2000/svg">
  <title>
    maps_32x32
  </title>
  <g>
    <g transform="translate(-348 -281)">
      <g transform="translate(100 164)">
        <g transform="translate(248 117)">
          <path d="M9.838 17.889l-4.6-8.45a5.982 5.982 0 0 1 1.022-7.09l.002-.002a5.982 5.982 0 0 1 9.483 7.095l-4.608 8.448a.74.74 0 0 1-1.3 0z"/>
          <path d="M12.5 6.495a2 2 0 1 1-4.001-.001 2 2 0 0 1 4.001.001zm-2 24.5v-10.04m10-19.96v24.576"/>
          <path d="M17.654 2.15L20.251.572a.499.499 0 0 1 .497-.011L31.24 6.353a.502.502 0 0 1 .261.44v24.24a.5.5 0 0 1-.74.439l-10.009-5.84a.498.498 0 0 0-.497.01l-9.497 5.82a.5.5 0 0 1-.515 0l-9.5-5.821a.5.5 0 0 1-.242-.43V1.002a.5.5 0 0 1 .757-.428l2.184 1.399"/>
        </g>
      </g>
    </g>
  </g>
</svg>
