<svg xmlns="http://www.w3.org/2000/svg" width="32" height="32" viewBox="0 0 32 32">
  <g transform="scale(1.3333)">
    <path d="M22.078 5.588a2.2 2.2 0 0 1-.647 1.565l-4.387 4.388-8.925 8.897-5.269.693.713-5.25 8.915-8.925 4.388-4.387a2.22 2.22 0 0 1 3.131 0l1.453 1.453a2.2 2.2 0 0 1 .628 1.566m-7.322-.919 4.575 4.575"/>
    <path d="m8.128 20.438-5.269.693.704-5.25a6.34 6.34 0 0 1 4.565 4.557m8.916-13.482L6.469 17.531m8.128-8.128-1.294 1.294M2.396 7.876 7.89 2.38l4.58 4.581-5.495 5.496zm9.149 9.153 5.496-5.496 4.58 4.58-5.495 5.496zm-6.867-6.866 1.838-1.829m7.321 10.988 1.829-1.838"/>
  </g>
</svg>
