<svg viewBox="0 0 32 32" xmlns="http://www.w3.org/2000/svg">
  <title>
    project_32x32
  </title>
  <g>
    <g transform="translate(-131 -281)">
      <g transform="translate(100 164)">
        <g transform="translate(31 117)">
          <path d="M5 17.5h12m-5 4h15m-15 4h8"/>
          <g>
            <path d="M31 31.5H1a.5.5 0 0 1-.5-.5V8a.5.5 0 0 1 .5-.5h9.293c.132 0 .26.053.353.146l3.708 3.708a.501.501 0 0 0 .353.146H31a.5.5 0 0 1 .5.5v19a.5.5 0 0 1-.5.5zM.5 5V1A.5.5 0 0 1 1 .5h11.855c.124 0 .244.046.335.129l4.143 3.742a.501.501 0 0 0 .335.129H31a.5.5 0 0 1 .5.5v4"/>
          </g>
        </g>
      </g>
    </g>
  </g>
</svg>
