<svg width="32" height="32" viewBox="0 0 32 32" xmlns="http://www.w3.org/2000/svg">
  <rect x=".5" y=".5" width="31" height="31" rx="15.5"/>
  <path d="M19.654 18.21c.012 0 .035.002.072.016l.223.111.014.006c1.293.549 2.553 1.145 3.488 1.872.931.723 1.465 1.517 1.465 2.455v.862a1.41 1.41 0 0 1-1.384 1.384H8.467a1.41 1.41 0 0 1-1.382-1.384v-.862l.005-.171c.062-.846.585-1.586 1.453-2.272.926-.731 2.168-1.338 3.42-1.886l.012-.005.012-.005.209-.106a.2.2 0 0 1 .072-.014c.01 0 .028.003.058.02a6.6 6.6 0 0 0 3.635 1.094c1.32 0 2.586-.424 3.636-1.095a.1.1 0 0 1 .057-.02M16 7.086c2.265 0 4.169 2.04 4.169 4.678s-1.904 4.678-4.17 4.678c-2.264 0-4.167-2.04-4.167-4.678S13.735 7.085 16 7.085Z"/>
</svg>
