<?xml version="1.0" encoding="UTF-8"?>
<svg width="32" height="32" viewBox="0 0 32 32" xmlns="http://www.w3.org/2000/svg" xmlns:xlink="http://www.w3.org/1999/xlink">
  <title>
    resource_home_32x32
  </title>
  <defs>
    <path d="M.747 20.023l4.742-4.38.745.799-4.567 4.228v5.235H14.7V27H1.119a.542.542 0 0 1-.548-.548V20.43c0-.154.066-.296.176-.406zM17 11.667v-2.19A5.478 5.478 0 0 0 11.524 4a5.478 5.478 0 0 0-5.476 5.476v2.19a5.478 5.478 0 0 0 5.476 5.477A5.478 5.478 0 0 0 17 11.667zm-1.095 0a4.38 4.38 0 0 1-4.381 4.38 4.38 4.38 0 0 1-4.381-4.38v-2.19a4.38 4.38 0 0 1 4.38-4.382 4.38 4.38 0 0 1 4.382 4.381v2.19z" id="path-1"/>
    <path d="M16.794 21v8.168H20v-4.89c0-.154.14-.278.313-.278h4.375c.172 0 .312.124.312.278v4.89h3.25V21H29v8.7c0 .166-.132.3-.295.3h-12.41a.298.298 0 0 1-.295-.3V21h.794zm7.44 3.751h-3.475V29h3.474v-4.249zm-1.926-11.677a.287.287 0 0 1 .384 0L31 20.576l-.813.424-7.687-6.876-7.8 7.07-.7-.618z" id="path-3"/>
  </defs>
  <g id="RRDefaultHome" fill-rule="evenodd">
    <g id="Users">
      <path id="Container" d="M0 0h46v42H0z"/>
      <mask id="mask-2">
        <use xlink:href="#path-1"/>
      </mask>
      <use id="Mask" fill-rule="nonzero" xlink:href="#path-1"/>
      <g id="Group" mask="url(#mask-2)">
        <g id="🎨Color">
          <path id="Rectangle-Copy" d="M0 0h46v42H0z"/>
        </g>
      </g>
    </g>
    <mask id="mask-4">
      <use xlink:href="#path-3"/>
    </mask>
    <use id="Mask" fill-rule="nonzero" xlink:href="#path-3"/>
  </g>
</svg>
