<svg xmlns="http://www.w3.org/2000/svg" width="32" height="32" viewBox="0 0 32 32">
  <path d="M13.309 19.024h-.794a.404.404 0 0 1-.397-.412V5.744a.405.405 0 0 1 .397-.41h.794m-2.976 7.142h1.785m3.572-7.143a1.785 1.785 0 1 0 3.569 0 1.785 1.785 0 0 0-3.57 0m4.763 4.762a3.21 3.21 0 0 0-2.976-2.38 3.21 3.21 0 0 0-2.976 2.38zm-4.762 6.548a1.784 1.784 0 0 0 2.469 1.65 1.786 1.786 0 1 0-2.47-1.65m4.762 4.762a3.21 3.21 0 0 0-2.976-2.381 3.21 3.21 0 0 0-2.976 2.38zM3.785 10.095a2.38 2.38 0 1 0 4.762 0 2.38 2.38 0 0 0-4.762 0m-1.191 7.143a3.571 3.571 0 1 1 7.143 0z"/>
</svg>
