<svg xmlns="http://www.w3.org/2000/svg" width="32" height="32" viewBox="0 0 32 32">
  <path d="M17.745 25.365h-1.058a.54.54 0 0 1-.53-.55V7.66a.54.54 0 0 1 .54-.548h1.048m-3.968 9.523h2.38m4.763-9.524a2.38 2.38 0 0 0 2.38 2.381 2.382 2.382 0 1 0-2.38-2.38m6.349 6.348a4.28 4.28 0 0 0-3.969-3.174 4.28 4.28 0 0 0-3.97 3.174zm-6.349 8.73a2.38 2.38 0 0 0 2.38 2.382 2.382 2.382 0 1 0-2.38-2.381m6.349 6.349a4.28 4.28 0 0 0-3.97-3.175 4.285 4.285 0 0 0-3.97 3.175zM5.046 13.46a3.175 3.175 0 1 0 6.35 0 3.175 3.175 0 0 0-6.35 0m-1.587 9.524a4.761 4.761 0 1 1 9.524 0z"/>
</svg>
