<?xml version="1.0" encoding="UTF-8"?>
<svg viewBox="0 0 32 32" xmlns="http://www.w3.org/2000/svg">
  <title>
    routes_32x32
  </title>
  <g>
    <path d="M16.001 25H7.13c-2.633 0-4.768-2.09-4.768-4.667s2.135-4.666 4.768-4.666h18.42c3.01 0 5.449-2.388 5.449-5.334C31 7.388 28.56 5 25.551 5H11.97v1.333h13.583c2.257 0 4.086 1.791 4.086 4 0 2.21-1.83 4-4.086 4H7.13c-3.386 0-6.13 2.687-6.13 6 0 3.314 2.744 6 6.13 6H16V29l4.017-3.287L16 22.333V25z"/>
    <path d="M5.5 10a4.5 4.5 0 1 0 0-9 4.5 4.5 0 0 0 0 9zm0-7.714a3.214 3.214 0 1 1 0 6.428 3.214 3.214 0 0 1 0-6.428zM26.5 22a4.5 4.5 0 1 0 0 9 4.5 4.5 0 0 0 0-9zm0 7.714a3.214 3.214 0 1 1 0-6.428 3.214 3.214 0 0 1 0 6.428z"/>
  </g>
</svg>
