<?xml version="1.0" encoding="UTF-8"?>
<svg viewBox="0 0 32 32" xmlns="http://www.w3.org/2000/svg">
  <title>
    satellite_32x32
  </title>
  <g>
    <path d="M27.606 12.244a1.365 1.365 0 0 0-.01-1.927l-5.974-5.92a1.356 1.356 0 0 0-.961-.395c-.37-.022-.73.128-.973.406L9.347 14.873a9.783 9.783 0 0 0-7.884 2.223 1.342 1.342 0 0 0-.462.963 1.39 1.39 0 0 0 .403 1.032l5.26 5.255-4.818 4.822.96.955 4.815-4.82 5.298 5.292c.26.26.612.405.98.405l.055-.001c.372-.014.72-.182.964-.463a9.764 9.764 0 0 0 2.246-7.753l10.442-10.539zM13.898 30L2 18.099a8.56 8.56 0 0 1 11.582.324A8.555 8.555 0 0 1 13.898 30zm.806-12.77A9.447 9.447 0 0 0 11 14.974L20.932 5 27 10.987 17.013 21a9.35 9.35 0 0 0-2.31-3.77z"/>
    <path d="M30.611 22.461L25.101 17l-.93.938 5.505 5.47-3.222 3.271-5.521-5.463-.931.938 5.519 5.46c.248.248.586.387.939.386h.012c.355-.003.695-.147.943-.4l3.21-3.27a1.328 1.328 0 0 0-.014-1.869zM9.893 12l.955-.918L5.34 5.487l3.093-3.169 5.632 5.553.937-.936-5.626-5.547A1.629 1.629 0 0 0 8.416 1a1.342 1.342 0 0 0-.957.406L4.378 4.575a1.31 1.31 0 0 0 .007 1.843L9.893 12z"/>
  </g>
</svg>
