<svg viewBox="0 0 32 32" xmlns="http://www.w3.org/2000/svg">
  <title>
    settings_32x32
  </title>
  <g>
    <g transform="translate(-569 -280)">
      <g transform="translate(100 164)">
        <g transform="translate(469 116)">
          <path d="M31.5 19v-6a.5.5 0 0 0-.5-.5h-2.255a.496.496 0 0 1-.473-.356 12.536 12.536 0 0 0-.935-2.265.495.495 0 0 1 .083-.585l1.593-1.593a.5.5 0 0 0 0-.707l-4.008-4.007a.5.5 0 0 0-.707 0L22.706 4.58a.494.494 0 0 1-.585.083 12.507 12.507 0 0 0-2.265-.935.496.496 0 0 1-.356-.473V1.354c0-.558-.298-.854-.667-.854H13a.5.5 0 0 0-.5.5v2.255c0 .22-.146.409-.356.473-.791.24-1.548.552-2.265.935a.494.494 0 0 1-.585-.083L7.952 3.238c-.394-.394-.815-.393-1.076-.133L2.988 6.994a.499.499 0 0 0 0 .707L4.58 9.294a.495.495 0 0 1 .083.585 12.536 12.536 0 0 0-.935 2.265.496.496 0 0 1-.473.356H1a.5.5 0 0 0-.5.5v6a.5.5 0 0 0 .5.5h2.255c.22 0 .409.146.473.356.239.79.553 1.548.935 2.265a.495.495 0 0 1-.083.585l-1.592 1.593a.499.499 0 0 0 0 .707l4.007 4.007a.5.5 0 0 0 .707 0l1.592-1.593a.494.494 0 0 1 .585-.083c.717.383 1.474.695 2.265.935.21.064.356.253.356.473v1.901c0 .558.298.854.667.854H19a.5.5 0 0 0 .5-.5v-2.255c0-.22.146-.409.356-.473.791-.24 1.549-.552 2.265-.935a.494.494 0 0 1 .585.083l1.342 1.342c.394.394.815.393 1.076.133l3.889-3.889a.5.5 0 0 0 0-.707l-1.593-1.593a.495.495 0 0 1-.083-.585c.382-.717.696-1.475.935-2.265a.496.496 0 0 1 .473-.356H31a.5.5 0 0 0 .5-.5z"/>
          <path d="M22.5 16a6.5 6.5 0 1 1-13 0 6.5 6.5 0 0 1 13 0z"/>
        </g>
      </g>
    </g>
  </g>
</svg>
