<?xml version="1.0" encoding="UTF-8"?>
<svg viewBox="0 0 32 32" xmlns="http://www.w3.org/2000/svg">
  <title>
    traffic_32x32
  </title>
  <rect x="10.583" y=".5" width="11.833" height="25.35" rx=".5"/>
  <path d="M19.5 5.425a2.994 2.994 0 0 1-3 2.987c-1.659 0-3-1.339-3-2.987a2.994 2.994 0 0 1 3-2.987c1.659 0 3 1.339 3 2.987zm0 8.138a2.994 2.994 0 0 1-3 2.987c-1.659 0-3-1.34-3-2.988a2.994 2.994 0 0 1 3-2.987c1.659 0 3 1.34 3 2.988zm0 8.137a2.994 2.994 0 0 1-3 2.988c-1.659 0-3-1.34-3-2.988a2.994 2.994 0 0 1 3-2.988c1.659 0 3 1.34 3 2.988zM10.583 3.681v-.5h-4.85l-.088.39c-.107.476-.207 1.062-.098 1.709.111.658.43 1.338 1.09 2.024l.013.014.015.013c.067.06.124.115.182.174l.016.015c.052.052.112.111.175.167.151.134.325.254.58.344.459.163 1.163.219 2.465.219h.5V3.681zm0 7.557v-.5h-4.85l-.088.39c-.107.475-.207 1.06-.098 1.708.111.658.43 1.338 1.09 2.024l.013.015.015.013a4.446 4.446 0 0 1 .198.188c.052.052.112.112.175.167.151.134.325.254.58.344.459.163 1.163.22 2.465.22h.5v-4.57zm0 7.556v-.5h-4.85l-.088.39c-.107.476-.207 1.061-.098 1.708.111.658.43 1.338 1.09 2.025l.013.014.015.013c.067.059.124.115.182.173l.016.015c.052.052.112.112.175.167.151.135.325.254.58.344.459.163 1.163.22 2.465.22h.5v-4.57zM22.417 3.681v-.5h4.85l.088.39c.107.476.207 1.062.098 1.709-.111.658-.43 1.338-1.09 2.024l-.013.014-.015.013a4.492 4.492 0 0 0-.198.189 4.472 4.472 0 0 1-.175.167 1.68 1.68 0 0 1-.58.344c-.459.163-1.163.219-2.465.219h-.5V3.681zm0 7.557v-.5h4.85l.088.39c.107.475.207 1.06.098 1.708-.111.658-.43 1.338-1.09 2.024l-.013.015-.015.013a4.457 4.457 0 0 0-.198.188 4.442 4.442 0 0 1-.175.167 1.68 1.68 0 0 1-.58.344c-.459.163-1.163.22-2.465.22h-.5v-4.57zm0 7.556v-.5h4.85l.088.39c.107.476.207 1.061.098 1.708-.111.658-.43 1.338-1.09 2.025l-.013.014-.015.013a4.457 4.457 0 0 0-.182.173l-.016.015c-.052.052-.112.112-.175.167a1.679 1.679 0 0 1-.58.344c-.459.163-1.163.22-2.465.22h-.5v-4.57z"/>
  <rect x="14.833" y="25.85" width="4.111" height="5.65" rx="1"/>
</svg>
