<?xml version="1.0" encoding="UTF-8"?>
<svg viewBox="0 0 32 32" xmlns="http://www.w3.org/2000/svg">
  <title>
    traffic_32x32
  </title>
  <g>
    <path d="M21.97 19.716c0-.117-.014-.234-.043-.348l-2.146-8.445a1.399 1.399 0 0 0-1.354-1.06H4.55a1.4 1.4 0 0 0-1.354 1.06l-2.143 8.434a1.41 1.41 0 0 0-.046.356L1 21.133h.007v5.64c0 .778.626 1.408 1.398 1.409h1.397V31H5.2v-2.818h12.58V31h1.398v-2.818h1.397c.772 0 1.398-.631 1.398-1.41v-7.045h-.003v-.01zm-19.565.011v-.008l2.145-8.446h13.877l2.145 8.445v.01H2.405zm18.172 7.046H2.405v-5.637h18.17v5.637h.002z"/>
    <path d="M30.621 10.436c0-.104-.013-.208-.037-.31l-1.962-7.979a1.32 1.32 0 0 0-1.28-1.01H14.654a1.317 1.317 0 0 0-1.277 1.001L11.622 8.85l1.276.341 1.756-6.72h12.688l1.96 7.97-7.915.03.005 1.333 7.911-.029v5.362H22.71v1.334h3.957v2.666h1.319V18.47h1.318c.729 0 1.319-.597 1.32-1.334v-6.7h-.002z"/>
    <ellipse cx="5.2" cy="23.955" rx="1.398" ry="1.409"/>
    <ellipse cx="17.78" cy="23.955" rx="1.398" ry="1.409"/>
    <ellipse cx="26.564" cy="14.091" rx="1.398" ry="1.409"/>
  </g>
</svg>
