<svg xmlns="http://www.w3.org/2000/svg" viewBox="0 0 15.45 15.42"><title>app_settings_16x16</title><path d="M8,5.59A2.4,2.4,0,1,1,5.59,8,2.4,2.4,0,0,1,8,5.59Zm5.31,1.06a5.44,5.44,0,0,0-.6-1.47l1.17-1.5-.78-.78-.79-.79h0L10.79,3.29a5.44,5.44,0,0,0-1.46-.6L9.1.79H6.88L6.65,2.71a5.44,5.44,0,0,0-1.47.6l-1.5-1.2-.78.78-.79.79h0L3.29,5.19a5.44,5.44,0,0,0-.6,1.46L.76,6.88V9.09h0l1.92.23a5.44,5.44,0,0,0,.6,1.47L2.12,12.3l.78.78.79.79h0l1.51-1.17a5.44,5.44,0,0,0,1.47.6l.23,1.92H9.1l.23-1.92a5.44,5.44,0,0,0,1.47-.6l1.5,1.17.78-.78.79-.79h0l-1.17-1.51a5.44,5.44,0,0,0,.6-1.47l1.92-.23V6.89h0Z" transform="translate(-0.26 -0.29)" fill="none" stroke="#4c6472" stroke-linejoin="round"/></svg>