<svg xmlns="http://www.w3.org/2000/svg" viewBox="0 0 15.98 15.98"><title>qr_code_16x16</title><line x1="10.98" y1="13.48" x2="11.98" y2="13.48" fill="none" stroke="#4c6472" stroke-miterlimit="10"/><line x1="10.98" y1="14.48" x2="12.98" y2="14.48" fill="none" stroke="#4c6472" stroke-miterlimit="10"/><line x1="14.98" y1="14.48" x2="15.98" y2="14.48" fill="none" stroke="#4c6472" stroke-miterlimit="10"/><line x1="13.98" y1="13.48" x2="14.98" y2="13.48" fill="none" stroke="#4c6472" stroke-miterlimit="10"/><line x1="13.98" y1="9.48" x2="14.98" y2="9.48" fill="none" stroke="#4c6472" stroke-miterlimit="10"/><line x1="9.98" y1="15.48" x2="10.98" y2="15.48" fill="none" stroke="#4c6472" stroke-miterlimit="10"/><polyline points="9.48 15.98 9.48 9.48 12.98 9.48" fill="none" stroke="#4c6472" stroke-miterlimit="10"/><line x1="15.48" y1="8.98" x2="15.48" y2="12.98" fill="none" stroke="#4c6472" stroke-miterlimit="10"/><line x1="12.98" y1="10.48" x2="9.98" y2="10.48" fill="none" stroke="#4c6472" stroke-miterlimit="10"/><line x1="12.98" y1="11.48" x2="9.98" y2="11.48" fill="none" stroke="#4c6472" stroke-miterlimit="10"/><line x1="14.98" y1="12.48" x2="11.98" y2="12.48" fill="none" stroke="#4c6472" stroke-miterlimit="10"/><line x1="11.98" y1="15.48" x2="15.98" y2="15.48" fill="none" stroke="#4c6472" stroke-miterlimit="10"/><rect x="0.5" y="0.5" width="5.95" height="5.95" fill="none" stroke="#4c6472" stroke-miterlimit="10"/><rect x="9.5" y="0.5" width="5.95" height="5.95" fill="none" stroke="#4c6472" stroke-miterlimit="10"/><rect x="0.5" y="9.5" width="5.95" height="5.95" fill="none" stroke="#4c6472" stroke-miterlimit="10"/><rect x="2.47" y="2.47" width="2.01" height="2.01" fill="none" stroke="#4c6472" stroke-miterlimit="10"/><rect x="2.47" y="11.47" width="2.01" height="2.01" fill="none" stroke="#4c6472" stroke-miterlimit="10"/><rect x="11.47" y="2.47" width="2.01" height="2.01" fill="none" stroke="#4c6472" stroke-miterlimit="10"/></svg>