<svg id="Layer_1" data-name="Layer 1" xmlns="http://www.w3.org/2000/svg" viewBox="0 0 30.04 20">
  <title>
    rail_yard_32x32
  </title>
  <path stroke-linejoin="round" d="M0 19.5h30m-.46-7H19.4l-2.32 3h-4.12l-2.01-3H.5V.5h29.04v12z"/>
  <circle cx="3" cy="15" r="2.5" stroke-linejoin="round"/>
  <path d="M12.13 18.77A2.5 2.5 0 1 0 13.5 21a1.34 1.34 0 0 0 0-.2m6.82-2.19a2.41 2.41 0 0 1 .68-.11 2.5 2.5 0 1 1-2.5 2.5v-.1" transform="translate(-1 -6)" stroke-linejoin="round"/>
  <circle cx="27.04" cy="15" r="2.5" stroke-linejoin="round"/>
  <path stroke-linejoin="round" d="M6.5 4v5m11.04-5v5M12.5 4v5m11.04-5v5"/>
</svg>
