<svg xmlns="http://www.w3.org/2000/svg" viewBox="0 0 16 16">
  <title>
    _
  </title>
  <g id="Document_PDF">
    <path stroke-linejoin="round" d="M3.5 14v1.5h12v-12l-3-3h-9V7"/>
    <path stroke-linejoin="round" d="M11.5.5v4h4"/>
    <path d="M.4 12.73a.13.13 0 0 1-.15-.15V8.25A.13.13 0 0 1 .4 8.1h1.34c1.49 0 2 .69 2 1.59s-.57 1.62-2 1.62h-.43v1.27a.13.13 0 0 1-.15.15zm.91-2.26h.49c.65 0 .86-.35.86-.78s-.21-.78-.86-.78h-.49zm3.74 2.26a.13.13 0 0 1-.15-.15V8.25a.13.13 0 0 1 .15-.15h1.63a2.11 2.11 0 0 1 2.26 2.32 2.13 2.13 0 0 1-2.26 2.32zM6 8.91v3h.64c.91 0 1.22-.71 1.22-1.51s-.34-1.49-1.25-1.49zm4.3 3.82a.13.13 0 0 1-.15-.15V8.25a.13.13 0 0 1 .15-.15H13a.13.13 0 0 1 .15.15v.52a.13.13 0 0 1-.15.15h-1.79v1.16h1.5a.13.13 0 0 1 .15.15v.52a.13.13 0 0 1-.15.15h-1.5v1.67a.13.13 0 0 1-.15.15z"/>
  </g>
</svg>
