<svg xmlns="http://www.w3.org/2000/svg" viewBox="0 0 16 16">
  <title>
    _
  </title>
  <g id="Document_Word">
    <path stroke-linejoin="round" d="M1.5 15.5h13v-12l-3-3h-10v15z"/>
    <path stroke-linejoin="round" d="M10.5.5v4h4"/>
    <path d="M11.58 7.66c.13 0 .16.06.16.14a.64.64 0 0 1 0 .12 29.45 29.45 0 0 1-1.45 4.88.24.24 0 0 1-.29.2h-.71a.23.23 0 0 1-.29-.21 19.54 19.54 0 0 1-1-3.37 19.54 19.54 0 0 1-1 3.37.23.23 0 0 1-.24.16H6a.24.24 0 0 1-.25-.16 29.45 29.45 0 0 1-1.48-4.87.72.72 0 0 1 0-.12c0-.08 0-.14.16-.14h.87a.18.18 0 0 1 .21.18 28.83 28.83 0 0 0 .93 3.81 23.76 23.76 0 0 0 1-3.81.18.18 0 0 1 .21-.18h.74a.18.18 0 0 1 .21.18 24.81 24.81 0 0 0 1.06 3.81 25.62 25.62 0 0 0 .86-3.81.18.18 0 0 1 .21-.18z"/>
  </g>
</svg>
