<svg xmlns="http://www.w3.org/2000/svg" viewBox="0 0 16 16">
  <title>
    _
  </title>
  <g id="Document_Excel">
    <path stroke-linejoin="round" d="M3.5 14v1.5h12v-12l-3-3h-9V7"/>
    <path stroke-linejoin="round" d="M11.5.5v4h4"/>
    <path d="M.31 12.73c-.08 0-.11 0-.11-.1a.23.23 0 0 1 0-.06 8.41 8.41 0 0 1 1.41-2.21A8.8 8.8 0 0 1 .38 8.29a.32.32 0 0 1 0-.1c0-.06 0-.08.12-.08h.82a.19.19 0 0 1 .21.15 5.79 5.79 0 0 0 .78 1.38 6.52 6.52 0 0 0 .77-1.38.19.19 0 0 1 .22-.15H4c.08 0 .12 0 .12.08a.21.21 0 0 1 0 .06 7.74 7.74 0 0 1-1.27 2.05 9.4 9.4 0 0 1 1.39 2.26.2.2 0 0 1 0 .08c0 .06 0 .1-.13.1h-.76a.2.2 0 0 1-.22-.15 6.33 6.33 0 0 0-1-1.56 6.81 6.81 0 0 0-.92 1.57.19.19 0 0 1-.22.15zm5.17 0a.13.13 0 0 1-.15-.15V8.25a.13.13 0 0 1 .15-.15h.76a.13.13 0 0 1 .15.15v3.61h1.69a.13.13 0 0 1 .15.15v.56a.13.13 0 0 1-.15.15zm5.35.07a2.8 2.8 0 0 1-1.6-.45.14.14 0 0 1 0-.22l.32-.53c.06-.09.12-.1.2 0a1.93 1.93 0 0 0 1.16.36c.49 0 .77-.15.77-.48s-.29-.48-.76-.59c-.62-.15-1.65-.33-1.65-1.41C9.23 8.54 10 8 11.09 8a2.68 2.68 0 0 1 1.4.34.15.15 0 0 1 .06.22l-.29.53c0 .1-.11.11-.2 0a1.85 1.85 0 0 0-1-.28c-.56 0-.75.21-.75.5s.32.44.76.55c.84.2 1.65.41 1.65 1.4S12 12.8 10.83 12.8z"/>
  </g>
</svg>
