<svg id="Layer_1" data-name="Layer 1" xmlns="http://www.w3.org/2000/svg" viewBox="0 0 19 16">
  <title>
    _
  </title>
  <path d="M0 6.07a1.06 1.06 0 0 1 0-.17c0-.09.05-.14.18-.14h1c.14 0 .2.05.23.2a15.54 15.54 0 0 0 .88 3 16.55 16.55 0 0 0 .88-3c0-.14.09-.2.23-.2h.77c.12 0 .18.05.18.14a1.06 1.06 0 0 1 0 .17A17.43 17.43 0 0 1 3.33 9a8 8 0 0 1-1.9 2.94.24.24 0 0 1-.15.06.2.2 0 0 1-.14-.06l-.47-.44a.19.19 0 0 1-.07-.13.2.2 0 0 1 .07-.14 5.24 5.24 0 0 0 .85-1.05A16.79 16.79 0 0 1 0 6.07z"/>
  <path stroke-linejoin="round" d="M9 7.5h1.5l1 4 2.5-8h5m-4.5 3l4 4m0-4l-4 4M5 7.5h3m-3 2h3"/>
</svg>
