<svg width="16" height="16" viewBox="0 0 16 16" fill="none" xmlns="http://www.w3.org/2000/svg">
<path d="M13.1 2V3.3V3.8H12.6H10.6H10.1V3.3V2H6.79998V3.3V3.8H6.29998H4.29998H3.79998V3.3V2H1.59998V16H15.6V2H13.1ZM14.2428 14.9429H2.65712V5.7H14.2428V14.9429Z" fill="url(#paint0_linear_339_294)"/>
<path d="M4.29993 0V2V3.3H6.29993V2V0H4.29993Z" fill="#1589EE"/>
<path d="M10.6 0V2V3.3H12.6V2V0H10.6Z" fill="#1589EE"/>
<path d="M11.0196 9.4992C9.91367 9.23106 9.05488 8.37228 8.78675 7.26635C8.72375 7.00683 8.65026 6.85742 8.57138 6.85742C8.4925 6.85742 8.41873 7.00683 8.35601 7.26635C8.08787 8.37228 7.22909 9.23106 6.12317 9.4992C5.86365 9.56219 5.71423 9.63569 5.71423 9.71456C5.71423 9.79344 5.86365 9.86721 6.12317 9.92993C7.22909 10.1981 8.08787 11.0569 8.35601 12.1628C8.419 12.4223 8.4925 12.5717 8.57138 12.5717C8.65026 12.5717 8.72402 12.4223 8.78675 12.1628C9.05488 11.0569 9.91367 10.1981 11.0196 9.92993C11.2791 9.86694 11.4285 9.79344 11.4285 9.71456C11.4285 9.63569 11.2791 9.56192 11.0196 9.4992Z" fill="url(#paint1_linear_339_294)"/>
<defs>
<linearGradient id="paint0_linear_339_294" x1="8.59998" y1="2" x2="8.59998" y2="16" gradientUnits="userSpaceOnUse">
<stop stop-color="#008BF0"/>
<stop offset="1" stop-color="#A63DCB"/>
</linearGradient>
<linearGradient id="paint1_linear_339_294" x1="8.57138" y1="6.85742" x2="8.57138" y2="12.5717" gradientUnits="userSpaceOnUse">
<stop stop-color="#008BF0"/>
<stop offset="1" stop-color="#A63DCB"/>
</linearGradient>
</defs>
</svg>
