<?xml version="1.0" encoding="UTF-8"?>
<svg width="16" height="16" viewBox="0 0 16 16" fill="none" xmlns="http://www.w3.org/2000/svg" xmlns:xlink="http://www.w3.org/1999/xlink">
  <title>at_symbol_16x16</title>
  <path d="M12.5666 7.592C12.5666 8.016 12.5106 8.4 12.3986 8.744C12.2946 9.08 12.1426 9.364 11.9426 9.596C11.7506 9.828 11.5186 10.008 11.2466 10.136C10.9746 10.256 10.6786 10.316 10.3586 10.316C10.0546 10.316 9.78256 10.256 9.54256 10.136C9.31056 10.016 9.13856 9.824 9.02656 9.56C8.81856 9.8 8.59856 9.988 8.36656 10.124C8.14256 10.252 7.87856 10.316 7.57456 10.316C7.06256 10.316 6.64256 10.124 6.31456 9.74C5.99456 9.348 5.83456 8.788 5.83456 8.06C5.83456 7.7 5.88256 7.376 5.97856 7.088C6.08256 6.8 6.21856 6.56 6.38656 6.368C6.56256 6.168 6.76256 6.016 6.98656 5.912C7.21056 5.8 7.44656 5.744 7.69456 5.744C7.93456 5.744 8.15856 5.796 8.36656 5.9C8.58256 5.996 8.78256 6.132 8.96656 6.308V6.044C8.96656 5.9 9.03856 5.828 9.18256 5.828H9.55456C9.69856 5.828 9.77056 5.9 9.77056 6.044V8.852C9.77056 9.436 10.0066 9.728 10.4786 9.728C10.6786 9.728 10.8626 9.68 11.0306 9.584C11.2066 9.48 11.3586 9.34 11.4866 9.164C11.6226 8.98 11.7266 8.76 11.7986 8.504C11.8786 8.24 11.9186 7.944 11.9186 7.616C11.9186 7.024 11.8226 6.496 11.6306 6.032C11.4386 5.56 11.1706 5.16 10.8266 4.832C10.4906 4.504 10.0906 4.256 9.62656 4.088C9.16256 3.912 8.65456 3.824 8.10256 3.824C7.54256 3.824 7.01856 3.924 6.53056 4.124C6.05056 4.316 5.63056 4.596 5.27056 4.964C4.91056 5.324 4.62656 5.764 4.41856 6.284C4.21056 6.804 4.10656 7.392 4.10656 8.048C4.10656 8.736 4.21056 9.344 4.41856 9.872C4.63456 10.392 4.92656 10.828 5.29456 11.18C5.66256 11.54 6.09056 11.812 6.57856 11.996C7.06656 12.18 7.58256 12.272 8.12656 12.272C8.54256 12.272 8.92656 12.228 9.27856 12.14C9.63056 12.052 9.93856 11.948 10.2026 11.828C10.3306 11.772 10.4226 11.804 10.4786 11.924L10.5506 12.068C10.6066 12.196 10.5706 12.288 10.4426 12.344C10.1226 12.488 9.77456 12.608 9.39856 12.704C9.03056 12.8 8.59856 12.848 8.10256 12.848C7.43856 12.848 6.82256 12.736 6.25456 12.512C5.68656 12.288 5.19056 11.968 4.76656 11.552C4.35056 11.136 4.02256 10.632 3.78256 10.04C3.54256 9.448 3.42256 8.784 3.42256 8.048C3.42256 7.352 3.53856 6.712 3.77056 6.128C4.00256 5.536 4.32656 5.028 4.74256 4.604C5.15856 4.172 5.65056 3.84 6.21856 3.608C6.79456 3.368 7.42256 3.248 8.10256 3.248C8.75056 3.248 9.34656 3.356 9.89056 3.572C10.4426 3.78 10.9146 4.076 11.3066 4.46C11.7066 4.836 12.0146 5.292 12.2306 5.828C12.4546 6.356 12.5666 6.944 12.5666 7.592ZM7.75456 9.608C7.96256 9.608 8.16256 9.552 8.35456 9.44C8.54656 9.32 8.73456 9.156 8.91856 8.948V7.004C8.75056 6.82 8.58256 6.68 8.41456 6.584C8.25456 6.488 8.07056 6.44 7.86256 6.44C7.53456 6.44 7.26256 6.58 7.04656 6.86C6.83056 7.132 6.72256 7.528 6.72256 8.048C6.72256 8.6 6.82256 9 7.02256 9.248C7.23056 9.488 7.47456 9.608 7.75456 9.608Z"/>
</svg>
