<?xml version="1.0" encoding="UTF-8"?>
<svg width="16" height="16" viewBox="0 0 16 16" fill="none" xmlns="http://www.w3.org/2000/svg" xmlns:xlink="http://www.w3.org/1999/xlink">
  <title>at_symbol_16x16</title>
  <path d="M8.51104 15C7.61347 15 6.77108 14.8309 5.98387 14.4928C5.19666 14.1547 4.50325 13.6872 3.90365 13.0904C3.30773 12.4969 2.84055 11.8069 2.50212 11.0203C2.16737 10.2337 2 9.39358 2 8.5C2 7.59952 2.16737 6.75597 2.50212 5.96935C2.84055 5.18272 3.30773 4.4927 3.90365 3.89928C4.50325 3.30587 5.19666 2.84183 5.98387 2.50717C6.77108 2.16906 7.61347 2 8.51104 2C9.40492 2 10.2436 2.16906 11.0272 2.50717C11.8107 2.84183 12.5004 3.30587 13.0963 3.89928C13.6923 4.4927 14.1576 5.18272 14.4924 5.96935C14.8308 6.75597 15 7.59952 15 8.5C15 8.96922 14.9338 9.40393 14.8014 9.80414C14.6689 10.2044 14.4813 10.5545 14.2385 10.8547C13.9994 11.1514 13.7162 11.3826 13.3888 11.5482C13.0614 11.7103 12.7009 11.7914 12.3073 11.7914C12.013 11.7914 11.7776 11.7414 11.601 11.6413C11.4281 11.5378 11.3031 11.3705 11.2258 11.1393C11.1522 10.9047 11.1154 10.5908 11.1154 10.1975H11.0713C10.8947 10.5425 10.6685 10.8461 10.3926 11.1083C10.1167 11.367 9.80589 11.5706 9.4601 11.719C9.11432 11.8639 8.74646 11.9363 8.35654 11.9363C7.92247 11.9363 7.51415 11.8483 7.13158 11.6724C6.75269 11.493 6.41978 11.2463 6.13285 10.9323C5.8496 10.6184 5.62705 10.2544 5.4652 9.84037C5.30334 9.4229 5.22241 8.97612 5.22241 8.5C5.22241 8.02389 5.30334 7.57882 5.4652 7.16481C5.62705 6.74735 5.8496 6.38164 6.13285 6.06768C6.41978 5.75372 6.75269 5.50876 7.13158 5.3328C7.51415 5.1534 7.92247 5.06369 8.35654 5.06369C8.74646 5.06369 9.11432 5.13787 9.4601 5.28623C9.80589 5.43113 10.1167 5.63641 10.3926 5.90207C10.6685 6.16428 10.8947 6.47134 11.0713 6.82325H11.1154V5.1672H11.4686V10.1975C11.4686 10.7046 11.5256 11.0427 11.6396 11.2118C11.7537 11.3774 11.9762 11.4602 12.3073 11.4602C12.7561 11.4602 13.157 11.3325 13.5102 11.0772C13.8633 10.8185 14.1411 10.4666 14.3434 10.0215C14.5457 9.57298 14.6469 9.06582 14.6469 8.5C14.6469 7.81688 14.542 7.16653 14.3323 6.54897C14.1263 5.9314 13.8357 5.3673 13.4605 4.85669C13.0853 4.34262 12.642 3.89756 12.1307 3.5215C11.6194 3.14199 11.0566 2.84873 10.4423 2.64172C9.83164 2.43471 9.18789 2.33121 8.51104 2.33121C7.66129 2.33121 6.86488 2.49164 6.12182 2.8125C5.37875 3.12991 4.72397 3.57152 4.15747 4.13734C3.59465 4.69971 3.15323 5.3535 2.83319 6.09873C2.51316 6.84395 2.35314 7.64437 2.35314 8.5C2.35314 9.35218 2.51316 10.1526 2.83319 10.9013C3.15323 11.6465 3.59465 12.3003 4.15747 12.8627C4.72397 13.4285 5.37875 13.8701 6.12182 14.1875C6.86488 14.5084 7.66129 14.6688 8.51104 14.6688C8.91568 14.6688 9.31112 14.6291 9.69737 14.5498C10.0873 14.4739 10.4625 14.36 10.823 14.2082C11.1872 14.0598 11.5348 13.8753 11.8659 13.6545L12.0866 13.9236C11.7334 14.1582 11.3619 14.3548 10.972 14.5135C10.5857 14.6757 10.1848 14.7964 9.7691 14.8758C9.3571 14.9586 8.93775 15 8.51104 15ZM8.35654 11.6051C8.86785 11.6051 9.33135 11.4671 9.74703 11.1911C10.1627 10.9116 10.4938 10.5373 10.7402 10.0681C10.9904 9.59886 11.1154 9.07617 11.1154 8.5C11.1154 7.92728 10.9904 7.40632 10.7402 6.9371C10.4938 6.46789 10.1609 6.09355 9.74151 5.81409C9.32583 5.53463 8.86418 5.3949 8.35654 5.3949C7.8489 5.3949 7.38356 5.53463 6.96053 5.81409C6.54117 6.09355 6.20458 6.46789 5.95076 6.9371C5.70062 7.40632 5.57555 7.92728 5.57555 8.5C5.57555 9.07272 5.70062 9.59368 5.95076 10.0629C6.20458 10.5321 6.54117 10.9064 6.96053 11.1859C7.38356 11.4654 7.8489 11.6051 8.35654 11.6051Z" fill="black"/>
</svg>
