<svg width="16" height="16" viewBox="0 0 16 16" fill="none" xmlns="http://www.w3.org/2000/svg">
<path fill-rule="evenodd" clip-rule="evenodd" d="M5.5 0.875C2.75 0.875 0.5 3.125 0.5 5.875C0.5 8.625 2.75 10.875 5.5 10.875C8.25 10.875 10.5 8.625 10.5 5.875C10.5 3.125 8.25 0.875 5.5 0.875ZM5.49992 5.93758V3.37508H4.87492V6.50008C4.87492 6.62508 4.93742 6.68758 4.99992 6.75008C5.03117 6.75008 5.06242 6.7657 5.09367 6.78133C5.12492 6.79695 5.15617 6.81258 5.18742 6.81258C5.24992 6.81258 5.31242 6.81258 5.31242 6.75008L7.49992 5.50008L7.18742 4.93758L5.49992 5.93758ZM1.12492 5.87508C1.12492 8.31258 3.06242 10.2501 5.49992 10.2501C7.93742 10.2501 9.87492 8.31258 9.87492 5.87508C9.87492 3.43758 7.93742 1.50008 5.49992 1.50008C3.06242 1.50008 1.12492 3.43758 1.12492 5.87508Z" fill="#4C6472"/>
<path fill-rule="evenodd" clip-rule="evenodd" d="M15.6595 14.8139L11.9768 8.26971C11.8973 8.08425 11.7118 7.97827 11.4999 7.97827C11.2879 7.97827 11.1025 8.08425 11.023 8.26971L7.34023 14.8139C7.23425 14.9993 7.23425 15.2113 7.34023 15.3967C7.4462 15.5822 7.63167 15.6617 7.81713 15.6617H15.1826C15.3946 15.6617 15.5535 15.5557 15.6595 15.3967C15.7655 15.2113 15.7655 14.9993 15.6595 14.8139ZM12.2682 10.9457C12.2417 10.9192 12.2153 10.8927 12.1623 10.8927H10.8375C10.811 10.8927 10.7581 10.9192 10.7316 10.9457C10.7051 10.9722 10.7051 10.9987 10.7051 11.0252L10.917 13.1447C10.917 13.2242 10.97 13.2772 11.0495 13.2772H11.9238C11.9768 13.2772 12.0563 13.2242 12.0563 13.1447L12.2682 11.0252C12.2947 10.9987 12.2947 10.9722 12.2682 10.9457ZM11.1027 13.5422H11.8975C11.977 13.5422 12.03 13.5952 12.03 13.6747V14.4695C12.03 14.549 11.977 14.602 11.8975 14.602H11.1027C11.0232 14.602 10.9702 14.549 10.9702 14.4695V13.6747C10.9702 13.5952 11.0232 13.5422 11.1027 13.5422ZM11.2351 14.337H11.765V13.8071H11.2351V14.337ZM11.1821 13.0122H11.818L12.03 11.1576H10.9702L11.1821 13.0122ZM15.1563 15.3967C15.2623 15.3967 15.3683 15.3437 15.4212 15.2642C15.4742 15.1583 15.4742 15.0258 15.4477 14.9463L11.765 8.40214C11.712 8.29617 11.606 8.24318 11.5 8.24318C11.3941 8.24318 11.2881 8.29617 11.2351 8.40214L7.55236 14.9463C7.49937 15.0523 7.49937 15.1583 7.55236 15.2642C7.60534 15.3437 7.71132 15.3967 7.8173 15.3967H15.1563Z" fill="white"/>
<path d="M15.6595 14.8139L15.4416 14.9365L15.4425 14.9379L15.6595 14.8139ZM11.9768 8.26971L11.747 8.36819L11.7523 8.38058L11.7589 8.39232L11.9768 8.26971ZM15.6595 15.3967L15.8675 15.5354L15.8723 15.5283L15.8766 15.5208L15.6595 15.3967ZM7.34023 15.3967L7.55729 15.2727L7.34023 15.3967ZM7.34023 14.8139L7.55729 14.9379L7.5581 14.9365L7.34023 14.8139ZM11.023 8.26971L11.2408 8.39232L11.2474 8.38058L11.2528 8.36819L11.023 8.26971ZM15.4212 15.2642L15.6293 15.4029L15.6379 15.39L15.6448 15.376L15.4212 15.2642ZM15.4477 14.9463L15.6849 14.8672L15.6773 14.8445L15.6656 14.8237L15.4477 14.9463ZM11.765 8.40214L11.5411 8.51408L11.5471 8.52475L11.765 8.40214ZM11.2351 8.40214L11.4532 8.5249L11.4587 8.51395L11.2351 8.40214ZM7.55236 14.9463L7.33422 14.8235L7.32875 14.8345L7.55236 14.9463ZM7.55236 15.2642L7.32875 15.376L7.33571 15.39L7.34434 15.4029L7.55236 15.2642ZM15.8774 14.6913L12.1946 8.1471L11.7589 8.39232L15.4416 14.9365L15.8774 14.6913ZM15.8766 15.5208C16.0265 15.2585 16.0265 14.9522 15.8766 14.6898L15.4425 14.9379C15.5045 15.0465 15.5045 15.1641 15.4425 15.2727L15.8766 15.5208ZM15.1826 15.9117C15.4915 15.9117 15.7231 15.752 15.8675 15.5354L15.4515 15.2581C15.3839 15.3594 15.2976 15.4117 15.1826 15.4117V15.9117ZM7.81713 15.9117H15.1826V15.4117H7.81713V15.9117ZM7.12317 15.5208C7.28215 15.799 7.5605 15.9117 7.81713 15.9117V15.4117C7.70283 15.4117 7.61026 15.3654 7.55729 15.2727L7.12317 15.5208ZM7.12317 14.6898C6.97327 14.9522 6.97327 15.2585 7.12317 15.5208L7.55729 15.2727C7.49523 15.1641 7.49523 15.0465 7.55729 14.9379L7.12317 14.6898ZM10.8051 8.1471L7.12236 14.6913L7.5581 14.9365L11.2408 8.39232L10.8051 8.1471ZM11.4999 7.72827C11.2054 7.72827 10.9185 7.87875 10.7932 8.17123L11.2528 8.36819C11.2864 8.28975 11.3704 8.22827 11.4999 8.22827V7.72827ZM12.2066 8.17123C12.0812 7.87875 11.7943 7.72827 11.4999 7.72827V8.22827C11.6293 8.22827 11.7134 8.28975 11.747 8.36819L12.2066 8.17123ZM15.2132 15.1256C15.2145 15.1236 15.2107 15.1297 15.1968 15.1367C15.1835 15.1434 15.1686 15.1467 15.1563 15.1467V15.6467C15.3351 15.6467 15.5242 15.5604 15.6293 15.4029L15.2132 15.1256ZM15.2106 15.0254C15.212 15.0296 15.2165 15.05 15.2147 15.0807C15.213 15.1101 15.2061 15.1354 15.1976 15.1524L15.6448 15.376C15.7294 15.2069 15.731 15.0054 15.6849 14.8672L15.2106 15.0254ZM11.5471 8.52475L15.2299 15.0689L15.6656 14.8237L11.9829 8.27954L11.5471 8.52475ZM11.5 8.49318C11.512 8.49318 11.5218 8.49626 11.5284 8.49998C11.5338 8.50312 11.538 8.5071 11.5414 8.51395L11.9886 8.29034C11.8874 8.08794 11.6869 7.99318 11.5 7.99318V8.49318ZM11.4587 8.51395C11.4621 8.5071 11.4662 8.50312 11.4717 8.49998C11.4783 8.49626 11.4881 8.49318 11.5 8.49318V7.99318C11.3132 7.99318 11.1127 8.08794 11.0115 8.29034L11.4587 8.51395ZM7.77023 15.0689L11.453 8.52475L11.0172 8.27954L7.33449 14.8237L7.77023 15.0689ZM7.77596 15.1524C7.75816 15.1168 7.75816 15.0937 7.77596 15.0581L7.32875 14.8345C7.24057 15.0109 7.24057 15.1997 7.32875 15.376L7.77596 15.1524ZM7.8173 15.1467C7.805 15.1467 7.79013 15.1434 7.77676 15.1367C7.76291 15.1297 7.75905 15.1236 7.76037 15.1256L7.34434 15.4029C7.44937 15.5604 7.6385 15.6467 7.8173 15.6467V15.1467ZM15.1563 15.1467H7.8173V15.6467H15.1563V15.1467Z" fill="#B40000"/>
</svg>