<svg width="12" height="13" viewBox="0 0 12 13" fill="none" xmlns="http://www.w3.org/2000/svg">
<path d="M9 0.5C8.66862 0.5 8.4 0.768632 8.4 1.1C8.4 1.43137 8.66862 1.7 9 1.7H9.95148L7.37574 4.27573C7.14144 4.51005 7.14144 4.88995 7.37574 5.12427C7.61004 5.35856 7.98996 5.35856 8.22426 5.12427L10.8 2.54853V3.50001C10.8 3.83137 11.0686 4.1 11.4 4.1C11.7314 4.1 12 3.83137 12 3.5V1.1C12 0.768632 11.7314 0.5 11.4 0.5H9ZM1.2 10.4515V9.5C1.2 9.16862 0.931368 8.9 0.6 8.9C0.268626 8.9 0 9.16862 0 9.5V11.9C0 12.2314 0.268632 12.5 0.6 12.5H3C3.33137 12.5 3.6 12.2314 3.6 11.9C3.6 11.5686 3.33137 11.3 3 11.3H2.04853L4.62427 8.72426C4.85856 8.48996 4.85856 8.11004 4.62427 7.87574C4.38995 7.64144 4.01005 7.64144 3.77573 7.87574L1.2 10.4515Z" fill="white"/>
</svg>
