<svg width="16" height="16" viewBox="0 0 16 16" fill="none" xmlns="http://www.w3.org/2000/svg">
<path d="M14 5.47456H8.6294L2.68486 5.47456L5.5 2.64271L5.33 2.24146L2.08978 5.42199C1.97007 5.54811 1.97007 5.7373 2.08978 5.86343L5.33 9.04271L5.5 8.64271L4.5 7.64271L2.68486 5.86343L8.6294 5.7916H14V5.47456Z" fill="#23343F"/>
<path d="M14 5.47456H8.6294L2.68486 5.47456L5.5 2.64271L5.33 2.24146L2.08978 5.42199C1.97007 5.54811 1.97007 5.7373 2.08978 5.86343L5.33 9.04271L5.5 8.64271L4.5 7.64271L2.68486 5.86343L8.6294 5.7916H14V5.47456Z" fill="#23343F"/>
<path d="M2 10.5681H7.3706H13.3151L10.5 13.4L10.67 13.8012L13.9102 10.6207C14.0299 10.4946 14.0299 10.3054 13.9102 10.1793L10.67 7L10.5 7.4L11.5 8.4L13.3151 10.1793L7.3706 10.2511H2V10.5681Z" fill="#23343F"/>
</svg>
