<svg width="16" height="16" viewBox="0 0 16 16" fill="none" xmlns="http://www.w3.org/2000/svg">
<path fill-rule="evenodd" clip-rule="evenodd" d="M5.5 0.875C2.75 0.875 0.5 3.125 0.5 5.875C0.5 8.625 2.75 10.875 5.5 10.875C8.25 10.875 10.5 8.625 10.5 5.875C10.5 3.125 8.25 0.875 5.5 0.875ZM5.49992 5.93758V3.37508H4.87492V6.50008C4.87492 6.62508 4.93742 6.68758 4.99992 6.75008C5.03117 6.75008 5.06242 6.7657 5.09367 6.78133C5.12492 6.79695 5.15617 6.81258 5.18742 6.81258C5.24992 6.81258 5.31242 6.81258 5.31242 6.75008L7.49992 5.50008L7.18742 4.93758L5.49992 5.93758ZM1.12492 5.87508C1.12492 8.31258 3.06242 10.2501 5.49992 10.2501C7.93742 10.2501 9.87492 8.31258 9.87492 5.87508C9.87492 3.43758 7.93742 1.50008 5.49992 1.50008C3.06242 1.50008 1.12492 3.43758 1.12492 5.87508Z" fill="#4C6472"/>
<path fill-rule="evenodd" clip-rule="evenodd" d="M15.1 8.1C15.15 8.05 15.25 8.05 15.35 8.1C15.45 8.15 15.5 8.25 15.5 8.35V11.5C15.5 11.6 15.45 11.65 15.4 11.7C14.5 12.3 13.75 12.5 13.1 12.5C12.4 12.5 11.8 12.25 11.25 12C10.5 11.7 9.85 11.45 9 11.9V15.5H8.5V7.5H9V8.2C9.95 7.8 10.7 8.1 11.45 8.4C12.4 8.8 13.4 9.2 15.1 8.1ZM11.45 11.5501C12.4 11.9501 13.4 12.3501 15 11.3501V8.75006C13.3 9.70006 12.2 9.25006 11.25 8.85006C10.5 8.55006 9.85 8.30006 9 8.75006V11.3501C9.95 10.9501 10.7 11.2501 11.45 11.5501Z" fill="#4C6472"/>
</svg>
