<svg version="1.1" viewBox="0 0 32 32"  height="32px" width="32px" fill="none" stroke="black"><g id="administration"><path class="stroke" style="fill:none;stroke:currentColor;stroke-linejoin:round;stroke-width:1px;" d="M21.7,25.5l3,2.3l1.6-1.6l1.6-1.6l0,0l-2.3-3c0.5-0.9,1-1.9,1.2-2.9l3.8-0.5v-2.2v-2.2v0l-3.8-0.5c-0.3-1-0.7-2-1.2-2.9l2.3-3l-1.6-1.6l-1.6-1.6l0,0l-3,2.3c-0.9-0.5-1.9-1-2.9-1.2l-0.5-3.8h-2.2h-2.2h0l-0.5,3.8c-1,0.3-2,0.7-2.9,1.2l-3-2.3L5.8,5.8L4.3,7.4l0,0l2.3,3c-0.5,0.9-1,1.9-1.2,2.9l-3.8,0.5V16v2.2v0l3.8,0.5c0.3,1,0.7,2,1.2,2.9l-2.3,3l1.6,1.6l1.6,1.6l0,0l3-2.3"/><path class="stroke" style="fill:none;stroke:currentColor;stroke-linejoin:round;stroke-width:1px;" d="M22.1,16c0-2.5-1.5-4.7-3.7-5.6v6.1h-4.7v-6.1C11.5,11.4,10,13.5,10,16c0,2.1,1.1,4,2.8,5.1v9.4h6.5v-9.4C21,20.1,22.1,18.2,22.1,16z"/></g></svg>