<svg version="1.1" viewBox="0 0 32 32"  height="32px" width="32px" fill="none" stroke="black"><g id="aircraft-engine" transform="scale(0.8 0.8) translate(0 8)"><path class="stroke round" style="fill:none;stroke:currentColor;stroke-linejoin:round;stroke-width:1px;stroke-linecap:round;" d="M15.5,24.5H8.2c-0.4,0-0.8-0.3-0.9-0.7c-0.9-2.7-1.8-6.6-1.8-11.3c0-2.7,0.3-6.7,1.8-11.3c0.1-0.4,0.5-0.7,1-0.7h7.3c-0.9,2.7-2,6.8-2,12C13.5,15.3,13.8,19.6,15.5,24.5z"/><path class="stroke round" style="fill:none;stroke:currentColor;stroke-linejoin:round;stroke-width:1px;stroke-linecap:round;" d="M16.9,17.7c-0.3-2-0.4-3.8-0.4-5.2c0-1.9,0.1-3.6,0.4-5.2"/><path class="stroke" style="fill:none;stroke:currentColor;stroke-linejoin:round;stroke-width:1px;" d="M13.5,24.5h2.3c0.4,0,0.8-0.3,1-0.7c0.7-2.2,1.1-4.2,1.4-6.1"/><path class="stroke round" style="fill:none;stroke:currentColor;stroke-linejoin:round;stroke-width:1px;stroke-linecap:round;" d="M13.5,0.5h2.3c0.4,0,0.8,0.3,1,0.7c0.5,1.6,1,3.7,1.4,6.1"/><line class="stroke" style="fill:none;stroke:currentColor;stroke-linejoin:round;stroke-width:1px;" x1="17" y1="7.5" x2="26.5" y2="5.5"/><line class="stroke" style="fill:none;stroke:currentColor;stroke-linejoin:round;stroke-width:1px;" x1="17" y1="17.5" x2="26.5" y2="19.5"/><line class="stroke" style="fill:none;stroke:currentColor;stroke-linejoin:round;stroke-width:1px;" x1="17" y1="10.5" x2="26.5" y2="10.5"/><line class="stroke" style="fill:none;stroke:currentColor;stroke-linejoin:round;stroke-width:1px;" x1="17" y1="14.5" x2="26.5" y2="14.5"/><line class="stroke round" style="fill:none;stroke:currentColor;stroke-linejoin:round;stroke-width:1px;stroke-linecap:round;" x1="26.5" y1="4.5" x2="26.5" y2="20.5"/><path class="stroke round" style="fill:none;stroke:currentColor;stroke-linejoin:round;stroke-width:1px;stroke-linecap:round;" d="M26.5,17.4c0,0,3,2,7-1v-4v0.1v-4c-4-3-7-1-7-1"/><polyline class="stroke round" style="fill:none;stroke:currentColor;stroke-linejoin:round;stroke-width:1px;stroke-linecap:round;" points="33.5,10.5 38.5,12.5 33.5,14.5 	"/><path class="stroke round" style="fill:none;stroke:currentColor;stroke-linejoin:round;stroke-width:1px;stroke-linecap:round;" d="M5.4,15.3l-3.9-1.5c-1.3-0.5-1.3-2.2,0-2.7l3.9-1.5"/></g></svg>