<svg version="1.1" viewBox="0 0 32 32"  height="32px" width="32px" fill="none" stroke="black"><g id="airport" transform="translate(1 1)"><polyline class="stroke" style="fill:none;stroke:currentColor;stroke-linejoin:round;" points="7,19.9 27.4,19.9 29.3,28.3 7.9,28.3 "/><polyline class="stroke" style="fill:none;stroke:currentColor;stroke-linejoin:round;" points="3.3,11.6 0.5,8.8 9.8,8.8 7,11.6 "/><line class="stroke" style="fill:none;stroke:currentColor;stroke-linejoin:round;" x1="1.4" y1="8.8" x2="1.4" y2="4.2"/><line class="stroke" style="fill:none;stroke:currentColor;stroke-linejoin:round;" x1="8.9" y1="8.8" x2="8.9" y2="4.2"/><line class="stroke" style="fill:none;stroke:currentColor;stroke-linejoin:round;" x1="0" y1="4.2" x2="10.2" y2="4.2"/><line class="stroke" style="fill:none;stroke:currentColor;stroke-linejoin:round;" x1="5.1" y1="4" x2="5.1" y2="0"/><line class="stroke" style="fill:none;stroke:currentColor;stroke-linejoin:round;" x1="26.9" y1="19.9" x2="29.7" y2="19.9"/><path class="stroke" style="fill:none;stroke:currentColor;stroke-linejoin:round;" d="M15.5,14.8l-3.4-4.5l3.4,0.4l9.6-6.4c1.4-0.9,3.3-0.6,4.2,0.8v0.1l-5.9,4.3l1.1,5.4l-2.1,1.7l-2-5L15.5,14.8z"/><polyline class="stroke" style="fill:none;stroke:currentColor;stroke-linejoin:round;" points="21.4,6.8 16.1,4.4 13.9,5.8 18.2,8.9 "/><polygon class="stroke" style="fill:none;stroke:currentColor;stroke-linejoin:round;" points="7,25.5 7,11.6 3.3,11.6 3.3,25.5 1.4,25.5 0.5,28.3 3.3,28.3 7,28.3 9.8,28.3 8.9,25.5 "/></g></svg>