<svg version="1.1" viewBox="0 0 32 32"  height="32px" width="32px" fill="none" stroke="black"><g id="asset" transform="scale(0.9 0.9) translate(5 2)"><polygon class="stroke" style="fill:none;stroke:currentColor;stroke-linejoin:round;stroke-width:1px;" points="26.5 23.75 26.5 8.25 13.5 0.5 0.5 8.25 0.5 23.75 13.5 31.5 26.5 23.75"/><polyline class="stroke" style="fill:none;stroke:currentColor;stroke-linejoin:round;stroke-width:1px;" points="0.5 8.75 13.5 16.5 26.5 8.75"/><line class="stroke" style="fill:none;stroke:currentColor;stroke-linejoin:round;stroke-width:1px;" x1="13.5" y1="31.41" x2="13.5" y2="16.41"/><polyline class="stroke" style="fill:none;stroke:currentColor;stroke-linejoin:round;stroke-width:1px;" points="13.5 16.5 13.5 16.41 26.5 8.75 26.5 8.25 13.5 0.5 0.5 8.25 0.5 8.75 0.5 8.75 13.5 16.5 26.5 8.75"/><polygon class="stroke" style="fill:none;stroke:currentColor;stroke-linejoin:round;stroke-width:1px;" points="6.92 8.5 13.5 4.58 20.06 8.48 13.44 12.39 6.92 8.5"/></g></svg>