<svg version="1.1" viewBox="0 0 32 32"  height="32px" width="32px" fill="none" stroke="black"><g id="attribute" transform="translate(3 0)"><path class="fill" style="fill:currentColor;stroke:none;" d="M4.9,19.9c-0.2,0-0.2-0.1-0.2-0.2v-0.4c0-0.2,0.1-0.2,0.2-0.2h1.6v-5.9L5,14.1c-0.1,0.1-0.2,0.1-0.3-0.1l-0.2-0.3c-0.1-0.1-0.1-0.2,0.1-0.3l1.8-1.2c0.1-0.1,0.2-0.1,0.4-0.1h0.4c0.2,0,0.2,0.1,0.2,0.2v6.8h1.5c0.2,0,0.2,0.1,0.2,0.2v0.4c0,0.2-0.1,0.2-0.2,0.2H4.9z"/><path class="fill" style="fill:currentColor;stroke:none;" d="M10.9,19.9c-0.2,0-0.2-0.1-0.2-0.2v-0.4c0-1.5,0.9-2.4,2.2-3.3c0.7-0.5,1.4-0.9,1.4-1.8c0-0.8-0.4-1.3-1.5-1.3c-0.6,0-1.1,0.2-1.5,0.5c-0.1,0.1-0.2,0.1-0.3,0l-0.2-0.3c-0.1-0.1-0.1-0.2,0-0.3c0.4-0.3,1.1-0.6,2-0.6c1.7,0,2.4,0.9,2.4,2.1c0,1.3-1,1.9-1.9,2.5c-0.8,0.5-1.8,1.3-1.8,2.5h3.5c0.2,0,0.2,0.1,0.2,0.2v0.4c0,0.2-0.1,0.2-0.2,0.2H10.9z"/><path class="fill" style="fill:currentColor;stroke:none;" d="M19,20c-0.9,0-1.6-0.3-2.1-0.6c-0.1-0.1-0.1-0.2,0-0.3l0.2-0.3c0.1-0.1,0.2-0.1,0.3,0c0.4,0.3,0.9,0.5,1.6,0.5c1.1,0,1.7-0.6,1.7-1.6c0-0.9-0.5-1.6-1.7-1.6h-0.2c-0.1,0-0.2,0-0.3-0.2l-0.1-0.1c-0.1-0.1-0.1-0.2,0-0.3l1.9-2.4h-2.9c-0.2,0-0.2-0.1-0.2-0.2v-0.4c0-0.2,0.1-0.2,0.2-0.2h3.8c0.2,0,0.2,0.1,0.2,0.2v0.2c0,0.2,0,0.3-0.1,0.4l-1.1,1.5c-0.1,0.2-0.6,0.7-0.8,0.9c1.6,0.1,2.4,1.1,2.4,2.3C21.7,18.9,20.9,20,19,20z"/><polygon class="stroke" style="fill:none;stroke:currentColor;stroke-linejoin:round;stroke-width:1px;" points="25.5,31.5 0.5,31.5 0.5,8.5 13.2,0.5 25.5,8.5 	"/><line class="stroke" style="fill:none;stroke:currentColor;stroke-linejoin:round;stroke-width:1px;" x1="5" y1="23.5" x2="21" y2="23.5"/><line class="stroke" style="fill:none;stroke:currentColor;stroke-linejoin:round;stroke-width:1px;" x1="7" y1="26.5" x2="19" y2="26.5"/><circle class="fill" style="fill:currentColor;stroke:none;" cx="13" cy="6.5" r="1.5"/></g></svg>