<svg version="1.1" viewBox="0 0 32 32"  height="32px" width="32px" fill="none" stroke="black"><g id="automobile" transform="translate(1 9)"><circle class="stroke" style="fill:none;stroke:currentColor;stroke-linejoin:round;stroke-width:1px;" cx="6.3" cy="12.9" r="2.5"/><circle class="stroke" style="fill:none;stroke:currentColor;stroke-linejoin:round;stroke-width:1px;" cx="23.7" cy="12.9" r="2.5"/><line class="stroke" style="fill:none;stroke:currentColor;stroke-linejoin:round;stroke-width:1px;" x1="21.2" y1="12.9" x2="8.8" y2="12.9"/><path class="stroke" style="fill:none;stroke:currentColor;stroke-linejoin:round;stroke-width:1px;" d="M3.8,12.9H1.3c-0.5,0-0.8-0.4-0.8-0.8V7.7C0.5,7.3,0.7,7,1,6.9l5.3-1.4l1.8-3.8C8.5,1,9.3,0.5,10.2,0.5h6.7c0.7,0,1.3,0.3,1.8,0.7l3.2,4c0.1,0.1,0.3,0.2,0.5,0.2l5.9,1.3C29,7,29.5,7.7,29.5,8.4v3.7c0,0.5-0.4,0.8-0.8,0.8h-2.5"/><path class="stroke" style="fill:none;stroke:currentColor;stroke-linejoin:round;stroke-width:1px;" d="M8.2,6.3l1.6-3.7c0.1-0.2,0.4-0.4,0.7-0.4h6.1c0.2,0,0.4,0.1,0.5,0.2l2.7,3.9H8.2z"/><line class="stroke" style="fill:none;stroke:currentColor;stroke-linejoin:round;stroke-width:1px;" x1="13.7" y1="2.2" x2="13.7" y2="6.3"/><polyline class="stroke" style="fill:none;stroke:currentColor;stroke-linejoin:round;stroke-width:1px;" points="27,6.7 27,8.8 29.5,8.8 "/></g></svg>