<svg version="1.1" viewBox="0 0 32 32"  height="32px" width="32px" fill="none" stroke="black"><g id="block" transform="translate(1 1)"><path class="stroke" style="fill:none;stroke:currentColor;stroke-linejoin:round;stroke-width:1px;" d="M1.4,0.7l5.5,2.5v7.2c0,0-5.5,2.7-5.5,2.5V0.7z"/><path class="stroke" style="fill:none;stroke:currentColor;stroke-linejoin:round;stroke-width:1px;" d="M12.3,0.7L6.9,3.2v7.2c0,0,5.5,2.7,5.5,2.5V0.7z"/><path class="stroke" style="fill:none;stroke:currentColor;stroke-linejoin:round;stroke-width:1px;" d="M21.4,4.4l-4.5-3v10.9c0,0,4.5-2.7,4.5-3l6.4,3.9V0.5C27.8,0.5,21.4,4.1,21.4,4.4z"/><line class="stroke round" style="fill:none;stroke:currentColor;stroke-linejoin:round;stroke-width:1px;stroke-linecap:round;" x1="28.7" y1="6.9" x2="27.8" y2="6.9"/><line class="stroke" style="fill:none;stroke:currentColor;stroke-linejoin:round;stroke-width:1px;" x1="16.9" y1="7.8" x2="12.3" y2="7.8"/><line class="stroke" style="fill:none;stroke:currentColor;stroke-linejoin:round;stroke-width:1px;" x1="16.9" y1="6" x2="12.3" y2="6"/><line class="stroke round" style="fill:none;stroke:currentColor;stroke-linejoin:round;stroke-width:1px;stroke-linecap:round;" x1="1.4" y1="6.9" x2="0.5" y2="6.9"/><line class="stroke" style="fill:none;stroke:currentColor;stroke-linejoin:round;stroke-width:1px;" x1="21.4" y1="9.4" x2="21.4" y2="4.4"/><path class="stroke" style="fill:none;stroke:currentColor;stroke-linejoin:round;stroke-width:1px;" d="M1.4,16.2l5.5,2.5v7.2c0,0-5.5,2.7-5.5,2.5V16.2z"/><path class="stroke" style="fill:none;stroke:currentColor;stroke-linejoin:round;stroke-width:1px;" d="M12.3,16.2l-5.5,2.5v7.2c0,0,5.5,2.7,5.5,2.5V16.2z"/><path class="stroke" style="fill:none;stroke:currentColor;stroke-linejoin:round;stroke-width:1px;" d="M21.4,19.8l-4.5-3v10.9c0,0,4.5-2.7,4.5-3l6.4,3.9V16C27.8,16,21.4,19.6,21.4,19.8z"/><line class="stroke round" style="fill:none;stroke:currentColor;stroke-linejoin:round;stroke-width:1px;stroke-linecap:round;" x1="28.7" y1="22.3" x2="27.8" y2="22.3"/><line class="stroke" style="fill:none;stroke:currentColor;stroke-linejoin:round;stroke-width:1px;" x1="16.9" y1="23.2" x2="12.3" y2="23.2"/><line class="stroke" style="fill:none;stroke:currentColor;stroke-linejoin:round;stroke-width:1px;" x1="16.9" y1="21.4" x2="12.3" y2="21.4"/><line class="stroke round" style="fill:none;stroke:currentColor;stroke-linejoin:round;stroke-width:1px;stroke-linecap:round;" x1="1.4" y1="22.3" x2="0.5" y2="22.3"/><line class="stroke" style="fill:none;stroke:currentColor;stroke-linejoin:round;stroke-width:1px;" x1="21.4" y1="24.8" x2="21.4" y2="19.8"/></g></svg>