<svg version="1.1" viewBox="0 0 32 32"  height="32px" width="32px" fill="none" stroke="black"><g id="boiler" transform="translate(4 1)"><ellipse class="stroke" style="fill:none;stroke:currentColor;stroke-linejoin:round;" cx="10.2" cy="3.3" rx="9.7" ry="2.8"/><line class="stroke" style="fill:none;stroke:currentColor;stroke-linejoin:round;" x1="19.9" y1="12.1" x2="19.9" y2="3.3"/><path class="stroke" style="fill:none;stroke:currentColor;stroke-linejoin:round;" d="M19.9,25v1.4c0,1.5-4.4,2.8-9.7,2.8S0.5,28,0.5,26.4V3.3"/><circle class="stroke" style="fill:none;stroke:currentColor;stroke-linejoin:round;" cx="10.2" cy="12.1" r="3.2"/><line class="stroke" style="fill:none;stroke:currentColor;stroke-linejoin:round;" x1="10.2" y1="12.5" x2="11.6" y2="10.7"/><path class="stroke" style="fill:none;stroke:currentColor;stroke-linejoin:round;" d="M22.8,20.4c0,1.8-1.5,3.3-3.3,3.3c-1.8,0-3.3-1.5-3.3-3.3c0-1.9,1.5-2.4,1.5-4c0,0,1,1,1.6,2.1c0,0,1.6-1.6,1-3.6C20.3,14.9,22.8,16.6,22.8,20.4z"/></g></svg>