<svg version="1.1" viewBox="0 0 32 32"  height="32px" width="32px" fill="none" stroke="black"><g id="bug" transform="translate(1 1)"><line class="stroke" style="fill:none;stroke:currentColor;stroke-linejoin:round;stroke-width:1px;" x1="6" y1="18.5" x2="0" y2="18.5"/><path class="stroke" style="fill:none;stroke:currentColor;stroke-linejoin:round;stroke-width:1px;" d="M8.6,7.6c0-3,2.4-5.5,5.5-5.5s5.5,2.4,5.5,5.5"/><path class="stroke" style="fill:none;stroke:currentColor;stroke-linejoin:round;stroke-width:1px;" d="M14.6,28.5c4.1,0,7.7-2.5,7.7-8.3S19.6,9.4,19.6,9.4h-5.5H8.6c0,0-2.7,4.9-2.7,10.8s3.6,8.3,7.7,8.3H14.6z"/><line class="stroke" style="fill:none;stroke:currentColor;stroke-linejoin:round;stroke-width:1px;" x1="10.5" y1="3" x2="8.6" y2="0.3"/><line class="stroke" style="fill:none;stroke:currentColor;stroke-linejoin:round;stroke-width:1px;" x1="17.8" y1="3" x2="19.6" y2="0.3"/><path class="stroke" style="fill:none;stroke:currentColor;stroke-linejoin:round;stroke-width:1px;" d="M1.8,27.6c0,0,1-3.3,4.6-4"/><path class="stroke" style="fill:none;stroke:currentColor;stroke-linejoin:round;stroke-width:1px;" d="M1.8,9.8c0,0,1.1,3.8,5,4.2"/><line class="stroke" style="fill:none;stroke:currentColor;stroke-linejoin:round;stroke-width:1px;" x1="28.2" y1="18.5" x2="22.2" y2="18.5"/><path class="stroke" style="fill:none;stroke:currentColor;stroke-linejoin:round;stroke-width:1px;" d="M21.8,23.6c3.6,0.8,4.6,4,4.6,4"/><path class="stroke" style="fill:none;stroke:currentColor;stroke-linejoin:round;stroke-width:1px;" d="M21.4,13.9c4-0.4,5-4.2,5-4.2"/><line class="stroke" style="fill:none;stroke:currentColor;stroke-linejoin:round;stroke-width:1px;" x1="14.1" y1="13.9" x2="14.1" y2="28.5"/></g></svg>