<svg version="1.1" viewBox="0 0 32 32"  height="32px" width="32px" fill="none" stroke="black"><g id="condensor" transform="scale(0.9 0.9) translate(0 6)"><path class="stroke round" style="fill:none;stroke:currentColor;stroke-linejoin:round;stroke-width:1px;stroke-linecap:round;" d="M20.5,26.5h-4V19c0-3,2.5-5.5,5.5-5.5h5.5v4H23c-1.4,0-2.5,1.1-2.5,2.5V26.5z"/><path class="stroke round" style="fill:none;stroke:currentColor;stroke-linejoin:round;stroke-width:1px;stroke-linecap:round;" d="M21.9,13.5H14c-3,0-5.5,2.5-5.5,5.5v7.5h4V20c0-1.4,1.1-2.5,2.4-2.5"/><path class="stroke round" style="fill:none;stroke:currentColor;stroke-linejoin:round;stroke-width:1px;stroke-linecap:round;" d="M13.9,13.5H6c-3,0-5.5,2.5-5.5,5.5v7.5h4V20c0-1.4,1.1-2.5,2.4-2.5"/><path class="stroke round" style="fill:none;stroke:currentColor;stroke-linejoin:round;stroke-width:1px;stroke-linecap:round;" d="M6.5,12v-2c0-2.5,3-5.5,3-9.5h9h12c0,4,3,7,3,9.5v12.5H22"/></g></svg>