<svg version="1.1" viewBox="0 0 32 32"  height="32px" width="32px" fill="none" stroke="black"><g id="cooling-tower" transform="translate(2 1)"><path class="stroke" style="fill:none;stroke:currentColor;stroke-linejoin:round;stroke-width:1px;" d="M4.1,28.3H0.5V14.4c0-2.7,2.2-4.9,4.9-4.9h4.9V13h-4c-1.2,0-2.2,1-2.2,2.2V28.3z"/><polygon class="stroke" style="fill:none;stroke:currentColor;stroke-linejoin:round;stroke-width:1px;" points="13,5.9 11.3,0.5 22,0.5 20.2,5.9 "/><polyline class="stroke" style="fill:none;stroke:currentColor;stroke-linejoin:round;stroke-width:1px;" points="25.6,12.6 25.6,5.9 7.7,5.9 7.7,9 "/><polyline class="stroke" style="fill:none;stroke:currentColor;stroke-linejoin:round;stroke-width:1px;" points="7.7,13.5 7.7,28.3 25.6,28.3 25.6,21.6 "/><path class="stroke" style="fill:none;stroke:currentColor;stroke-linejoin:round;stroke-width:1px;" d="M28.3,13.9c-1.6,0-1.6,1.8-3.3,1.8c-1.6,0-1.6-1.8-3.3-1.8s-1.6,1.8-3.3,1.8"/><path class="stroke" style="fill:none;stroke:currentColor;stroke-linejoin:round;stroke-width:1px;" d="M28.3,17.5c-1.6,0-1.6,1.8-3.3,1.8c-1.6,0-1.6-1.8-3.3-1.8s-1.6,1.8-3.3,1.8"/></g></svg>