<svg version="1.1" viewBox="0 0 32 32"  height="32px" width="32px" fill="none" stroke="black"><g id="data-source" transform="translate(6 1)"><path class="stroke" style="fill:none;stroke:currentColor;stroke-linejoin:round;stroke-width:1px;" d="M19,28H1.5c-0.6,0-1-0.4-1-1v-3.3c0-0.6,0.4-1,1-1H19c0.6,0,1,0.4,1,1V27C20,27.6,19.6,28,19,28z"/><path class="stroke" style="fill:none;stroke:currentColor;stroke-linejoin:round;stroke-width:1px;" d="M12.5,7.6h6.7C19.6,7.6,20,8,20,8.5v15.1"/><path class="stroke" style="fill:none;stroke:currentColor;stroke-linejoin:round;stroke-width:1px;" d="M0.5,23.6V8.5c0-0.5,0.4-0.9,0.9-0.9H8"/><circle class="stroke" style="fill:none;stroke:currentColor;stroke-linejoin:round;stroke-width:1px;" cx="4" cy="25.3" r="0.9"/><line class="stroke" style="fill:none;stroke:currentColor;stroke-linejoin:round;stroke-width:1px;" x1="7.2" y1="25.3" x2="17.8" y2="25.3"/><line class="stroke" style="fill:none;stroke:currentColor;stroke-linejoin:round;stroke-width:1px;" x1="10.3" y1="12.9" x2="10.3" y2="0.9"/><polyline class="stroke" style="fill:none;stroke:currentColor;stroke-linejoin:round;stroke-width:1px;" points="6.7,4 10.3,0.5 13.8,4 "/></g></svg>