<svg version="1.1" viewBox="0 0 32 32"  height="32px" width="32px" fill="none" stroke="black"><g id="deployment" transform="translate(1 1)"><polyline class="stroke" style="fill:none;stroke:currentColor;stroke-linejoin:round;stroke-width:1px;" points="10,15.1 7,12.2 3.6,14.2 0.5,11.1 3.2,8.4 15.2,6.6 "/><path class="stroke" style="fill:none;stroke:currentColor;stroke-linejoin:round;stroke-width:1px;" d="M10.8,16l5,5c0,0,6.1-4.7,10.9-9.5s2-10.2,2-10.2s-5.4-2.7-10.2,2S9.1,14.2,9.1,14.2L10.8,16"/><ellipse transform="matrix(0.7071 -0.7071 0.7071 0.7071 2.0836 18.4687)" class="stroke" style="fill:none;stroke:currentColor;stroke-linejoin:round;stroke-width:1px;" cx="23.3" cy="6.7" rx="2.9" ry="2.9"/><line class="stroke" style="fill:none;stroke:currentColor;stroke-linejoin:round;stroke-width:1px;" x1="13.8" y1="22.5" x2="7.5" y2="16.3"/><polyline class="stroke" style="fill:none;stroke:currentColor;stroke-linejoin:round;stroke-width:1px;" points="22.9,14.9 21.7,26.8 19,29.6 15.8,26.4 17.9,23 15.9,21 "/><path class="stroke" style="fill:none;stroke:currentColor;stroke-linejoin:round;stroke-width:1px;" d="M3.5,21.1c1.4-1.4,3.6-1.4,5,0c1.4,1.4,1.4,3.6,0,5c-1.8,1.8-6.5,1.4-6.5,1.4S1.7,22.9,3.5,21.1z"/></g></svg>