<svg version="1.1" viewBox="0 0 32 32"  height="32px" width="32px" fill="none" stroke="black"><g id="fleet" transform="translate(1 1)"><polygon class="stroke" style="fill:none;stroke:currentColor;stroke-linejoin:round;" points="21.5,25.5 21.5,17.2 14.5,13 7.5,17.2 7.5,25.5 14.5,29.7 "/><polyline class="stroke" style="fill:none;stroke:currentColor;stroke-linejoin:round;" points="7.4,17.4 14.5,21.6 21.6,17.4 "/><line class="stroke" style="fill:none;stroke:currentColor;stroke-linejoin:round;" x1="14.5" y1="29.8" x2="14.5" y2="21.8"/><polyline class="stroke" style="fill:none;stroke:currentColor;stroke-linejoin:round;" points="21.5,17.2 28.5,13 28.5,4.7 21.5,0.5 14.5,4.7 "/><polyline class="stroke" style="fill:none;stroke:currentColor;stroke-linejoin:round;" points="14.4,4.9 21.5,9.1 28.6,4.9 "/><line class="stroke" style="fill:none;stroke:currentColor;stroke-linejoin:round;" x1="21.5" y1="17.3" x2="21.5" y2="9.3"/><polyline class="stroke" style="fill:none;stroke:currentColor;stroke-linejoin:round;" points="14.5,4.7 7.5,0.5 0.5,4.7 0.5,13 7.5,17.2 "/><polyline class="stroke" style="fill:none;stroke:currentColor;stroke-linejoin:round;" points="0.4,4.9 7.5,9.1 14.6,4.9 "/><line class="stroke" style="fill:none;stroke:currentColor;stroke-linejoin:round;" x1="7.5" y1="17.3" x2="7.5" y2="9.3"/><line class="stroke" style="fill:none;stroke:currentColor;stroke-linejoin:round;" x1="14.5" y1="4.8" x2="14.5" y2="12.8"/></g></svg>