<svg version="1.1" viewBox="0 0 32 32"  height="32px" width="32px" fill="none" stroke="black"><g id="formula" transform="translate(1 10)"><path class="fill" style="fill:currentColor;stroke:none;" d="M1,12.9c0.6-0.6,1-1.1,1.4-1.7L2.4,11l-0.1-0.2C1.4,9.1,0.4,6.4,0,4.5c0-0.1,0-0.1,0-0.1l1.5,0c0.4,1.9,1,3.9,1.5,4.8l0.3,0.7l0.3-0.7c0.6-1.5,1.1-3.3,1.4-4.8l1.2,0c0,0,0,0.1,0,0.1C5.9,5.7,5.3,7.5,4.7,9c-0.9,2.1-1.9,3.6-2.9,4.5l0,0L1,12.9z"/><path class="fill" style="fill:currentColor;stroke:none;" d="M17.8,13.6c-0.2,0-0.4-0.2-0.5-0.4l-1.5-5.9h-1.7v-1h2.1c0.2,0,0.4,0.2,0.5,0.4l1.2,4.6l3.4-11C21.4,0.1,21.6,0,21.8,0h7.6v1h-7.2l-3.8,12.3C18.3,13.5,18.1,13.6,17.8,13.6L17.8,13.6z"/><polygon class="fill" style="fill:currentColor;stroke:none;" points="25.7,9.1 23.1,11.7 22.5,11 25,8.4 22.5,5.8 23.1,5.1 25.7,7.7 28.3,5.1 29,5.8 26.4,8.4 29,11 28.3,11.7 	"/><rect x="7.9" y="6.3" class="fill" style="fill:currentColor;stroke:none;" width="4.1" height="1"/><rect x="7.9" y="8.5" class="fill" style="fill:currentColor;stroke:none;" width="4.1" height="1"/></g></svg>