<svg version="1.1" viewBox="0 0 32 32"  height="32px" width="32px" fill="none" stroke="black"><g id="gas-line" transform="translate(4 1)"><path class="stroke" style="fill:none;stroke:currentColor;stroke-linejoin:round;" d="M22,18.4c0,5.9-4.8,10.7-10.7,10.7S0.5,24.3,0.5,18.4c0-7.9,8.4-12.5,10.7-17.3C13.6,5.8,22,10.5,22,18.4z"/><path class="stroke" style="fill:none;stroke:currentColor;stroke-linejoin:round;" d="M17.1,23.2c0,3.3-2.6,5.9-5.9,5.9s-5.9-2.6-5.9-5.9c0-3.4,2.6-4.4,2.6-7.2c0,0,1.9,1.9,2.8,3.7c0,0,2.8-2.8,1.9-6.5C12.6,13.3,17.1,16.4,17.1,23.2z"/></g></svg>