<svg version="1.1" viewBox="0 0 32 32"  height="32px" width="32px" fill="none" stroke="black"><g id="gas-turbine" transform="translate(1 6)"><line class="stroke" style="fill:none;stroke:currentColor;stroke-linejoin:round;stroke-width:1px;" x1="4.2" y1="2.3" x2="8.9" y2="4.7"/><polyline class="stroke round" style="fill:none;stroke:currentColor;stroke-linejoin:round;stroke-width:1px;stroke-linecap:round;" points="4.2,18.7 4.2,9.4 4.2,0 "/><line class="stroke" style="fill:none;stroke:currentColor;stroke-linejoin:round;stroke-width:1px;" x1="4.2" y1="16.4" x2="8.9" y2="14"/><line class="stroke" style="fill:none;stroke:currentColor;stroke-linejoin:round;stroke-width:1px;" x1="8.9" y1="13.6" x2="8.9" y2="5.1"/><path class="stroke" style="fill:none;stroke:currentColor;stroke-linejoin:round;stroke-width:1px;" d="M4.2,14c-0.9,0.5-1.9,1-2.8,1.4C1,14.1,0.5,12,0.5,9.4c0-1.4,0.1-3.6,0.9-6.1c0.9,0.5,1.9,1,2.8,1.4"/><rect x="8.9" y="4.7" class="stroke" style="fill:none;stroke:currentColor;stroke-linejoin:round;stroke-width:1px;" width="5.6" height="9.4"/><path class="stroke" style="fill:none;stroke:currentColor;stroke-linejoin:round;stroke-width:1px;" d="M22,14.3l5.6,3c0.7-1.3,1.9-4.2,1.9-8c0-1.5-0.2-4.6-1.9-8c-2.2,1-3.4,2-5.6,3V14.3z"/><rect x="14.5" y="1.9" class="stroke" style="fill:none;stroke:currentColor;stroke-linejoin:round;stroke-width:1px;" width="2.8" height="3.7"/><rect x="17.3" y="2.8" class="stroke" style="fill:none;stroke:currentColor;stroke-linejoin:round;stroke-width:1px;" width="4.7" height="1.9"/><rect x="14.5" y="7.5" class="stroke" style="fill:none;stroke:currentColor;stroke-linejoin:round;stroke-width:1px;" width="2.8" height="3.7"/><rect x="17.3" y="8.4" class="stroke" style="fill:none;stroke:currentColor;stroke-linejoin:round;stroke-width:1px;" width="4.7" height="1.9"/><rect x="14.5" y="13.1" class="stroke" style="fill:none;stroke:currentColor;stroke-linejoin:round;stroke-width:1px;" width="2.8" height="3.7"/><rect x="17.3" y="14" class="stroke" style="fill:none;stroke:currentColor;stroke-linejoin:round;stroke-width:1px;" width="4.7" height="1.9"/></g></svg>