<svg version="1.1" viewBox="0 0 32 32"  height="32px" width="32px" fill="none" stroke="black"><g id="heat-rate" transform="translate(1 2)"><path class="stroke" style="fill:none;stroke:currentColor;stroke-linejoin:round;" d="M24.7,25.7l1-1c2.4-2.6,3.9-6,3.9-9.8c0-8-6.5-14.4-14.5-14.4S0.5,7,0.5,14.9c0,3.8,1.5,7.2,3.9,9.8"/><path class="stroke" style="fill:none;stroke:currentColor;stroke-linejoin:round;" d="M15,15.5c0,0,1.4-2.7,0-6.3c0,0,4.8,1.3,4.8,7.6c0,2.8-2.2,5.1-4.8,5.1s-4.8-2.3-4.8-5.1c0-3.8,2.4-4.5,2.4-4.5S13.1,14.6,15,15.5z"/><line class="stroke" style="fill:none;stroke:currentColor;stroke-linejoin:round;" x1="15" y1="4.4" x2="15" y2="0.5"/><line class="stroke" style="fill:none;stroke:currentColor;stroke-linejoin:round;" x1="22.6" y1="7.5" x2="25.3" y2="4.8"/><line class="stroke" style="fill:none;stroke:currentColor;stroke-linejoin:round;" x1="25.7" y1="15" x2="29.6" y2="15"/><line class="stroke" style="fill:none;stroke:currentColor;stroke-linejoin:round;" x1="4.4" y1="15" x2="0.5" y2="15"/><line class="stroke" style="fill:none;stroke:currentColor;stroke-linejoin:round;" x1="7.5" y1="7.5" x2="4.8" y2="4.8"/></g></svg>