<svg version="1.1" viewBox="0 0 32 32"  height="32px" width="32px" fill="none" stroke="black"><g id="hrsg" transform="scale(0.9 0.9) translate(1 1)"><rect x="22.5" y="9.5" class="stroke round" style="fill:none;stroke:currentColor;stroke-linejoin:round;stroke-width:1px;stroke-linecap:round;" width="7" height="22"/><polyline class="stroke round" style="fill:none;stroke:currentColor;stroke-linejoin:round;stroke-width:1px;stroke-linecap:round;" points="20.5,15.4 9.5,15.4 0.5,24.5 0.5,31.5 22.5,31.5 	"/><line class="stroke round" style="fill:none;stroke:currentColor;stroke-linejoin:round;stroke-width:1px;stroke-linecap:round;" x1="22.5" y1="12.5" x2="29.5" y2="12.5"/><path class="stroke round" style="fill:none;stroke:currentColor;stroke-linejoin:round;stroke-width:1px;stroke-linecap:round;" d="M16.5,0.5c0,5,9,2,9,6c0,1.8,0-3,0-3s0-3-4-3S16.5,0.5,16.5,0.5z"/><path class="stroke" style="fill:none;stroke:currentColor;stroke-linejoin:round;stroke-width:1px;" d="M19,20.5c-1.8,0-1.8,2-3.7,2c-1.8,0-1.8-2-3.7-2s-1.8,2-3.7,2"/><path class="stroke" style="fill:none;stroke:currentColor;stroke-linejoin:round;stroke-width:1px;" d="M19,24.5c-1.8,0-1.8,2-3.7,2c-1.8,0-1.8-2-3.7-2s-1.8,2-3.7,2"/></g></svg>