<svg version="1.1" viewBox="0 0 32 32"  height="32px" width="32px" fill="none" stroke="black"><g id="ingestion" transform="scale(0.9 0.9) translate(2 2)"><polygon class="stroke" style="fill:none;stroke:currentColor;stroke-linejoin:round;" points="22.5,19.4 22.5,11.1 15.5,6.9 8.5,11.1 8.5,19.4 15.5,23.6 "/><polyline class="stroke" style="fill:none;stroke:currentColor;stroke-linejoin:round;" points="8.5,11.3 15.5,15.5 22.5,11.3 "/><line class="stroke" style="fill:none;stroke:currentColor;stroke-linejoin:round;" x1="15.5" y1="23.5" x2="15.5" y2="15.5"/><polyline class="stroke" style="fill:none;stroke:currentColor;stroke-linejoin:round;" points="15.5,15.5 15.5,15.5 22.5,11.3 22.5,11.1 15.5,6.9 8.5,11.1 8.5,11.3 8.5,11.3 15.5,15.5 22.5,11.3 "/><circle class="stroke" style="fill:none;stroke:currentColor;stroke-linejoin:round;" cx="3" cy="3" r="2.5"/><line class="stroke" style="fill:none;stroke:currentColor;stroke-linejoin:round;" x1="8.5" y1="8.5" x2="4.8" y2="4.8"/><circle class="stroke" style="fill:none;stroke:currentColor;stroke-linejoin:round;" cx="28" cy="3" r="2.5"/><line class="stroke" style="fill:none;stroke:currentColor;stroke-linejoin:round;" x1="22.5" y1="8.5" x2="26.2" y2="4.8"/><circle class="stroke" style="fill:none;stroke:currentColor;stroke-linejoin:round;" cx="28" cy="28" r="2.5"/><line class="stroke" style="fill:none;stroke:currentColor;stroke-linejoin:round;" x1="22.5" y1="22.5" x2="26.2" y2="26.2"/><circle class="stroke" style="fill:none;stroke:currentColor;stroke-linejoin:round;" cx="3" cy="28" r="2.5"/><line class="stroke" style="fill:none;stroke:currentColor;stroke-linejoin:round;" x1="8.5" y1="22.5" x2="4.8" y2="26.2"/></g></svg>