<svg version="1.1" viewBox="0 0 32 32"  height="32px" width="32px" fill="none" stroke="black"><g id="lightbulb" transform="translate(7 1)"><path class="stroke" style="fill:none;stroke:currentColor;stroke-linejoin:round;" d="M17.5,9c0-5-4.4-9-9.5-8.4C4.2,1,1.1,4,0.6,7.8c-0.5,3.2,0.9,6.2,3.2,7.9c1.1,0.8,1.7,2,1.7,3.4l0,6.7c0,0.4,0.3,0.7,0.7,0.7h5.6c0.4,0,0.7-0.3,0.7-0.7l0-6.7c0-1.4,0.7-2.6,1.8-3.4C16.2,14.1,17.5,11.7,17.5,9z"/><path class="stroke" style="fill:none;stroke:currentColor;stroke-linejoin:round;" d="M11.5,27c0,1.4-1.1,2.5-2.5,2.5S6.5,28.4,6.5,27"/><line class="stroke" style="fill:none;stroke:currentColor;stroke-linejoin:round;" x1="5.5" y1="20.5" x2="12.5" y2="20.5"/><line class="stroke" style="fill:none;stroke:currentColor;stroke-linejoin:round;" x1="5.5" y1="23.5" x2="12.5" y2="23.5"/></g></svg>