<svg version="1.1" viewBox="0 0 32 32"  height="32px" width="32px" fill="none" stroke="black"><g id="line" transform="translate(1 7)"><path class="stroke" style="fill:none;stroke:currentColor;stroke-linejoin:round;stroke-width:1px;" d="M1.4,1.6L7,4.2v7.4c0,0-5.5,2.8-5.5,2.6V1.6z"/><path class="stroke" style="fill:none;stroke:currentColor;stroke-linejoin:round;stroke-width:1px;" d="M12.5,1.6L7,4.2v7.4c0,0,5.5,2.8,5.5,2.6V1.6z"/><path class="stroke" style="fill:none;stroke:currentColor;stroke-linejoin:round;stroke-width:1px;" d="M21.8,5.4l-4.6-3v11.1c0,0,4.6-2.8,4.6-3l6.5,4.9V0.5C28.2,0.5,21.8,5.1,21.8,5.4z"/><line class="stroke round" style="fill:none;stroke:currentColor;stroke-linejoin:round;stroke-width:1px;stroke-linecap:round;" x1="29.2" y1="7.9" x2="28.2" y2="7.9"/><line class="stroke" style="fill:none;stroke:currentColor;stroke-linejoin:round;stroke-width:1px;" x1="17.1" y1="8.8" x2="12.5" y2="8.8"/><line class="stroke" style="fill:none;stroke:currentColor;stroke-linejoin:round;stroke-width:1px;" x1="17.1" y1="7" x2="12.5" y2="7"/><line class="stroke round" style="fill:none;stroke:currentColor;stroke-linejoin:round;stroke-width:1px;stroke-linecap:round;" x1="1.4" y1="7.9" x2="0.5" y2="7.9"/><line class="stroke" style="fill:none;stroke:currentColor;stroke-linejoin:round;stroke-width:1px;" x1="21.8" y1="10.4" x2="21.8" y2="5.4"/></g></svg>