<svg version="1.1" viewBox="0 0 32 32"  height="32px" width="32px" fill="none" stroke="black"><g id="link" transform="translate(2 2)"><path class="stroke" style="fill:none;stroke:currentColor;stroke-linejoin:round;" d="M13.2,9.6c-0.7-0.7-0.7-1.8,0-2.5l6-6c0.7-0.7,1.8-0.7,2.5,0l4.8,4.8c0.7,0.7,0.7,1.8,0,2.5l-6,6c-0.7,0.7-1.8,0.7-2.5,0"/><path class="stroke" style="fill:none;stroke:currentColor;stroke-linejoin:round;" d="M14.4,18.1c0.7,0.7,0.7,1.8,0,2.5l-6,6c-0.7,0.7-1.8,0.7-2.5,0L1,21.8c-0.7-0.7-0.7-1.8,0-2.5l6-6c0.7-0.7,1.8-0.7,2.5,0"/><line class="stroke" style="fill:none;stroke:currentColor;stroke-linejoin:round;" x1="19.9" y1="7.7" x2="7.7" y2="19.9"/></g></svg>