<svg version="1.1" viewBox="0 0 32 32"  height="32px" width="32px" fill="none" stroke="black"><g id="locomotive" transform="translate(1 5)"><line class="stroke" style="fill:none;stroke:currentColor;stroke-linejoin:round;stroke-width:1px;" x1="0.1" y1="18.5" x2="28.8" y2="18.5"/><polyline class="stroke" style="fill:none;stroke:currentColor;stroke-linejoin:round;stroke-width:1px;" points="2.7,10.4 25.7,10.4 28.4,15.8 24.8,15.8 23.9,13.1 6.8,13.1 5.9,15.8 0.5,15.8 0.5,0.5 19.4,0.5 21.2,5 25.7,5 25.7,10.4 "/><path class="stroke" style="fill:none;stroke:currentColor;stroke-linejoin:round;stroke-width:1px;" d="M11.7,13.1c0.3,0.4,0.4,0.8,0.4,1.3c0,1.2-1,2.2-2.2,2.2s-2.2-1-2.2-2.2c0-0.5,0.2-1,0.4-1.3"/><path class="stroke" style="fill:none;stroke:currentColor;stroke-linejoin:round;stroke-width:1px;" d="M17.1,13.1c0.3,0.4,0.4,0.8,0.4,1.3c0,1.2-1,2.2-2.2,2.2s-2.2-1-2.2-2.2c0-0.5,0.2-1,0.4-1.3"/><path class="stroke" style="fill:none;stroke:currentColor;stroke-linejoin:round;stroke-width:1px;" d="M22.5,13.1c0.3,0.4,0.4,0.8,0.4,1.3c0,1.2-1,2.2-2.2,2.2c-1.2,0-2.2-1-2.2-2.2c0-0.5,0.2-1,0.4-1.3"/><path class="stroke" style="fill:none;stroke:currentColor;stroke-linejoin:round;stroke-width:1px;" d="M20.2,2.3h-4.4l0.4,1.4C16.4,4.5,16.9,5,17.5,5h4"/></g></svg>