<svg version="1.1" viewBox="0 0 32 32"  height="32px" width="32px" fill="none" stroke="black"><g id="machine" transform="translate(4 1)"><path class="stroke" style="fill:none;stroke:currentColor;stroke-linejoin:round;stroke-width:1px;" d="M0.5,17.1c0-9.2,5-16.6,11.2-16.6S23,7.9,23,17.1"/><circle class="stroke" style="fill:none;stroke:currentColor;stroke-linejoin:round;stroke-width:1px;" cx="11.7" cy="17.1" r="2.2"/><path class="stroke" style="fill:none;stroke:currentColor;stroke-linejoin:round;stroke-width:1px;" d="M11.7,28.4c-6.2,0-11.2-5-11.2-11.2s5-11.2,11.2-11.2S23,10.9,23,17.1S17.9,28.4,11.7,28.4z"/><path class="stroke" style="fill:none;stroke:currentColor;stroke-linejoin:round;stroke-width:1px;" d="M11.3,14.7C9.7,12.6,10.3,9,10.3,9"/><path class="stroke" style="fill:none;stroke:currentColor;stroke-linejoin:round;stroke-width:1px;" d="M13.1,15.2c0.3-2.7,3.3-4.8,3.3-4.8"/><path class="stroke" style="fill:none;stroke:currentColor;stroke-linejoin:round;stroke-width:1px;" d="M14.1,16.7c2.1-1.7,5.7-1.1,5.7-1.1"/><path class="stroke" style="fill:none;stroke:currentColor;stroke-linejoin:round;stroke-width:1px;" d="M13.7,18.5c2.7,0.3,4.8,3.3,4.8,3.3"/><path class="stroke" style="fill:none;stroke:currentColor;stroke-linejoin:round;stroke-width:1px;" d="M12.1,19.5c1.7,2.1,1.1,5.7,1.1,5.7"/><path class="stroke" style="fill:none;stroke:currentColor;stroke-linejoin:round;stroke-width:1px;" d="M10.3,19.1c-0.3,2.7-3.3,4.8-3.3,4.8"/><path class="stroke" style="fill:none;stroke:currentColor;stroke-linejoin:round;stroke-width:1px;" d="M9.3,17.5c-2.1,1.7-5.7,1.1-5.7,1.1"/><path class="stroke" style="fill:none;stroke:currentColor;stroke-linejoin:round;stroke-width:1px;" d="M9.8,15.7C7.1,15.4,5,12.4,5,12.4"/></g></svg>