<svg version="1.1" viewBox="0 0 32 32"  height="32px" width="32px" fill="none" stroke="black"><g id="order" transform="translate(3 1)"><polygon class="stroke" style="fill:none;stroke:currentColor;stroke-linejoin:round;stroke-width:1px;" points="23.5,6 23.5,29 0.5,29 0.5,0.5 17.9,0.5 "/><polyline class="stroke" style="fill:none;stroke:currentColor;stroke-linejoin:round;stroke-width:1px;" points="17,0.5 17,6.9 23.5,6.9 "/><line class="stroke" style="fill:none;stroke:currentColor;stroke-linejoin:round;stroke-width:1px;" x1="4.6" y1="19.8" x2="16.6" y2="19.8"/><line class="stroke" style="fill:none;stroke:currentColor;stroke-linejoin:round;stroke-width:1px;" x1="4.6" y1="16.1" x2="19.3" y2="16.1"/><line class="stroke" style="fill:none;stroke:currentColor;stroke-linejoin:round;stroke-width:1px;" x1="4.6" y1="23.5" x2="19.3" y2="23.5"/><path class="fill" style="fill:currentColor;stroke:none;" d="M9.1,7.4C8.3,7.2,7.6,6.9,7.6,6.3v0c0-0.5,0.5-0.9,1.2-0.9c0.6,0,1.2,0.2,1.8,0.6l0.4-0.7C10.4,5,9.8,4.8,9.2,4.7v-1H8.3v1C7.4,4.8,6.7,5.5,6.7,6.4v0c0,1.1,1,1.5,2,1.8c0.8,0.2,1.5,0.5,1.5,1.1v0c0,0.6-0.5,1-1.2,1c-0.7,0-1.4-0.3-2.1-0.8l-0.5,0.7C7,10.6,7.6,10.9,8.3,11V12h0.9v-0.9c1-0.1,1.8-0.8,1.8-1.8v0C11.1,8.1,10.1,7.7,9.1,7.4z"/></g></svg>