<svg version="1.1" viewBox="0 0 32 32"  height="32px" width="32px" fill="none" stroke="black"><g id="product" transform="translate(3 1)"><polygon class="stroke" style="fill:none;stroke:currentColor;stroke-linejoin:round;" points="26.5,21.4 26.5,8.3 13.5,0.6 0.5,8.3 0.5,21.4 13.5,29.1 "/><line class="stroke" style="fill:none;stroke:currentColor;stroke-linejoin:round;" x1="4.3" y1="16.7" x2="8.8" y2="19.5"/><polyline class="stroke" style="fill:none;stroke:currentColor;stroke-linejoin:round;" points="26.5,9.2 26.5,8.3 13.5,0.5 0.5,8.3 0.5,8.8 0.5,8.3 "/><polyline class="stroke" style="fill:none;stroke:currentColor;stroke-linejoin:round;" points="8.5,3.5 8.5,3.5 21.8,11.7 "/><polyline class="stroke" style="fill:none;stroke:currentColor;stroke-linejoin:round;" points="5.7,5.4 5.7,5.4 19,13.5 "/><polyline class="stroke" style="fill:none;stroke:currentColor;stroke-linejoin:round;" points="0.4,8.8 13.5,16.6 26.6,8.8 "/><line class="stroke" style="fill:none;stroke:currentColor;stroke-linejoin:round;" x1="13.5" y1="16.7" x2="13.5" y2="29.2"/><polyline class="stroke" style="fill:none;stroke:currentColor;stroke-linejoin:round;" points="18.7,13.5 18.7,18.1 21.9,16.2 21.9,11.9 "/></g></svg>