<svg version="1.1" viewBox="0 0 32 32"  height="32px" width="32px" fill="none" stroke="black"><g id="rail-yard" transform="translate(1 7)"><line class="stroke" style="fill:none;stroke:currentColor;stroke-linejoin:round;stroke-width:1px;" x1="0" y1="16.9" x2="28.5" y2="16.9"/><polygon class="stroke" style="fill:none;stroke:currentColor;stroke-linejoin:round;stroke-width:1px;" points="27.2,10.9 18.5,10.9 16.4,13.5 12.1,13.5 10.3,10.9 1.3,10.9 1.3,0.5 27.2,0.5 "/><circle class="stroke" style="fill:none;stroke:currentColor;stroke-linejoin:round;stroke-width:1px;" cx="3.5" cy="13" r="2.2"/><path class="stroke" style="fill:none;stroke:currentColor;stroke-linejoin:round;stroke-width:1px;" d="M10.5,11.1c-0.3-0.1-0.6-0.2-1-0.2c-1.2,0-2.2,1-2.2,2.2s1,2.2,2.2,2.2s2.2-1,2.2-2.2c0-0.1,0-0.1,0-0.2"/><path class="stroke" style="fill:none;stroke:currentColor;stroke-linejoin:round;stroke-width:1px;" d="M18.4,11c0.2-0.1,0.4-0.1,0.6-0.1c1.2,0,2.2,1,2.2,2.2s-1,2.2-2.2,2.2s-2.2-1-2.2-2.2c0,0,0-0.1,0-0.1"/><circle class="stroke" style="fill:none;stroke:currentColor;stroke-linejoin:round;stroke-width:1px;" cx="25" cy="13" r="2.2"/><line class="stroke" style="fill:none;stroke:currentColor;stroke-linejoin:round;stroke-width:1px;" x1="6.5" y1="3.5" x2="6.5" y2="7.8"/><line class="stroke" style="fill:none;stroke:currentColor;stroke-linejoin:round;stroke-width:1px;" x1="16.8" y1="3.5" x2="16.8" y2="7.8"/><line class="stroke" style="fill:none;stroke:currentColor;stroke-linejoin:round;stroke-width:1px;" x1="11.7" y1="3.5" x2="11.7" y2="7.8"/><line class="stroke" style="fill:none;stroke:currentColor;stroke-linejoin:round;stroke-width:1px;" x1="22" y1="3.5" x2="22" y2="7.8"/></g></svg>