<svg version="1.1" viewBox="0 0 32 32"  height="32px" width="32px" fill="none" stroke="black"><g id="settings" transform="scale(1.1 1.1) translate(4 4)"><circle class="stroke" style="fill:none;stroke:currentColor;stroke-linejoin:round;stroke-width:1px;" cx="11" cy="11" r="3.5"/><path class="stroke" style="fill:none;stroke:currentColor;stroke-linejoin:round;stroke-width:1px;" d="M18.75,9a7.94,7.94,0,0,0-.89-2.14l1.71-2.18L18.43,3.58,17.29,2.44h0L15.09,4.14A7.94,7.94,0,0,0,13,3.25L12.62.5H9.38L9,3.25a7.94,7.94,0,0,0-2.14.89L4.72,2.43,3.58,3.57,2.44,4.71h0L4.14,6.91A7.94,7.94,0,0,0,3.25,9L.5,9.38v3.23h0L3.25,13a7.94,7.94,0,0,0,.89,2.14L2.43,17.28l1.14,1.14,1.15,1.15h0l2.18-1.71A7.94,7.94,0,0,0,9,18.75l.34,2.75h3.24L13,18.75a7.94,7.94,0,0,0,2.14-.89l2.18,1.71,1.14-1.14,1.15-1.15h0l-1.71-2.18A7.94,7.94,0,0,0,18.75,13l2.75-.34V9.39h0Z"/></g></svg>