<svg version="1.1" viewBox="0 0 32 32"  height="32px" width="32px" fill="none" stroke="black"><g id="sliders" transform="translate(1 5)"><line class="stroke" style="fill:none;stroke:currentColor;stroke-linejoin:round;" x1="29.4" y1="4.2" x2="23" y2="4.2"/><line class="stroke" style="fill:none;stroke:currentColor;stroke-linejoin:round;" x1="15.6" y1="4.2" x2="0" y2="4.2"/><line class="stroke" style="fill:none;stroke:currentColor;stroke-linejoin:round;" x1="29.4" y1="17" x2="13.8" y2="17"/><line class="stroke" style="fill:none;stroke:currentColor;stroke-linejoin:round;" x1="6.4" y1="17" x2="0" y2="17"/><path class="stroke" style="fill:none;stroke:currentColor;stroke-linejoin:round;" d="M22,7.8h-5.3c-0.6,0-1-0.4-1-1V1.5c0-0.6,0.4-1,1-1H22c0.6,0,1,0.4,1,1v5.3C23,7.4,22.5,7.8,22,7.8z"/><path class="stroke" style="fill:none;stroke:currentColor;stroke-linejoin:round;" d="M12.8,20.7H7.4c-0.6,0-1-0.4-1-1v-5.3c0-0.6,0.4-1,1-1h5.3c0.6,0,1,0.4,1,1v5.3C13.8,20.3,13.3,20.7,12.8,20.7z"/></g></svg>