<svg version="1.1" viewBox="0 0 32 32"  height="32px" width="32px" fill="none" stroke="black"><g id="solar-panel" transform="translate(1 1)"><polyline class="stroke" style="fill:none;stroke:currentColor;stroke-linejoin:round;stroke-width:1px;" points="16.3,13 29.3,13 29.3,27.4 12,27.4 12,15.4 "/><line class="stroke" style="fill:none;stroke:currentColor;stroke-linejoin:round;stroke-width:1px;" x1="17.8" y1="13" x2="17.8" y2="27.4"/><line class="stroke" style="fill:none;stroke:currentColor;stroke-linejoin:round;stroke-width:1px;" x1="23.5" y1="13" x2="23.5" y2="27.4"/><line class="stroke" style="fill:none;stroke:currentColor;stroke-linejoin:round;stroke-width:1px;" x1="12" y1="22.6" x2="29.3" y2="22.6"/><line class="stroke" style="fill:none;stroke:currentColor;stroke-linejoin:round;stroke-width:1px;" x1="12" y1="17.8" x2="29.3" y2="17.8"/><circle class="stroke" style="fill:none;stroke:currentColor;stroke-linejoin:round;stroke-width:1px;" cx="8.2" cy="8.2" r="3.8"/><line class="stroke" style="fill:none;stroke:currentColor;stroke-linejoin:round;stroke-width:1px;" x1="8.2" y1="0" x2="8.2" y2="2.9"/><line class="stroke" style="fill:none;stroke:currentColor;stroke-linejoin:round;stroke-width:1px;" x1="16.3" y1="8.2" x2="13.5" y2="8.2"/><line class="stroke" style="fill:none;stroke:currentColor;stroke-linejoin:round;stroke-width:1px;" x1="8.2" y1="16.3" x2="8.2" y2="13.5"/><line class="stroke" style="fill:none;stroke:currentColor;stroke-linejoin:round;stroke-width:1px;" x1="0" y1="8.2" x2="2.9" y2="8.2"/><line class="stroke" style="fill:none;stroke:currentColor;stroke-linejoin:round;stroke-width:1px;" x1="13.9" y1="2.4" x2="11.9" y2="4.4"/><line class="stroke" style="fill:none;stroke:currentColor;stroke-linejoin:round;stroke-width:1px;" x1="13.9" y1="13.9" x2="11.9" y2="11.9"/><line class="stroke" style="fill:none;stroke:currentColor;stroke-linejoin:round;stroke-width:1px;" x1="2.4" y1="13.9" x2="4.4" y2="11.9"/><line class="stroke" style="fill:none;stroke:currentColor;stroke-linejoin:round;stroke-width:1px;" x1="2.4" y1="2.4" x2="4.4" y2="4.4"/></g></svg>