<svg version="1.1" viewBox="0 0 32 32"  height="32px" width="32px" fill="none" stroke="black"><g id="tree" transform="translate(1 3)"><rect x="0.5" y="0.5" class="stroke" style="fill:none;stroke:currentColor;stroke-linejoin:round;" width="5.5" height="5.5"/><path class="stroke" style="fill:none;stroke:currentColor;stroke-linejoin:round;" d="M9.1,15.5H5.6c-0.6,0-1-0.4-1-1v-3.5c0-0.6,0.4-1,1-1h3.5c0.6,0,1,0.4,1,1v3.5C10.1,15.1,9.6,15.5,9.1,15.5z"/><path class="stroke" style="fill:none;stroke:currentColor;stroke-linejoin:round;" d="M9.1,25.1H5.6c-0.6,0-1-0.4-1-1v-3.5c0-0.6,0.4-1,1-1h3.5c0.6,0,1,0.4,1,1v3.5C10.1,24.6,9.6,25.1,9.1,25.1z"/><line class="stroke" style="fill:none;stroke:currentColor;stroke-linejoin:round;" x1="8" y1="3.2" x2="25.7" y2="3.2"/><line class="stroke" style="fill:none;stroke:currentColor;stroke-linejoin:round;" x1="12.1" y1="12.8" x2="29.8" y2="12.8"/><line class="stroke" style="fill:none;stroke:currentColor;stroke-linejoin:round;" x1="12.1" y1="22.3" x2="29.8" y2="22.3"/></g></svg>