<svg version="1.1" viewBox="0 0 32 32"  height="32px" width="32px" fill="none" stroke="black"><g id="truck" transform="translate(2 5)"><line class="stroke" style="fill:none;stroke:currentColor;stroke-linejoin:round;" x1="8.7" y1="19.5" x2="5.9" y2="19.5"/><polyline class="stroke" style="fill:none;stroke:currentColor;stroke-linejoin:round;" points="13.1,19.5 16.8,19.5 16.8,5.9 22.2,5.9 28.5,12.3 28.5,19.5 25.4,19.5 "/><path class="stroke" style="fill:none;stroke:currentColor;stroke-linejoin:round;" d="M19.5,11.3V8.6h2.4l2.1,2.2c0.2,0.2,0.1,0.5-0.2,0.5H19.5z"/><line class="stroke" style="fill:none;stroke:currentColor;stroke-linejoin:round;" x1="21.7" y1="19.5" x2="17.2" y2="19.5"/><circle class="stroke" style="fill:none;stroke:currentColor;stroke-linejoin:round;" cx="3.7" cy="19.9" r="2.3"/><circle class="stroke" style="fill:none;stroke:currentColor;stroke-linejoin:round;" cx="10.9" cy="19.9" r="2.3"/><circle class="stroke" style="fill:none;stroke:currentColor;stroke-linejoin:round;" cx="23.6" cy="19.9" r="2.3"/><polyline class="stroke" style="fill:none;stroke:currentColor;stroke-linejoin:round;" points="15,3.2 15,3.2 0.5,3.2 0.5,19.5 1.9,19.5 "/><path class="stroke" style="fill:none;stroke:currentColor;stroke-linejoin:round;" d="M14.1,0.5h1.4c0.7,0,1.4,0.6,1.4,1.4v5"/></g></svg>