<svg version="1.1" viewBox="0 0 32 32"  height="32px" width="32px" fill="none" stroke="black"><g id="users" transform="translate(1 5)"><polyline class="stroke" style="fill:none;stroke:currentColor;stroke-linejoin:round;stroke-width:1px;" points="14.3,13.2 18.3,16.9 18.3,22.1 0.5,22.1 0.5,16.9 4.6,13.2 "/><path class="stroke" style="fill:none;stroke:currentColor;stroke-linejoin:round;stroke-width:1px;" d="M9.4,13.6L9.4,13.6c-2.3,0-4.2-1.9-4.2-4.2V7.5c0-2.3,1.9-4.2,4.2-4.2h0c2.3,0,4.2,1.9,4.2,4.2v1.9C13.6,11.7,11.7,13.6,9.4,13.6z"/><polyline class="stroke" style="fill:none;stroke:currentColor;stroke-linejoin:round;stroke-width:1px;" points="25.5,10.3 29.6,14.1 29.6,19.2 20.7,19.2 "/><path class="stroke" style="fill:none;stroke:currentColor;stroke-linejoin:round;stroke-width:1px;" d="M20.7,10.8L20.7,10.8c-2.3,0-4.2-1.9-4.2-4.2V4.7c0-2.3,1.9-4.2,4.2-4.2h0c2.3,0,4.2,1.9,4.2,4.2v1.9C24.9,8.9,23,10.8,20.7,10.8z"/></g></svg>