<svg version="1.1" viewBox="0 0 32 32"  height="32px" width="32px" fill="none" stroke="black"><g id="wind-turbine" transform="translate(4 1)"><circle class="stroke" style="fill:none;stroke:currentColor;stroke-linejoin:round;" cx="12.8" cy="12.8" r="2.3"/><line class="stroke" style="fill:none;stroke:currentColor;stroke-linejoin:round;" x1="11.4" y1="17.4" x2="9.7" y2="28.8"/><line class="stroke" style="fill:none;stroke:currentColor;stroke-linejoin:round;" x1="16" y1="28.8" x2="14.2" y2="17.4"/><path class="stroke" style="fill:none;stroke:currentColor;stroke-linejoin:round;" d="M12.5,10.6l-1.3-1.9c-0.4-0.6-0.4-1.3-0.1-1.9l3.2-6.3H16L14.2,11"/><path class="stroke" style="fill:none;stroke:currentColor;stroke-linejoin:round;" d="M14.9,13.7l2.3-0.2c0.7-0.1,1.3,0.2,1.7,0.8l3.9,5.9l-0.9,1.6l-8.2-6.8"/><path class="stroke" style="fill:none;stroke:currentColor;stroke-linejoin:round;" d="M11,14.2l-1,2.1c-0.3,0.6-0.9,1-1.6,1.1l-7.1,0.4l-0.9-1.6l10-3.7"/><line class="stroke" style="fill:none;stroke:currentColor;stroke-linejoin:round;" x1="5.9" y1="28.8" x2="19.6" y2="28.8"/></g></svg>