<svg viewBox="0 0 32 32" height="32" width="32">
  <g id="administration">
    <path d="M21.7 25.5l3 2.3 1.6-1.6 1.6-1.6-2.3-3c.5-.9 1-1.9 1.2-2.9l3.8-.5v-4.4l-3.8-.5c-.3-1-.7-2-1.2-2.9l2.3-3-1.6-1.6-1.6-1.6-3 2.3c-.9-.5-1.9-1-2.9-1.2l-.5-3.8h-4.4l-.5 3.8c-1 .3-2 .7-2.9 1.2l-3-2.3-1.7 1.6-1.5 1.6 2.3 3c-.5.9-1 1.9-1.2 2.9l-3.8.5v4.4l3.8.5c.3 1 .7 2 1.2 2.9l-2.3 3 1.6 1.6 1.6 1.6 3-2.3" stroke-linejoin="round"/>
    <path d="M22.1 16c0-2.5-1.5-4.7-3.7-5.6v6.1h-4.7v-6.1c-2.2 1-3.7 3.1-3.7 5.6 0 2.1 1.1 4 2.8 5.1v9.4h6.5v-9.4c1.7-1 2.8-2.9 2.8-5.1z" stroke-linejoin="round"/>
  </g>
</svg>
