<svg viewBox="0 0 32 32" height="32" width="32">
  <g id="attribute" transform="translate(3)">
    <path d="M4.9 19.9c-.2 0-.2-.1-.2-.2v-.4c0-.2.1-.2.2-.2h1.6v-5.9l-1.5.9c-.1.1-.2.1-.3-.1l-.2-.3c-.1-.1-.1-.2.1-.3l1.8-1.2c.1-.1.2-.1.4-.1h.4c.2 0 .2.1.2.2v6.8h1.5c.2 0 .2.1.2.2v.4c0 .2-.1.2-.2.2h-4zm6 0c-.2 0-.2-.1-.2-.2v-.4c0-1.5.9-2.4 2.2-3.3.7-.5 1.4-.9 1.4-1.8 0-.8-.4-1.3-1.5-1.3-.6 0-1.1.2-1.5.5-.1.1-.2.1-.3 0l-.2-.3c-.1-.1-.1-.2 0-.3.4-.3 1.1-.6 2-.6 1.7 0 2.4.9 2.4 2.1 0 1.3-1 1.9-1.9 2.5-.8.5-1.8 1.3-1.8 2.5H15c.2 0 .2.1.2.2v.4c0 .2-.1.2-.2.2h-4.1zm8.1.1c-.9 0-1.6-.3-2.1-.6-.1-.1-.1-.2 0-.3l.2-.3c.1-.1.2-.1.3 0 .4.3.9.5 1.6.5 1.1 0 1.7-.6 1.7-1.6 0-.9-.5-1.6-1.7-1.6h-.2c-.1 0-.2 0-.3-.2l-.1-.1c-.1-.1-.1-.2 0-.3l1.9-2.4h-2.9c-.2 0-.2-.1-.2-.2v-.4c0-.2.1-.2.2-.2h3.8c.2 0 .2.1.2.2v.2c0 .2 0 .3-.1.4l-1.1 1.5c-.1.2-.6.7-.8.9 1.6.1 2.4 1.1 2.4 2.3-.1 1.1-.9 2.2-2.8 2.2z"/>
    <path stroke-linejoin="round" d="M25.5 31.5H.5v-23l12.7-8 12.3 8zM5 23.5h16m-14 3h12"/>
    <circle cx="13" cy="6.5" r="1.5"/>
  </g>
</svg>
