<svg viewBox="0 0 32 32" height="32" width="32">
  <g id="automobile" transform="translate(1 9)">
    <circle cx="6.3" cy="12.9" r="2.5" stroke-linejoin="round"/>
    <circle cx="23.7" cy="12.9" r="2.5" stroke-linejoin="round"/>
    <path stroke-linejoin="round" d="M21.2 12.9H8.8m-5 0H1.3c-.5 0-.8-.4-.8-.8V7.7c0-.4.2-.7.5-.8l5.3-1.4 1.8-3.8C8.5 1 9.3.5 10.2.5h6.7c.7 0 1.3.3 1.8.7l3.2 4c.1.1.3.2.5.2l5.9 1.3c.7.3 1.2 1 1.2 1.7v3.7c0 .5-.4.8-.8.8h-2.5"/>
    <path d="M8.2 6.3l1.6-3.7c.1-.2.4-.4.7-.4h6.1c.2 0 .4.1.5.2l2.7 3.9H8.2zm5.5-4.1v4.1m13.3.4v2.1h2.5" stroke-linejoin="round"/>
  </g>
</svg>
