<svg viewBox="0 0 32 32" height="32" width="32">
  <g id="block" transform="translate(1 1)">
    <path d="M1.4.7l5.5 2.5v7.2s-5.5 2.7-5.5 2.5V.7zm10.9 0L6.9 3.2v7.2s5.5 2.7 5.5 2.5V.7zm9.1 3.7l-4.5-3v10.9s4.5-2.7 4.5-3l6.4 3.9V.5s-6.4 3.6-6.4 3.9z" stroke-linejoin="round"/>
    <path stroke-linejoin="round" stroke-linecap="round" d="M28.7 6.9h-.9"/>
    <path stroke-linejoin="round" d="M16.9 7.8h-4.6M16.9 6h-4.6"/>
    <path stroke-linejoin="round" stroke-linecap="round" d="M1.4 6.9H.5"/>
    <path stroke-linejoin="round" d="M21.4 9.4v-5m-20 11.8l5.5 2.5v7.2s-5.5 2.7-5.5 2.5V16.2z"/>
    <path d="M12.3 16.2l-5.5 2.5v7.2s5.5 2.7 5.5 2.5V16.2zm9.1 3.6l-4.5-3v10.9s4.5-2.7 4.5-3l6.4 3.9V16s-6.4 3.6-6.4 3.8z" stroke-linejoin="round"/>
    <path stroke-linejoin="round" stroke-linecap="round" d="M28.7 22.3h-.9"/>
    <path stroke-linejoin="round" d="M16.9 23.2h-4.6m4.6-1.8h-4.6"/>
    <path stroke-linejoin="round" stroke-linecap="round" d="M1.4 22.3H.5"/>
    <path stroke-linejoin="round" d="M21.4 24.8v-5"/>
  </g>
</svg>
