<svg viewBox="0 0 32 32" height="32" width="32">
  <g id="cog" transform="matrix(1.1 0 0 1.1 4.4 4.4)">
    <circle cx="11" cy="11" r="3.5" stroke-linejoin="round"/>
    <path d="M18.75 9a7.94 7.94 0 0 0-.89-2.14l1.71-2.18-1.14-1.1-1.14-1.14-2.2 1.7A7.94 7.94 0 0 0 13 3.25L12.62.5H9.38L9 3.25a7.94 7.94 0 0 0-2.14.89L4.72 2.43 3.58 3.57 2.44 4.71l1.7 2.2A7.94 7.94 0 0 0 3.25 9L.5 9.38v3.23l2.75.39a7.94 7.94 0 0 0 .89 2.14l-1.71 2.14 1.14 1.14 1.15 1.15 2.18-1.71a7.94 7.94 0 0 0 2.1.89l.34 2.75h3.24l.42-2.75a7.94 7.94 0 0 0 2.14-.89l2.18 1.71 1.14-1.14 1.15-1.15-1.71-2.18a7.94 7.94 0 0 0 .85-2.1l2.75-.34V9.39z" stroke-linejoin="round"/>
  </g>
</svg>
