<svg viewBox="0 0 32 32" height="32" width="32">
  <g id="deployment" transform="translate(1 1)">
    <path stroke-linejoin="round" d="M10 15.1l-3-2.9-3.4 2-3.1-3.1 2.7-2.7 12-1.8"/>
    <path d="M10.8 16l5 5s6.1-4.7 10.9-9.5 2-10.2 2-10.2-5.4-2.7-10.2 2-9.4 10.9-9.4 10.9l1.7 1.8" stroke-linejoin="round"/>
    <ellipse transform="rotate(-45.001 23.336 6.72)" cx="23.3" cy="6.7" rx="2.9" ry="2.9" stroke-linejoin="round"/>
    <path stroke-linejoin="round" d="M13.8 22.5l-6.3-6.2m15.4-1.4l-1.2 11.9-2.7 2.8-3.2-3.2 2.1-3.4-2-2m-12.4.1c1.4-1.4 3.6-1.4 5 0s1.4 3.6 0 5C6.7 27.9 2 27.5 2 27.5s-.3-4.6 1.5-6.4z"/>
  </g>
</svg>
