<svg viewBox="0 0 32 32" height="32" width="32">
  <g id="formula" transform="translate(1 10)">
    <path d="M1 12.9c.6-.6 1-1.1 1.4-1.7V11l-.1-.2C1.4 9.1.4 6.4 0 4.5v-.1h1.5c.4 1.9 1 3.9 1.5 4.8l.3.7.3-.7C4.2 7.7 4.7 5.9 5 4.4h1.2v.1c-.3 1.2-.9 3-1.5 4.5-.9 2.1-1.9 3.6-2.9 4.5l-.8-.6zm16.8.7c-.2 0-.4-.2-.5-.4l-1.5-5.9h-1.7v-1h2.1c.2 0 .4.2.5.4l1.2 4.6 3.4-11c.1-.2.3-.3.5-.3h7.6v1h-7.2l-3.8 12.3c-.1.2-.3.3-.6.3z"/>
    <path d="M25.7 9.1l-2.6 2.6-.6-.7L25 8.4l-2.5-2.6.6-.7 2.6 2.6 2.6-2.6.7.7-2.6 2.6L29 11l-.7.7zM7.9 6.3H12v1H7.9zm0 2.2H12v1H7.9z"/>
  </g>
</svg>
