<svg viewBox="0 0 32 32" height="32" width="32">
  <g id="gas-turbine" transform="translate(1 6)">
    <path stroke-linejoin="round" d="M4.2 2.3l4.7 2.4"/>
    <path stroke-linejoin="round" stroke-linecap="round" d="M4.2 18.7V0"/>
    <path stroke-linejoin="round" d="M4.2 16.4L8.9 14m0-.4V5.1M4.2 14c-.9.5-1.9 1-2.8 1.4-.4-1.3-.9-3.4-.9-6 0-1.4.1-3.6.9-6.1.9.5 1.9 1 2.8 1.4m4.7 0h5.6v9.4H8.9zM22 14.3l5.6 3c.7-1.3 1.9-4.2 1.9-8 0-1.5-.2-4.6-1.9-8-2.2 1-3.4 2-5.6 3v10zM14.5 1.9h2.8v3.7h-2.8zm2.8.9H22v1.9h-4.7zm-2.8 4.7h2.8v3.7h-2.8zm2.8.9H22v1.9h-4.7zm-2.8 4.7h2.8v3.7h-2.8zm2.8.9H22v1.9h-4.7z"/>
  </g>
</svg>
