<svg viewBox="0 0 32 32" height="32" width="32">
  <g id="locomotive" transform="translate(1 5)">
    <path stroke-linejoin="round" d="M.1 18.5h28.7M2.7 10.4h23l2.7 5.4h-3.6l-.9-2.7H6.8l-.9 2.7H.5V.5h18.9L21.2 5h4.5v5.4"/>
    <path d="M11.7 13.1c.3.4.4.8.4 1.3 0 1.2-1 2.2-2.2 2.2s-2.2-1-2.2-2.2c0-.5.2-1 .4-1.3m9 0c.3.4.4.8.4 1.3 0 1.2-1 2.2-2.2 2.2s-2.2-1-2.2-2.2c0-.5.2-1 .4-1.3m9 0c.3.4.4.8.4 1.3 0 1.2-1 2.2-2.2 2.2-1.2 0-2.2-1-2.2-2.2 0-.5.2-1 .4-1.3m1.3-10.8h-4.4l.4 1.4c.2.8.7 1.3 1.3 1.3h4" stroke-linejoin="round"/>
  </g>
</svg>
