<svg viewBox="0 0 32 32" height="32" width="32">
  <g id="machine" transform="translate(4 1)">
    <path d="M.5 17.1C.5 7.9 5.5.5 11.7.5S23 7.9 23 17.1" stroke-linejoin="round"/>
    <circle cx="11.7" cy="17.1" r="2.2" stroke-linejoin="round"/>
    <path d="M11.7 28.4C5.5 28.4.5 23.4.5 17.2S5.5 6 11.7 6 23 10.9 23 17.1s-5.1 11.3-11.3 11.3zm-.4-13.7c-1.6-2.1-1-5.7-1-5.7m2.8 6.2c.3-2.7 3.3-4.8 3.3-4.8m-2.3 6.3c2.1-1.7 5.7-1.1 5.7-1.1m-6.1 2.9c2.7.3 4.8 3.3 4.8 3.3m-6.4-2.3c1.7 2.1 1.1 5.7 1.1 5.7m-2.9-6.1C10 21.8 7 23.9 7 23.9m2.3-6.4c-2.1 1.7-5.7 1.1-5.7 1.1m6.2-2.9C7.1 15.4 5 12.4 5 12.4" stroke-linejoin="round"/>
  </g>
</svg>
