<svg viewBox="0 0 32 32" height="32" width="32">
  <g id="order" transform="translate(3 1)">
    <path stroke-linejoin="round" d="M23.5 6v23H.5V.5h17.4z"/>
    <path stroke-linejoin="round" d="M17 .5v6.4h6.5M4.6 19.8h12m-12-3.7h14.7M4.6 23.5h14.7"/>
    <path d="M9.1 7.4c-.8-.2-1.5-.5-1.5-1.1 0-.5.5-.9 1.2-.9.6 0 1.2.2 1.8.6l.4-.7c-.6-.3-1.2-.5-1.8-.6v-1h-.9v1c-.9.1-1.6.8-1.6 1.7 0 1.1 1 1.5 2 1.8.8.2 1.5.5 1.5 1.1 0 .6-.5 1-1.2 1s-1.4-.3-2.1-.8l-.5.7c.6.4 1.2.7 1.9.8v1h.9v-.9c1-.1 1.8-.8 1.8-1.8.1-1.2-.9-1.6-1.9-1.9z"/>
  </g>
</svg>
