<svg viewBox="0 0 32 32" height="32" width="32">
  <g id="rail-yard" transform="translate(1 7)">
    <path stroke-linejoin="round" d="M0 16.9h28.5m-1.3-6h-8.7l-2.1 2.6h-4.3l-1.8-2.6h-9V.5h25.9z"/>
    <circle cx="3.5" cy="13" r="2.2" stroke-linejoin="round"/>
    <path d="M10.5 11.1c-.3-.1-.6-.2-1-.2-1.2 0-2.2 1-2.2 2.2s1 2.2 2.2 2.2 2.2-1 2.2-2.2v-.2m6.7-1.9c.2-.1.4-.1.6-.1 1.2 0 2.2 1 2.2 2.2s-1 2.2-2.2 2.2-2.2-1-2.2-2.2V13" stroke-linejoin="round"/>
    <circle cx="25" cy="13" r="2.2" stroke-linejoin="round"/>
    <path stroke-linejoin="round" d="M6.5 3.5v4.3m10.3-4.3v4.3m-5.1-4.3v4.3M22 3.5v4.3"/>
  </g>
</svg>
