<svg viewBox="0 0 32 32" height="32" width="32">
  <g id="steam-turbine" transform="translate(1 8)">
    <path d="M1.4 2.6L7 4.2v7.4c-1.5.6-4.1 1.1-5.6 1.7V2.6zm22.4 0L19.1.5v14.9c1.5-.7 3.1-1.4 4.7-2.1l4.7 2.1V.5c-1.6.7-3.2 1.4-4.7 2.1zm-7.5 11.9l-5.6-2.1V3.5c1.5-.7 4.1-1.4 5.6-2.1v13.1zm-5.6-8.4H7m3.7 3.7H7" stroke-linejoin="round"/>
    <path stroke-linejoin="round" stroke-linecap="round" d="M29.3 7.9h-.9"/>
    <path stroke-linejoin="round" d="M19.1 9.8h-2.8m2.8-3.7h-2.8"/>
    <path stroke-linejoin="round" stroke-linecap="round" d="M1.4 7.9H.5"/>
    <path stroke-linejoin="round" d="M23.8 13.3V2.6"/>
  </g>
</svg>
