<svg id="Layer_1" data-name="Layer 1" xmlns="http://www.w3.org/2000/svg" viewBox="0 0 32 32"><title>crew_32x32</title><path fill="none" stroke="#4C6472" stroke-miterlimit="10" d="M16,15.5L16,15.5c-1.9,0-3.5-1.6-3.5-3.5v-2c0-1.9,1.6-3.5,3.5-3.5h0
	c1.9,0,3.5,1.6,3.5,3.5v2C19.5,14,17.9,15.5,16,15.5z"/><path fill="none" stroke="#4C6472" stroke-linejoin="round" stroke-miterlimit="10" d="M21,15l2.5,2.6v7.9H8.6v-7.9L11,15"/>
<path fill="none" stroke="#4C6472" stroke-miterlimit="10" d="M8.5,13.5L8.5,13.5c-1.1,0-2-0.9-2-2v-1c0-1.1,0.9-2,2-2h0
	c1.1,0,2,0.9,2,2v1C10.5,12.6,9.6,13.5,8.5,13.5z"/><path fill="none" stroke="#4C6472" stroke-miterlimit="10" d="M23.5,13.5L23.5,13.5c-1.1,0-2-0.9-2-2v-1c0-1.1,0.9-2,2-2h0
	c1.1,0,2,0.9,2,2v1C25.5,12.6,24.6,13.5,23.5,13.5z"/><polyline fill="none" stroke="#4C6472" stroke-linejoin="round" stroke-miterlimit="10" points="7,22.5 4.5,22.5 4.5,15.5 6,14 "/><polyline fill="none" stroke="#4C6472" stroke-linejoin="round" stroke-miterlimit="10" points="25,22.5 27.5,22.5 27.5,15.5 26,14
	"/></svg>
