<svg id="Layer_1" data-name="Layer 1" xmlns="http://www.w3.org/2000/svg" viewBox="0 0 30 27.01">
  <title>
    catalog_32x32
  </title>
  <path d="M16 24.84V7.36a3.86 3.86 0 0 0-3.87-3.85H1.5V26.6h11.56A2.93 2.93 0 0 1 16 29.53V30" transform="translate(-1 -3.01)" stroke-miterlimit="10"/>
  <path d="M16 24.84V7.36a3.86 3.86 0 0 1 3.87-3.85H30.5V26.6H18.94A2.93 2.93 0 0 0 16 29.53V30" transform="translate(-1 -3.01)" stroke-miterlimit="10"/>
  <path stroke-miterlimit="10" d="M5.47 5.46h5v5h-5zm0 8.03h5v5h-5zM19.5 5.46h5v5h-5zm0 8.03h5v5h-5z"/>
</svg>
