<svg xmlns="http://www.w3.org/2000/svg" viewBox="0 0 15.45 15.42">
  <title>
    app_settings_16x16
  </title>
  <path d="M7.74 5.3a2.4 2.4 0 1 1-2.41 2.41A2.4 2.4 0 0 1 7.74 5.3zm5.31 1.06a5.44 5.44 0 0 0-.6-1.47l1.17-1.5-.78-.78-.79-.79L10.53 3a5.44 5.44 0 0 0-1.46-.6L8.84.5H6.62l-.23 1.92a5.44 5.44 0 0 0-1.47.6l-1.5-1.2-.78.78-.79.79L3.03 4.9a5.44 5.44 0 0 0-.6 1.46L.5 6.59V8.8l1.92.23a5.44 5.44 0 0 0 .6 1.47l-1.16 1.51.78.78.79.79 1.51-1.17a5.44 5.44 0 0 0 1.47.6l.23 1.92h2.2l.23-1.92a5.44 5.44 0 0 0 1.47-.6l1.5 1.17.78-.78.79-.79-1.17-1.51a5.44 5.44 0 0 0 .6-1.47l1.92-.23V6.6z"/>
</svg>
