<svg viewBox="0 0 22 22" version="1.1" xmlns="http://www.w3.org/2000/svg" xmlns:xlink="http://www.w3.org/1999/xlink">
    <title>applications_22x22</title>
    <g stroke="none" stroke-width="1" fill="none">
        <g transform="translate(-685.000000, -395.000000)" stroke="#2C404C">
            <g transform="translate(100.000000, 164.000000)">
                <g transform="translate(585.000000, 231.000000)">
                    <path d="M5.5,3 C5.5,4.381 4.381,5.5 3,5.5 C1.619,5.5 0.5,4.381 0.5,3 C0.5,1.619 1.619,0.5 3,0.5 C4.381,0.5 5.5,1.619 5.5,3 Z"></path>
                    <path d="M21.5,3 C21.5,4.381 20.381,5.5 19,5.5 C17.619,5.5 16.5,4.381 16.5,3 C16.5,1.619 17.619,0.5 19,0.5 C20.381,0.5 21.5,1.619 21.5,3 Z"></path>
                    <path d="M13.5,3 C13.5,4.381 12.381,5.5 11,5.5 C9.619,5.5 8.5,4.381 8.5,3 C8.5,1.619 9.619,0.5 11,0.5 C12.381,0.5 13.5,1.619 13.5,3 Z"></path>
                    <path d="M5.5,19 C5.5,20.381 4.381,21.5 3,21.5 C1.619,21.5 0.5,20.381 0.5,19 C0.5,17.619 1.619,16.5 3,16.5 C4.381,16.5 5.5,17.619 5.5,19 Z"></path>
                    <path d="M21.5,19 C21.5,20.381 20.381,21.5 19,21.5 C17.619,21.5 16.5,20.381 16.5,19 C16.5,17.619 17.619,16.5 19,16.5 C20.381,16.5 21.5,17.619 21.5,19 Z"></path>
                    <path d="M13.5,19 C13.5,20.381 12.381,21.5 11,21.5 C9.619,21.5 8.5,20.381 8.5,19 C8.5,17.619 9.619,16.5 11,16.5 C12.381,16.5 13.5,17.619 13.5,19 Z"></path>
                    <path d="M5.5,11 C5.5,12.381 4.381,13.5 3,13.5 C1.619,13.5 0.5,12.381 0.5,11 C0.5,9.619 1.619,8.5 3,8.5 C4.381,8.5 5.5,9.619 5.5,11 Z"></path>
                    <path d="M21.5,11 C21.5,12.381 20.381,13.5 19,13.5 C17.619,13.5 16.5,12.381 16.5,11 C16.5,9.619 17.619,8.5 19,8.5 C20.381,8.5 21.5,9.619 21.5,11 Z"></path>
                    <path d="M13.5,11 C13.5,12.381 12.381,13.5 11,13.5 C9.619,13.5 8.5,12.381 8.5,11 C8.5,9.619 9.619,8.5 11,8.5 C12.381,8.5 13.5,9.619 13.5,11 Z"></path>
                </g>
            </g>
        </g>
    </g>
</svg>
