<svg xmlns="http://www.w3.org/2000/svg" width="22" height="22" viewBox="0 0 22 22" fill="none">
  <g transform="translate(3 3)">
    <path d="M7.41538 0.830766C6.28406 0.944319 5.22623 1.44358 4.41945 2.24476C3.61267 3.04594 3.10605 4.10026 2.98461 5.23077C2.92093 6.02066 3.05007 6.81419 3.36094 7.54313C3.67181 8.27206 4.15509 8.91456 4.76923 9.41538C4.95226 9.5571 5.10019 9.73906 5.20157 9.94716C5.30295 10.1553 5.35506 10.3839 5.35384 10.6154C5.35379 10.7796 5.38662 10.9422 5.45039 11.0936C5.51415 11.245 5.60757 11.382 5.72514 11.4967C5.8427 11.6114 5.98204 11.7014 6.13493 11.7614C6.28783 11.8215 6.45118 11.8503 6.61538 11.8462H9.38461C9.71103 11.8462 10.0241 11.7165 10.2549 11.4857C10.4857 11.2549 10.6154 10.9418 10.6154 10.6154C10.6142 10.3839 10.6663 10.1553 10.7677 9.94716C10.869 9.73906 11.017 9.5571 11.2 9.41538C11.7605 8.96206 12.2138 8.39049 12.5276 7.74155C12.8415 7.09261 13.008 6.38234 13.0154 5.66154C13.0462 2.8 10.4615 0.523074 7.41538 0.830766ZM10.1538 13.2923H5.84615C5.72074 13.2921 5.59997 13.3397 5.50848 13.4255C5.41699 13.5112 5.36168 13.6287 5.35384 13.7538C5.35384 14.1374 5.50621 14.5052 5.77741 14.7764C6.04862 15.0476 6.41645 15.2 6.8 15.2H9.2C9.58354 15.2 9.95138 15.0476 10.2226 14.7764C10.4938 14.5052 10.6462 14.1374 10.6462 13.7538C10.6383 13.6287 10.583 13.5112 10.4915 13.4255C10.4 13.3397 10.2793 13.2921 10.1538 13.2923Z" fill="#5BB531"/>
  </g>
</svg>