<svg width="21" height="18" viewBox="0 0 21 18" fill="none" xmlns="http://www.w3.org/2000/svg">
  <path d="M4.5 5.625H2.625" stroke="#A3B5BF" stroke-linecap="square"/>
  <path d="M1.875 5.625V12.375" stroke="#A3B5BF" stroke-linecap="square"/>
  <path d="M5.625 12.375H2.625" stroke="#A3B5BF" stroke-linecap="square"/>
  <path d="M6.375 12.375L4.875 13.875" stroke="#A3B5BF" stroke-linecap="square"/>
  <path d="M6.375 12.375L4.875 10.875" stroke="#A3B5BF" stroke-linecap="square"/>
  <path fill-rule="evenodd" clip-rule="evenodd" d="M19.5 10.875V13.875C19.5 14.1 19.35 14.25 19.125 14.25H7.875C7.65 14.25 7.5 14.1 7.5 13.875V10.875C7.5 10.65 7.65 10.5 7.875 10.5H19.125C19.35 10.5 19.5 10.65 19.5 10.875ZM8.25 11.25V13.5H18.75V11.25H8.25ZM16.5 7.125V4.125C16.5 3.9 16.35 3.75 16.125 3.75L4.875 3.75C4.65 3.75 4.5 3.9 4.5 4.125V7.125C4.5 7.35 4.65 7.5 4.875 7.5L16.125 7.5C16.35 7.5 16.5 7.35 16.5 7.125ZM5.25 4.5V6.75L15.75 6.75V4.5L5.25 4.5Z" fill="#8A939C"/>
  <mask id="mask0_56_590" style="mask-type:alpha" maskUnits="userSpaceOnUse" x="4" y="3" width="16" height="12">
  <path fill-rule="evenodd" clip-rule="evenodd" d="M19.5 10.875V13.875C19.5 14.1 19.35 14.25 19.125 14.25H7.875C7.65 14.25 7.5 14.1 7.5 13.875V10.875C7.5 10.65 7.65 10.5 7.875 10.5H19.125C19.35 10.5 19.5 10.65 19.5 10.875ZM8.25 11.25V13.5H18.75V11.25H8.25ZM16.5 7.125V4.125C16.5 3.9 16.35 3.75 16.125 3.75L4.875 3.75C4.65 3.75 4.5 3.9 4.5 4.125V7.125C4.5 7.35 4.65 7.5 4.875 7.5L16.125 7.5C16.35 7.5 16.5 7.35 16.5 7.125ZM5.25 4.5V6.75L15.75 6.75V4.5L5.25 4.5Z" fill="white"/>
  </mask>
</svg>
