<svg viewBox="0 0 22 22" version="1.1" xmlns="http://www.w3.org/2000/svg" xmlns:xlink="http://www.w3.org/1999/xlink">
    <title>settings_22x22</title>
    <g stroke="none" stroke-width="1" fill="none">
        <g transform="translate(-574.000000, -395.000000)" stroke="#2C404C">
            <g transform="translate(100.000000, 164.000000)">
                <g transform="translate(474.000000, 231.000000)">
                    <path d="M21.5,13.1563 L21.5,8.8443 C21.5,8.6543 21.346,8.5003 21.156,8.5003 L19.671,8.5003 C19.52,8.5003 19.39,8.3993 19.346,8.2553 C19.187,7.7333 18.98,7.2323 18.729,6.7603 C18.657,6.6263 18.678,6.4653 18.785,6.3573 L19.834,5.3083 C19.969,5.1743 19.969,4.9573 19.834,4.8223 L17.178,2.1663 C17.043,2.0313 16.826,2.0313 16.691,2.1663 L15.643,3.2153 C15.536,3.3213 15.374,3.3433 15.241,3.2713 C14.767,3.0193 14.267,2.8123 13.745,2.6543 C13.601,2.6093 13.5,2.4803 13.5,2.3293 L13.5,1.0693 C13.5,0.6973 13.301,0.5003 13.056,0.5003 L8.844,0.5003 C8.654,0.5003 8.5,0.6543 8.5,0.8433 L8.5,2.3293 C8.5,2.4803 8.399,2.6103 8.255,2.6543 C7.733,2.8123 7.233,3.0193 6.759,3.2713 C6.625,3.3433 6.464,3.3213 6.357,3.2153 L5.468,2.3253 C5.205,2.0623 4.925,2.0633 4.751,2.2373 L2.166,4.8223 C2.032,4.9573 2.032,5.1743 2.166,5.3083 L3.215,6.3573 C3.322,6.4653 3.343,6.6263 3.271,6.7603 C3.02,7.2323 2.813,7.7333 2.654,8.2553 C2.61,8.3993 2.48,8.5003 2.329,8.5003 L0.844,8.5003 C0.654,8.5003 0.5,8.6543 0.5,8.8443 L0.5,13.1563 C0.5,13.3453 0.654,13.5003 0.844,13.5003 L2.329,13.5003 C2.48,13.5003 2.61,13.6003 2.654,13.7453 C2.813,14.2663 3.02,14.7673 3.271,15.2403 C3.343,15.3743 3.322,15.5353 3.215,15.6423 L2.166,16.6913 C2.032,16.8263 2.032,17.0433 2.166,17.1773 L4.822,19.8343 C4.957,19.9683 5.174,19.9683 5.309,19.8343 L6.357,18.7853 C6.464,18.6783 6.625,18.6573 6.759,18.7283 C7.233,18.9803 7.733,19.1873 8.255,19.3453 C8.399,19.3903 8.5,19.5193 8.5,19.6713 L8.5,20.9303 C8.5,21.3023 8.699,21.5003 8.944,21.5003 L13.156,21.5003 C13.346,21.5003 13.5,21.3453 13.5,21.1563 L13.5,19.6713 C13.5,19.5193 13.601,19.3893 13.745,19.3453 C14.267,19.1873 14.767,18.9803 15.241,18.7283 C15.375,18.6573 15.536,18.6783 15.643,18.7853 L16.532,19.6753 C16.795,19.9373 17.075,19.9363 17.249,19.7623 L19.834,17.1773 C19.969,17.0433 19.969,16.8263 19.834,16.6913 L18.785,15.6423 C18.678,15.5353 18.657,15.3743 18.729,15.2403 C18.98,14.7673 19.187,14.2663 19.346,13.7453 C19.39,13.6003 19.52,13.5003 19.671,13.5003 L21.156,13.5003 C21.346,13.5003 21.5,13.3453 21.5,13.1563 Z"></path>
                    <path d="M15.5,11 C15.5,13.485 13.485,15.5 11,15.5 C8.515,15.5 6.5,13.485 6.5,11 C6.5,8.515 8.515,6.5 11,6.5 C13.485,6.5 15.5,8.515 15.5,11 Z"></path>
                </g>
            </g>
        </g>
    </g>
</svg>
