<svg viewBox="0 0 22 22" version="1.1" xmlns="http://www.w3.org/2000/svg" xmlns:xlink="http://www.w3.org/1999/xlink">
    <title>user_22x22</title>
    <g stroke="none" stroke-width="1" fill="none">
        <g transform="translate(-218.000000, -1319.000000)" stroke="#2C404C">
            <g transform="translate(69.000000, 551.000000)">
                <g transform="translate(149.000000, 768.000000)">
                    <path d="M17.5,7 C17.5,10.59 14.59,13.5 11,13.5 C7.41,13.5 4.5,10.59 4.5,7 C4.5,3.41 7.41,0.5 11,0.5 C14.59,0.5 17.5,3.41 17.5,7 Z"></path>
                    <path d="M16,15.5 L6,15.5 C2.963,15.5 0.5,17.963 0.5,21 C0.5,21.276 0.724,21.5 1,21.5 L21,21.5 C21.276,21.5 21.5,21.276 21.5,21 C21.5,17.963 19.037,15.5 16,15.5 Z"></path>
                </g>
            </g>
        </g>
    </g>
</svg>
